<svg xmlns="http://www.w3.org/2000/svg" width="59.125" height="45.288" viewBox="0 0 59.125 45.288">
  <g id="Group_10977" data-name="Group 10977" transform="translate(-356.858 -395.118)">
    <g id="Group_10967" data-name="Group 10967" transform="translate(357.608 395.868)">
      <path id="Path_33538" data-name="Path 33538" d="M414.73,402.63H358.112a.5.5,0,0,1-.5-.5v-5.755a.5.5,0,0,1,.5-.5H414.73a.5.5,0,0,1,.5.5v5.755A.5.5,0,0,1,414.73,402.63Zm-56.115-1.007h55.611v-4.748H358.615Z" transform="translate(-357.608 -395.868)" fill="#fff" stroke="#fff" stroke-width="1.5"/>
    </g>
    <g id="Group_10968" data-name="Group 10968" transform="translate(357.608 432.889)">
      <path id="Path_33539" data-name="Path 33539" d="M414.73,458.278H358.112a.5.5,0,0,1-.5-.5v-5.759a.5.5,0,0,1,.5-.5H414.73a.5.5,0,0,1,.5.5v5.759A.5.5,0,0,1,414.73,458.278Zm-56.115-1.007h55.611v-4.752H358.615Z" transform="translate(-357.608 -451.512)" fill="#fff" stroke="#fff" stroke-width="1.5"/>
    </g>
    <g id="Group_10969" data-name="Group 10969" transform="translate(359.583 401.623)">
      <path id="Path_33540" data-name="Path 33540" d="M413.746,436.791H361.078a.5.5,0,0,1-.5-.5V405.022a.5.5,0,0,1,.5-.5h52.668a.5.5,0,0,1,.5.5v31.266A.5.5,0,0,1,413.746,436.791Zm-52.163-1.007h51.66V405.525h-51.66Z" transform="translate(-360.576 -404.518)" fill="#fff" stroke="#fff" stroke-width="1.5"/>
    </g>
    <g id="Group_10970" data-name="Group 10970" transform="translate(390.677 414.972)">
      <path id="Path_33541" data-name="Path 33541" d="M407.815,434.682a.5.5,0,0,1-.351-.864l6.7-6.542a.5.5,0,1,1,.7.721l-6.7,6.542A.5.5,0,0,1,407.815,434.682Z" transform="translate(-407.311 -427.134)" fill="#fff" stroke="#fff" stroke-width="1.5"/>
    </g>
    <g id="Group_10971" data-name="Group 10971" transform="translate(382.625 416.908)">
      <path id="Path_33542" data-name="Path 33542" d="M400.96,435.721a.5.5,0,0,1-.334-.128l-5.248-4.671a.5.5,0,0,1,.671-.752l5.247,4.673a.5.5,0,0,1-.335.879Z" transform="translate(-395.21 -430.043)" fill="#fff" stroke="#fff" stroke-width="1.5"/>
    </g>
    <g id="Group_10972" data-name="Group 10972" transform="translate(374.305 417.11)">
      <path id="Path_33543" data-name="Path 33543" d="M383.207,438.179a.5.5,0,0,1-.387-.825l5.665-6.824a.5.5,0,1,1,.774.643L383.595,438A.5.5,0,0,1,383.207,438.179Z" transform="translate(-382.703 -430.347)" fill="#fff" stroke="#fff" stroke-width="1.5"/>
    </g>
    <g id="Group_10973" data-name="Group 10973" transform="translate(371.167 423.492)">
      <path id="Path_33544" data-name="Path 33544" d="M380.406,444.775a2.418,2.418,0,1,1,2.419-2.416A2.42,2.42,0,0,1,380.406,444.775Zm0-3.829a1.41,1.41,0,1,0,1.412,1.413A1.414,1.414,0,0,0,380.406,440.946Z" transform="translate(-377.987 -439.939)" fill="#fff" stroke="#fff" stroke-width="1.5"/>
    </g>
    <g id="Group_10974" data-name="Group 10974" transform="translate(379.277 413.719)">
      <path id="Path_33545" data-name="Path 33545" d="M392.6,430.087a2.418,2.418,0,1,1,2.419-2.416A2.422,2.422,0,0,1,392.6,430.087Zm0-3.83a1.411,1.411,0,1,0,1.412,1.413A1.416,1.416,0,0,0,392.6,426.257Z" transform="translate(-390.177 -425.25)" fill="#fff" stroke="#fff" stroke-width="1.5"/>
    </g>
    <g id="Group_10975" data-name="Group 10975" transform="translate(387.387 420.939)">
      <path id="Path_33546" data-name="Path 33546" d="M404.789,440.938a2.418,2.418,0,1,1,2.42-2.42A2.424,2.424,0,0,1,404.789,440.938Zm0-3.829a1.411,1.411,0,1,0,1.412,1.409A1.413,1.413,0,0,0,404.789,437.109Z" transform="translate(-402.367 -436.102)" fill="#fff" stroke="#fff" stroke-width="1.5"/>
    </g>
    <g id="Group_10976" data-name="Group 10976" transform="translate(396.831 411.722)">
      <path id="Path_33547" data-name="Path 33547" d="M418.984,427.085a2.418,2.418,0,1,1,2.422-2.42A2.423,2.423,0,0,1,418.984,427.085Zm0-3.829a1.411,1.411,0,1,0,1.414,1.408A1.414,1.414,0,0,0,418.984,423.256Z" transform="translate(-416.562 -422.249)" fill="#fff" stroke="#fff" stroke-width="1.5"/>
    </g>
  </g>
</svg>
