<svg xmlns="http://www.w3.org/2000/svg" width="38.02" height="57" viewBox="0 0 38.02 57">
  <g id="Group_11200" data-name="Group 11200" transform="translate(-1515.757 -4045)">
    <g id="Group_11181" data-name="Group 11181" transform="translate(-17 444)">
      <g id="Group_10502" data-name="Group 10502" transform="translate(1532.757 3601)">
        <path id="Path_32573" data-name="Path 32573" d="M1144.067,71.791h-18.087a9.978,9.978,0,0,0-9.967,9.966v37.068a9.978,9.978,0,0,0,9.967,9.967h18.087a9.977,9.977,0,0,0,9.966-9.967V81.757A9.977,9.977,0,0,0,1144.067,71.791Zm-18.087,2.26h18.087a7.715,7.715,0,0,1,7.706,7.706v35.937h-33.5V81.757A7.715,7.715,0,0,1,1125.979,74.051Zm18.087,52.48h-18.087a7.712,7.712,0,0,1-7.614-6.576h33.314A7.711,7.711,0,0,1,1144.067,126.531Z" transform="translate(-1116.013 -71.791)" fill="#fff"/>
        <g id="Group_10500" data-name="Group 10500" transform="translate(13.813 4.578)">
          <path id="Path_32574" data-name="Path 32574" d="M1150.277,82.336h-8.134a1.13,1.13,0,0,1,0-2.26h8.134a1.13,1.13,0,0,1,0,2.26Z" transform="translate(-1141.013 -80.076)" fill="#fff"/>
        </g>
        <g id="Group_10501" data-name="Group 10501" transform="translate(16.631 50.12)">
          <path id="Path_32575" data-name="Path 32575" d="M1149.74,164.761h-2.5a1.13,1.13,0,1,1,0-2.26h2.5a1.13,1.13,0,1,1,0,2.26Z" transform="translate(-1146.113 -162.501)" fill="#fff"/>
        </g>
      </g>
    </g>
    <path id="Path_33783" data-name="Path 33783" d="M-101,2408.532a12.19,12.19,0,0,0-2.712,2.107c-.094.1-.179.2-.268.307-.008-.456-.022-.912-.057-1.363a1.75,1.75,0,0,0-1.646-1.747,3.666,3.666,0,0,0-1.88.781,26.609,26.609,0,0,0-3.128,2.31c-.237.2-.457.422-.686.634a16.173,16.173,0,0,0,.043-2.212,1.346,1.346,0,0,0-2-1.149,11.466,11.466,0,0,0-4.057,4.667,1.33,1.33,0,0,0,2.3,1.342c.286-.5.576-1,.895-1.49-.07.38-.155.76-.258,1.138a1.356,1.356,0,0,0,.929,1.636c1.859.592,3.144-1.291,4.348-2.362a20.852,20.852,0,0,1,1.733-1.393c.257-.184.52-.359.784-.533l.006.378.035,2.073a1.354,1.354,0,0,0,1.329,1.329c1.367.042,2.173-.95,2.963-1.9a9.77,9.77,0,0,1,2.675-2.254A1.331,1.331,0,0,0-101,2408.532Zm-11.866,4.389c-.013,0-.013,0,0,0Z" transform="translate(1642.58 1662.164)" fill="#fff"/>
  </g>
</svg>
