<svg xmlns="http://www.w3.org/2000/svg" width="57.979" height="45.016" viewBox="0 0 57.979 45.016">
  <g id="Group_11149" data-name="Group 11149" transform="translate(-357 -4129.174)">
    <g id="Group_11105" data-name="Group 11105" transform="translate(374.279 4134.67)">
      <g id="Group_10959" data-name="Group 10959" transform="translate(0 0)">
        <path id="Path_33532" data-name="Path 33532" d="M526.593,443.8a11.45,11.45,0,1,1,11.457-11.45A11.467,11.467,0,0,1,526.593,443.8Zm0-22a10.548,10.548,0,1,0,10.555,10.548A10.564,10.564,0,0,0,526.593,421.8Z" transform="translate(-515.136 -420.899)" fill="#fff" stroke="#fff" stroke-width="1"/>
      </g>
      <g id="Group_10960" data-name="Group 10960" transform="translate(3.889 14.48)">
        <path id="Path_33533" data-name="Path 33533" d="M529.232,453.621a11.463,11.463,0,0,1-7.409-2.717.452.452,0,0,1-.142-.464,6.7,6.7,0,0,1,2.967-3.945,8.957,8.957,0,0,1,4.712-1.294c3.7,0,6.7,1.979,7.636,5.041a.452.452,0,0,1-.13.468A11.446,11.446,0,0,1,529.232,453.621Zm-6.6-3.219a10.56,10.56,0,0,0,13.409-.171c-1.087-3.04-4.25-4.127-6.683-4.127C526.87,446.1,523.663,447.236,522.633,450.4Z" transform="translate(-521.664 -445.202)" fill="#fff" stroke="#fff" stroke-width="1"/>
      </g>
      <g id="Group_10961" data-name="Group 10961" transform="translate(7.453 4.347)">
        <path id="Path_33534" data-name="Path 33534" d="M532.984,437.664a4.135,4.135,0,1,1,4.137-4.135A4.141,4.141,0,0,1,532.984,437.664Zm0-7.179a3.044,3.044,0,1,0,3.046,3.045A3.05,3.05,0,0,0,532.984,430.485Z" transform="translate(-528.846 -429.395)" fill="#fff" stroke="#fff" stroke-width="1"/>
      </g>
    </g>
    <g id="Group_11106" data-name="Group 11106" transform="translate(357 4129.174)">
      <g id="Group_10503" data-name="Group 10503" transform="translate(27.379 33.626)">
        <path id="Path_32576" data-name="Path 32576" d="M155.317,355.309h-1.1a1.06,1.06,0,1,1,0-2.121h1.1a1.06,1.06,0,1,1,0,2.121Z" transform="translate(-153.159 -353.188)" fill="#fff"/>
      </g>
      <path id="Path_32577" data-name="Path 32577" d="M153.93,288.323H104.737a4.4,4.4,0,0,0-4.393,4.393v29.432a4.4,4.4,0,0,0,4.393,4.393h18.648v4.677h-4.6a1.06,1.06,0,1,0,0,2.121h21.091a1.06,1.06,0,0,0,0-2.121h-4.6v-4.677H153.93a4.4,4.4,0,0,0,4.393-4.393V292.716A4.4,4.4,0,0,0,153.93,288.323Zm-49.193,2.121H153.93a2.275,2.275,0,0,1,2.273,2.273v26.845H102.464V292.716A2.275,2.275,0,0,1,104.737,290.444Zm28.421,40.774h-7.653v-4.677h7.653Zm20.772-6.8h-19.7l-.01,0-.01,0h-9.753l-.01,0-.01,0h-19.7a2.275,2.275,0,0,1-2.273-2.273v-.467H156.2v.467A2.275,2.275,0,0,1,153.93,324.421Z" transform="translate(-100.344 -288.323)" fill="#fff"/>
    </g>
  </g>
</svg>
