<svg xmlns="http://www.w3.org/2000/svg" width="38.02" height="57" viewBox="0 0 38.02 57">
  <g id="Group_11189" data-name="Group 11189" transform="translate(-1767.757 -4190)">
    <g id="Group_11186" data-name="Group 11186" transform="translate(235 589)">
      <g id="Group_10502" data-name="Group 10502" transform="translate(1532.757 3601)">
        <path id="Path_32573" data-name="Path 32573" d="M1144.067,71.791h-18.087a9.978,9.978,0,0,0-9.967,9.966v37.068a9.978,9.978,0,0,0,9.967,9.967h18.087a9.977,9.977,0,0,0,9.966-9.967V81.757A9.977,9.977,0,0,0,1144.067,71.791Zm-18.087,2.26h18.087a7.715,7.715,0,0,1,7.706,7.706v35.937h-33.5V81.757A7.715,7.715,0,0,1,1125.979,74.051Zm18.087,52.48h-18.087a7.712,7.712,0,0,1-7.614-6.576h33.314A7.711,7.711,0,0,1,1144.067,126.531Z" transform="translate(-1116.013 -71.791)" fill="#fff"/>
        <g id="Group_10500" data-name="Group 10500" transform="translate(13.813 4.578)">
          <path id="Path_32574" data-name="Path 32574" d="M1150.277,82.336h-8.134a1.13,1.13,0,0,1,0-2.26h8.134a1.13,1.13,0,0,1,0,2.26Z" transform="translate(-1141.013 -80.076)" fill="#fff"/>
        </g>
        <g id="Group_10501" data-name="Group 10501" transform="translate(16.631 50.12)">
          <path id="Path_32575" data-name="Path 32575" d="M1149.74,164.761h-2.5a1.13,1.13,0,1,1,0-2.26h2.5a1.13,1.13,0,1,1,0,2.26Z" transform="translate(-1146.113 -162.501)" fill="#fff"/>
        </g>
      </g>
    </g>
    <g id="Group_11188" data-name="Group 11188" transform="translate(1617.657 1808.376)">
      <rect id="Rectangle_266" data-name="Rectangle 266" width="0.748" height="7.48" rx="0.216" transform="translate(156.811 2398.779)" fill="#fff"/>
      <rect id="Rectangle_267" data-name="Rectangle 267" width="0.748" height="7.48" rx="0.216" transform="translate(158.431 2398.779)" fill="#fff"/>
      <rect id="Rectangle_268" data-name="Rectangle 268" width="0.748" height="7.48" rx="0.216" transform="translate(160.987 2398.779)" fill="#fff"/>
      <rect id="Rectangle_269" data-name="Rectangle 269" width="0.748" height="7.48" rx="0.216" transform="translate(162.359 2398.779)" fill="#fff"/>
      <rect id="Rectangle_270" data-name="Rectangle 270" width="0.748" height="7.48" rx="0.216" transform="translate(163.501 2398.779)" fill="#fff"/>
      <rect id="Rectangle_271" data-name="Rectangle 271" width="0.748" height="7.48" rx="0.216" transform="translate(165.122 2398.779)" fill="#fff"/>
      <rect id="Rectangle_272" data-name="Rectangle 272" width="0.748" height="7.48" rx="0.216" transform="translate(167.678 2398.779)" fill="#fff"/>
      <rect id="Rectangle_273" data-name="Rectangle 273" width="0.748" height="7.48" rx="0.216" transform="translate(169.049 2398.779)" fill="#fff"/>
      <rect id="Rectangle_274" data-name="Rectangle 274" width="0.748" height="7.48" rx="0.216" transform="translate(175.158 2398.779)" fill="#fff"/>
      <rect id="Rectangle_275" data-name="Rectangle 275" width="0.748" height="7.48" rx="0.216" transform="translate(176.779 2398.779)" fill="#fff"/>
      <rect id="Rectangle_276" data-name="Rectangle 276" width="0.748" height="7.48" rx="0.216" transform="translate(172.104 2398.779)" fill="#fff"/>
      <rect id="Rectangle_277" data-name="Rectangle 277" width="0.748" height="7.48" rx="0.216" transform="translate(173.724 2398.779)" fill="#fff"/>
      <rect id="Rectangle_278" data-name="Rectangle 278" width="0.748" height="7.48" rx="0.216" transform="translate(170.576 2398.779)" fill="#fff"/>
      <rect id="Rectangle_279" data-name="Rectangle 279" width="0.748" height="7.48" rx="0.216" transform="translate(179.335 2398.779)" fill="#fff"/>
      <rect id="Rectangle_280" data-name="Rectangle 280" width="0.748" height="7.48" rx="0.216" transform="translate(180.706 2398.779)" fill="#fff"/>
      <g id="Group_11187" data-name="Group 11187" transform="translate(160.846 2411.157)">
        <path id="Path_33795" data-name="Path 33795" d="M167.714,2413.581a4.512,4.512,0,0,1-.671,2.485,3.528,3.528,0,0,1-1.855,1.463v.071q1.433.353,2.6.53l-.359.968q-1.362-.359-3.423-1.022a2.344,2.344,0,0,0-.467-.071,3.894,3.894,0,0,1-3.012-1.273,4.867,4.867,0,0,1,0-6.317,4.18,4.18,0,0,1,6.023,0A4.538,4.538,0,0,1,167.714,2413.581Zm-1.11-.013a3.7,3.7,0,0,0-.843-2.471,2.972,2.972,0,0,0-4.445,0,4.044,4.044,0,0,0,0,4.943,2.976,2.976,0,0,0,4.445,0A3.7,3.7,0,0,0,166.6,2413.568Z" transform="translate(-159.362 -2409.133)" fill="#fff"/>
        <path id="Path_33796" data-name="Path 33796" d="M171.418,2417.794h-1.129q-.486-3.71-2.233-3.711h-1.441v3.711H165.5v-8.373a13.2,13.2,0,0,1,2.313-.232,4.067,4.067,0,0,1,2.419.644,2.039,2.039,0,0,1,.9,1.749,2.177,2.177,0,0,1-1.4,2.107,2.9,2.9,0,0,1,1.031,1.308A12.314,12.314,0,0,1,171.418,2417.794Zm-1.4-6.148q0-1.488-2.224-1.488a10.978,10.978,0,0,0-1.183.054v2.941H168Q170.022,2413.152,170.022,2411.646Z" transform="translate(-155.789 -2409.101)" fill="#fff"/>
      </g>
    </g>
  </g>
</svg>
