<svg xmlns="http://www.w3.org/2000/svg" width="54.443" height="54.441" viewBox="0 0 54.443 54.441">
  <g id="Group_11166" data-name="Group 11166" transform="translate(340.771 -2384.446)">
    <path id="Path_33771" data-name="Path 33771" d="M-315.7,2424.155a14.658,14.658,0,0,1-14.641-14.641,14.657,14.657,0,0,1,14.641-14.641,14.656,14.656,0,0,1,14.641,14.641A14.657,14.657,0,0,1-315.7,2424.155Zm0-27.455a12.828,12.828,0,0,0-12.813,12.814,12.827,12.827,0,0,0,12.813,12.813,12.828,12.828,0,0,0,12.814-12.813A12.829,12.829,0,0,0-315.7,2396.7Z" transform="translate(2.153 2.153)" fill="#fff"/>
    <path id="Path_33772" data-name="Path 33772" d="M-316.465,2418.94a10.2,10.2,0,0,1-10.189-10.188.914.914,0,0,1,.914-.914.914.914,0,0,1,.913.914,8.37,8.37,0,0,0,8.361,8.361,8.37,8.37,0,0,0,8.362-8.361,8.371,8.371,0,0,0-8.362-8.362.913.913,0,0,1-.913-.914.914.914,0,0,1,.913-.914,10.2,10.2,0,0,1,10.189,10.189A10.2,10.2,0,0,1-316.465,2418.94Z" transform="translate(2.915 2.915)" fill="#fff"/>
    <path id="Path_33773" data-name="Path 33773" d="M-313.55,2438.888h-3a3.481,3.481,0,0,1-3.476-3.477V2433.1a22.264,22.264,0,0,1-4.094-1.7l-1.637,1.637a3.454,3.454,0,0,1-2.459,1.018,3.454,3.454,0,0,1-2.458-1.018l-4.246-4.246a3.454,3.454,0,0,1-1.018-2.458,3.456,3.456,0,0,1,1.018-2.459l1.637-1.637a22.288,22.288,0,0,1-1.7-4.093h-2.312a3.481,3.481,0,0,1-3.477-3.477v-6a3.481,3.481,0,0,1,3.477-3.477h2.312a22.29,22.29,0,0,1,1.7-4.092l-1.637-1.637a3.483,3.483,0,0,1,0-4.917l4.246-4.244a3.454,3.454,0,0,1,2.458-1.018,3.454,3.454,0,0,1,2.459,1.018l1.637,1.637a22.186,22.186,0,0,1,4.094-1.7v-2.312a3.48,3.48,0,0,1,3.476-3.476h3a.914.914,0,0,1,.915.913.914.914,0,0,1-.915.914h-3a1.651,1.651,0,0,0-1.649,1.649v3a.912.912,0,0,1-.677.882,20.414,20.414,0,0,0-4.944,2.052.915.915,0,0,1-1.1-.145l-2.126-2.126a1.652,1.652,0,0,0-2.333,0l-4.244,4.246a1.652,1.652,0,0,0,0,2.333l2.125,2.125a.912.912,0,0,1,.145,1.1,20.431,20.431,0,0,0-2.051,4.943.914.914,0,0,1-.883.677h-3a1.652,1.652,0,0,0-1.649,1.65v6a1.651,1.651,0,0,0,1.649,1.649h3a.915.915,0,0,1,.883.678,20.422,20.422,0,0,0,2.051,4.943.913.913,0,0,1-.145,1.1l-2.125,2.125a1.636,1.636,0,0,0-.484,1.167,1.634,1.634,0,0,0,.484,1.166l4.244,4.245a1.689,1.689,0,0,0,2.333,0l2.126-2.125a.915.915,0,0,1,1.1-.145,20.41,20.41,0,0,0,4.944,2.051.914.914,0,0,1,.677.883v3a1.652,1.652,0,0,0,1.649,1.65h3a.914.914,0,0,1,.915.914A.914.914,0,0,1-313.55,2438.888Z" fill="#fff"/>
    <path id="Path_33774" data-name="Path 33774" d="M-318.053,2398.853a.913.913,0,0,1-.913-.914v-12.58a.913.913,0,0,1,.913-.913,27.233,27.233,0,0,1,8.342,1.3.913.913,0,0,1,.589,1.149.913.913,0,0,1-1.149.59,25.366,25.366,0,0,0-6.867-1.2v11.651A.914.914,0,0,1-318.053,2398.853Z" transform="translate(4.503)" fill="#fff"/>
    <path id="Path_33775" data-name="Path 33775" d="M-318.053,2438.327a.914.914,0,0,1-.913-.913v-12.58a.914.914,0,0,1,.913-.915.914.914,0,0,1,.915.915v11.65a25.424,25.424,0,0,0,24.48-25.377,25.426,25.426,0,0,0-13.107-22.23.914.914,0,0,1-.357-1.242.913.913,0,0,1,1.242-.356,27.25,27.25,0,0,1,14.051,23.827A27.252,27.252,0,0,1-318.053,2438.327Z" transform="translate(4.503 0.561)" fill="#fff"/>
    <path id="Path_33776" data-name="Path 33776" d="M-318.053,2425.886a.913.913,0,0,1-.913-.913.913.913,0,0,1,.913-.914c.465,0,.935-.015,1.4-.047a.91.91,0,0,1,.972.849.914.914,0,0,1-.851.974C-317.036,2425.869-317.548,2425.886-318.053,2425.886Z" transform="translate(4.503 8.17)" fill="#fff"/>
    <path id="Path_33777" data-name="Path 33777" d="M-312.292,2431.882a.915.915,0,0,1-.865-.619.913.913,0,0,1,.569-1.16,20.583,20.583,0,0,0,2.477-1.034.915.915,0,0,1,1.225.413.914.914,0,0,1-.411,1.224,22.4,22.4,0,0,1-2.7,1.126A.934.934,0,0,1-312.292,2431.882Zm7.233-4.2a.912.912,0,0,1-.687-.31.914.914,0,0,1,.082-1.29,20.565,20.565,0,0,0,1.9-1.9.917.917,0,0,1,1.29-.086.916.916,0,0,1,.086,1.29,22.585,22.585,0,0,1-2.064,2.068A.905.905,0,0,1-305.059,2427.682Zm5.085-6.636a.912.912,0,0,1-.4-.094.913.913,0,0,1-.415-1.223,20.661,20.661,0,0,0,1.027-2.478.911.911,0,0,1,1.158-.571.913.913,0,0,1,.572,1.158,22.464,22.464,0,0,1-1.118,2.7A.915.915,0,0,1-299.973,2421.046Zm2.162-8.075a.927.927,0,0,1-.913-.972c.029-.449.045-.9.045-1.358s-.015-.888-.042-1.327a.914.914,0,0,1,.854-.97.911.911,0,0,1,.969.854q.047.717.047,1.444,0,.743-.048,1.475A.915.915,0,0,1-297.811,2412.971Zm-1.079-8.29a.914.914,0,0,1-.865-.623,20.547,20.547,0,0,0-1.026-2.48.913.913,0,0,1,.417-1.222.912.912,0,0,1,1.222.416,22.342,22.342,0,0,1,1.116,2.7.913.913,0,0,1-.573,1.157A.892.892,0,0,1-298.89,2404.681Zm-4.172-7.249a.915.915,0,0,1-.689-.312,20.691,20.691,0,0,0-1.893-1.9.915.915,0,0,1-.081-1.29.915.915,0,0,1,1.29-.081,22.74,22.74,0,0,1,2.061,2.072.913.913,0,0,1-.087,1.289A.909.909,0,0,1-303.062,2397.433Zm-6.618-5.112a.922.922,0,0,1-.407-.1,20.589,20.589,0,0,0-2.473-1.036.914.914,0,0,1-.567-1.161.916.916,0,0,1,1.161-.567,22.5,22.5,0,0,1,2.694,1.128.913.913,0,0,1,.41,1.225A.913.913,0,0,1-309.679,2392.321Z" transform="translate(5.692 1.025)" fill="#fff"/>
    <path id="Path_33778" data-name="Path 33778" d="M-316.59,2390.326c-.524-.032-.994-.048-1.462-.048a.913.913,0,0,1-.913-.913.913.913,0,0,1,.913-.913c.508,0,1.021.017,1.523.05a.914.914,0,0,1,.851.973A.913.913,0,0,1-316.59,2390.326Z" transform="translate(4.503 0.827)" fill="#fff"/>
  </g>
</svg>
