<svg xmlns="http://www.w3.org/2000/svg" width="70.104" height="57.122" viewBox="0 0 70.104 57.122">
  <g id="Group_10495" data-name="Group 10495" transform="translate(-265.155 -442.08)">
    <g id="Group_10494" data-name="Group 10494" transform="translate(265.155 442.08)">
      <g id="Group_10487" data-name="Group 10487" transform="translate(35.893 20.909)">
        <path id="Path_32522" data-name="Path 32522" d="M324.03,493.738a.971.971,0,0,1-.688-.284l-21.318-21.319a.972.972,0,0,1,0-1.373l7.086-7.086a.972.972,0,0,1,1.374,0L331.8,485a.971.971,0,0,1-1.374,1.374L309.8,465.737l-5.713,5.713,20.632,20.631a.971.971,0,0,1-.687,1.658Z" transform="translate(-301.741 -463.392)" fill="#fff"/>
      </g>
      <g id="Group_10488" data-name="Group 10488" transform="translate(56.817 41.863)">
        <path id="Path_32523" data-name="Path 32523" d="M326.035,498.009a2.964,2.964,0,0,1-2.1-5.061l7.355-7.357a3.039,3.039,0,0,1,4.194,0,2.97,2.97,0,0,1,0,4.193l-7.358,7.358A2.947,2.947,0,0,1,326.035,498.009Zm7.357-11.344a1.017,1.017,0,0,0-.724.3l-7.356,7.357a1.021,1.021,0,0,0,0,1.446,1.047,1.047,0,0,0,1.446,0l7.357-7.357a1.022,1.022,0,0,0-.723-1.746Z" transform="translate(-323.069 -484.751)" fill="#fff"/>
      </g>
      <g id="Group_10489" data-name="Group 10489" transform="translate(19.643 12.13)">
        <path id="Path_32524" data-name="Path 32524" d="M308.336,499.436a13.2,13.2,0,0,1-9.394-3.89l-9.881-9.882a13.3,13.3,0,0,1,0-18.784l11.08-11.081a4.894,4.894,0,0,1,6.76,0l2.686,2.684a4.787,4.787,0,0,1,0,6.761L298.949,475.88a3.245,3.245,0,0,0,0,4.589l8.566,8.567a3.25,3.25,0,0,0,4.59,0l1.735-1.735a.972.972,0,0,1,1.373,1.374l-1.735,1.734a5.193,5.193,0,0,1-7.336,0l-8.567-8.566a5.187,5.187,0,0,1,0-7.337l10.637-10.638a2.84,2.84,0,0,0,0-4.013l-2.686-2.685a2.9,2.9,0,0,0-4.012,0l-11.081,11.081a11.353,11.353,0,0,0,0,16.037l9.882,9.882a11.351,11.351,0,0,0,16.037,0l11.138-11.138a.971.971,0,0,1,1.374,1.373l-11.138,11.138A13.2,13.2,0,0,1,308.336,499.436Z" transform="translate(-285.177 -454.444)" fill="#fff"/>
      </g>
      <g id="Group_10490" data-name="Group 10490" transform="translate(28.352 16.169)">
        <path id="Path_32525" data-name="Path 32525" d="M295.025,474.182a.971.971,0,0,1-.687-1.658l13.677-13.678a.972.972,0,0,1,1.374,1.374L295.713,473.9A.972.972,0,0,1,295.025,474.182Z" transform="translate(-294.055 -458.561)" fill="#fff"/>
      </g>
      <g id="Group_10491" data-name="Group 10491" transform="translate(3.716)">
        <path id="Path_32526" data-name="Path 32526" d="M295.017,462.236a.972.972,0,0,1-.688-.285l-10.094-10.1-13.2-1.182a.973.973,0,0,1-.869-.794l-1.207-6.655a.969.969,0,0,1,.237-.827.933.933,0,0,1,.8-.313l17.707,1.534a.971.971,0,0,1,.6.281l12.036,12.036a.971.971,0,1,1-1.373,1.373l-11.786-11.786-16.089-1.4.849,4.677,12.814,1.147a.977.977,0,0,1,.6.281L295.7,460.578a.971.971,0,0,1-.687,1.658Z" transform="translate(-268.943 -442.08)" fill="#fff"/>
      </g>
      <g id="Group_10492" data-name="Group 10492" transform="translate(33.819 30.851)">
        <path id="Path_32527" data-name="Path 32527" d="M310.866,484.539a3.84,3.84,0,0,1-2.731-1.131l-8.223-8.223a.971.971,0,0,1,1.373-1.374l8.224,8.223a1.963,1.963,0,0,0,2.713,0,.972.972,0,1,1,1.374,1.374A3.839,3.839,0,0,1,310.866,484.539Z" transform="translate(-299.627 -473.527)" fill="#fff"/>
      </g>
      <g id="Group_10493" data-name="Group 10493" transform="translate(0 11.966)">
        <path id="Path_32528" data-name="Path 32528" d="M270.364,468.448a5.215,5.215,0,0,1-5.209-5.209c0-3.259,4.013-8.079,4.469-8.619a.972.972,0,0,1,.741-.343,1.076,1.076,0,0,1,.745.349c.456.544,4.462,5.419,4.462,8.613A5.214,5.214,0,0,1,270.364,468.448Zm0-11.64c-1.315,1.722-3.263,4.657-3.263,6.431a3.265,3.265,0,1,0,6.531,0C273.628,461.5,271.676,458.546,270.361,456.808Z" transform="translate(-265.155 -454.277)" fill="#fff"/>
      </g>
    </g>
  </g>
</svg>
