<svg xmlns="http://www.w3.org/2000/svg" width="38.02" height="57" viewBox="0 0 38.02 57">
  <g id="Group_11167" data-name="Group 11167" transform="translate(-1532.757 -3601)">
    <g id="Group_10502" data-name="Group 10502" transform="translate(1532.757 3601)">
      <path id="Path_32573" data-name="Path 32573" d="M1144.067,71.791h-18.087a9.978,9.978,0,0,0-9.967,9.966v37.068a9.978,9.978,0,0,0,9.967,9.967h18.087a9.977,9.977,0,0,0,9.966-9.967V81.757A9.977,9.977,0,0,0,1144.067,71.791Zm-18.087,2.26h18.087a7.715,7.715,0,0,1,7.706,7.706v35.937h-33.5V81.757A7.715,7.715,0,0,1,1125.979,74.051Zm18.087,52.48h-18.087a7.712,7.712,0,0,1-7.614-6.576h33.314A7.711,7.711,0,0,1,1144.067,126.531Z" transform="translate(-1116.013 -71.791)" fill="#fff"/>
      <g id="Group_10500" data-name="Group 10500" transform="translate(13.813 4.578)">
        <path id="Path_32574" data-name="Path 32574" d="M1150.277,82.336h-8.134a1.13,1.13,0,0,1,0-2.26h8.134a1.13,1.13,0,0,1,0,2.26Z" transform="translate(-1141.013 -80.076)" fill="#fff"/>
      </g>
      <g id="Group_10501" data-name="Group 10501" transform="translate(16.631 50.12)">
        <path id="Path_32575" data-name="Path 32575" d="M1149.74,164.761h-2.5a1.13,1.13,0,1,1,0-2.26h2.5a1.13,1.13,0,1,1,0,2.26Z" transform="translate(-1146.113 -162.501)" fill="#fff"/>
      </g>
    </g>
  </g>
</svg>
