<svg xmlns="http://www.w3.org/2000/svg" width="65.818" height="57" viewBox="0 0 65.818 57">
  <g id="Group_11160" data-name="Group 11160" transform="translate(1605.648 -1813.181)">
    <g id="Group_11156" data-name="Group 11156" transform="translate(-1605.648 1813.181)">
      <path id="Path_33733" data-name="Path 33733" d="M-1544.535,1833.164h-30.059l-15.03,26.032,15.03,26.032h30.059l15.03-26.032Z" transform="translate(1591.83 -1830.413)" fill="none"/>
      <path id="Path_33734" data-name="Path 33734" d="M-1558.192,1816.485l14.547,25.2-14.547,25.2h-29.094l-14.547-25.2,14.547-25.2h29.094m1.907-3.3h-32.909l-16.455,28.5,16.455,28.5h32.909l16.454-28.5-16.454-28.5Z" transform="translate(1605.648 -1813.181)" fill="#fff"/>
    </g>
    <g id="Group_11159" data-name="Group 11159" transform="translate(-1590.062 1824.603)">
      <g id="Group_11157" data-name="Group 11157" transform="translate(18.917 14.473)">
        <path id="Path_33735" data-name="Path 33735" d="M-1341.436,2017.684l-3.937-6.757,3.6-6.365h2.1v-3.282h-1.725a3.835,3.835,0,0,0-3.436,2.132l-.57,1.15h.043l-1.848,3.745h-.055l-1.887-3.745h0l-.57-1.15c-.041-.084-.086-.165-.133-.245l-.034-.067h-.009a3.833,3.833,0,0,0-3.26-1.82h-1.725v3.282h2.146l3.668,6.365-3.828,6.757h-2.121v3.281h1.725a3.835,3.835,0,0,0,3.144-1.641h.041l.163-.328c.03-.054.061-.108.088-.163l.57-1.15h-.006l2.055-4.137h.054l2.98,5.777h.044a3.835,3.835,0,0,0,3.144,1.641h1.725v-3.281Z" transform="translate(1355.013 -2001.281)" fill="#fff"/>
      </g>
      <g id="Group_11158" data-name="Group 11158" transform="translate(0)">
        <path id="Union_1" data-name="Union 1" d="M0,25.167a8.99,8.99,0,0,1,12.623-8.223v2.767H8.99a5.455,5.455,0,1,0,3.654,9.506l2.6,2.407A8.987,8.987,0,0,1,0,25.167ZM0,8.99a8.987,8.987,0,0,1,15.195-6.5L12.6,4.9A5.455,5.455,0,1,0,8.99,14.445h3.633v2.5a9,9,0,0,0-7.559.134A8.99,8.99,0,0,1,0,8.99Zm8.99,5.455Z" fill="#fff" stroke="rgba(0,0,0,0)" stroke-miterlimit="10" stroke-width="1"/>
      </g>
    </g>
  </g>
</svg>
