<svg xmlns="http://www.w3.org/2000/svg" width="55.836" height="55.308" viewBox="0 0 55.836 55.308">
  <g id="Group_10792" data-name="Group 10792" transform="translate(-622.784 -662.413)">
    <g id="Group_10783" data-name="Group 10783" transform="translate(649.985 663.18)">
      <path id="Path_33378" data-name="Path 33378" d="M680.332,677.325H667.106a.463.463,0,0,1-.464-.464V663.644a.464.464,0,0,1,.792-.328l13.225,13.216a.464.464,0,0,1-.328.793ZM667.57,676.4h11.64l-11.64-11.632Z" transform="translate(-666.642 -663.18)" fill="#fff" stroke="#fff" stroke-width="1.5"/>
    </g>
    <g id="Group_10784" data-name="Group 10784" transform="translate(650.016 702.517)">
      <path id="Path_33379" data-name="Path 33379" d="M667.159,736.918a.459.459,0,0,1-.269-.086.468.468,0,0,1-.2-.388l.17-8.7a.465.465,0,0,1,.736-.368l7.909,5.716a.465.465,0,0,1-.112.812l-8.078,2.984A.467.467,0,0,1,667.159,736.918Zm.617-8.268-.139,7.132,6.621-2.446Z" transform="translate(-666.694 -727.29)" fill="#fff" stroke="#fff" stroke-width="1.5"/>
    </g>
    <g id="Group_10785" data-name="Group 10785" transform="translate(666.713 676.492)">
      <path id="Path_33380" data-name="Path 33380" d="M702.278,694.726a.46.46,0,0,1-.272-.089l-7.908-5.72a.464.464,0,0,1-.1-.649l2.321-3.2a.465.465,0,0,1,.649-.1l7.905,5.72a.463.463,0,0,1,.1.649l-2.319,3.2A.465.465,0,0,1,702.278,694.726Zm-7.258-6.288,7.155,5.175,1.773-2.449-7.153-5.176Z" transform="translate(-693.906 -684.875)" fill="#fff" stroke="#fff" stroke-width="1.5"/>
    </g>
    <g id="Group_10786" data-name="Group 10786" transform="translate(623.534 663.18)">
      <path id="Path_33381" data-name="Path 33381" d="M663.674,716.971H624a.465.465,0,0,1-.465-.464V663.644a.464.464,0,0,1,.465-.464h26.45a.464.464,0,0,1,.328.136L664,676.532a.466.466,0,0,1,.137.33V685a.46.46,0,0,1-.089.272l-12.937,17.864-.153,7.874,7.309-2.7,5.03-6.948a.465.465,0,0,1,.841.273v14.871A.465.465,0,0,1,663.674,716.971Zm-39.211-.929H663.21V703.069l-4.273,5.9a.463.463,0,0,1-.215.163l-8.08,2.984a.465.465,0,0,1-.625-.445l.17-8.7a.469.469,0,0,1,.087-.263l12.936-17.86v-7.8l-12.954-12.945H624.464Z" transform="translate(-623.534 -663.18)" fill="#fff" stroke="#fff" stroke-width="1.5"/>
    </g>
    <g id="Group_10787" data-name="Group 10787" transform="translate(629.806 711.217)">
      <path id="Path_33382" data-name="Path 33382" d="M654.429,742.4H634.221a.464.464,0,1,1,0-.928h20.208a.464.464,0,0,1,0,.928Z" transform="translate(-633.756 -741.469)" fill="#fff" stroke="#fff" stroke-width="1.5"/>
    </g>
    <g id="Group_10788" data-name="Group 10788" transform="translate(650.016 676.492)">
      <path id="Path_33383" data-name="Path 33383" d="M667.159,720.529a.463.463,0,0,1-.269-.086.469.469,0,0,1-.2-.388l.172-8.7a.456.456,0,0,1,.088-.263L685.8,685.068a.465.465,0,0,1,.649-.1l7.905,5.72a.463.463,0,0,1,.1.649l-18.846,26.022a.457.457,0,0,1-.215.163l-8.078,2.984A.467.467,0,0,1,667.159,720.529Zm.633-9.009-.155,7.874,7.307-2.7,18.489-25.53-7.153-5.176Z" transform="translate(-666.694 -684.875)" fill="#fff" stroke="#fff" stroke-width="1.5"/>
    </g>
    <g id="Group_10789" data-name="Group 10789" transform="translate(655.891 689.769)">
      <path id="Path_33384" data-name="Path 33384" d="M684.4,718.367a.465.465,0,0,1-.288-.1l-7.667-6.054a.464.464,0,0,1-.089-.637l3.528-4.869a.464.464,0,0,1,.664-.092l7.664,6.055a.464.464,0,0,1,.089.637l-3.525,4.87a.465.465,0,0,1-.312.186A.376.376,0,0,1,684.4,718.367Zm-7.03-6.607,6.938,5.478,2.98-4.116-6.935-5.479Z" transform="translate(-676.267 -706.514)" fill="#fff" stroke="#fff" stroke-width="1.5"/>
    </g>
    <g id="Group_10790" data-name="Group 10790" transform="translate(629.806 697.909)">
      <path id="Path_33385" data-name="Path 33385" d="M648.924,720.709h-14.7a.465.465,0,1,1,0-.929h14.7a.465.465,0,0,1,0,.929Z" transform="translate(-633.756 -719.78)" fill="#fff" stroke="#fff" stroke-width="1.5"/>
    </g>
    <g id="Group_10791" data-name="Group 10791" transform="translate(629.806 684.601)">
      <path id="Path_33386" data-name="Path 33386" d="M654.429,699.02H634.221a.464.464,0,1,1,0-.929h20.208a.464.464,0,0,1,0,.929Z" transform="translate(-633.756 -698.091)" fill="#fff" stroke="#fff" stroke-width="1.5"/>
    </g>
  </g>
</svg>
