<svg xmlns="http://www.w3.org/2000/svg" width="38.02" height="57" viewBox="0 0 38.02 57">
  <g id="Group_11192" data-name="Group 11192" transform="translate(-1713.757 -4226)">
    <g id="Group_11191" data-name="Group 11191" transform="translate(-54 36)">
      <g id="Group_11186" data-name="Group 11186" transform="translate(235 589)">
        <g id="Group_10502" data-name="Group 10502" transform="translate(1532.757 3601)">
          <path id="Path_32573" data-name="Path 32573" d="M1144.067,71.791h-18.087a9.978,9.978,0,0,0-9.967,9.966v37.068a9.978,9.978,0,0,0,9.967,9.967h18.087a9.977,9.977,0,0,0,9.966-9.967V81.757A9.977,9.977,0,0,0,1144.067,71.791Zm-18.087,2.26h18.087a7.715,7.715,0,0,1,7.706,7.706v35.937h-33.5V81.757A7.715,7.715,0,0,1,1125.979,74.051Zm18.087,52.48h-18.087a7.712,7.712,0,0,1-7.614-6.576h33.314A7.711,7.711,0,0,1,1144.067,126.531Z" transform="translate(-1116.013 -71.791)" fill="#fff"/>
          <g id="Group_10500" data-name="Group 10500" transform="translate(13.813 4.578)">
            <path id="Path_32574" data-name="Path 32574" d="M1150.277,82.336h-8.134a1.13,1.13,0,0,1,0-2.26h8.134a1.13,1.13,0,0,1,0,2.26Z" transform="translate(-1141.013 -80.076)" fill="#fff"/>
          </g>
          <g id="Group_10501" data-name="Group 10501" transform="translate(16.631 50.12)">
            <path id="Path_32575" data-name="Path 32575" d="M1149.74,164.761h-2.5a1.13,1.13,0,1,1,0-2.26h2.5a1.13,1.13,0,1,1,0,2.26Z" transform="translate(-1146.113 -162.501)" fill="#fff"/>
          </g>
        </g>
      </g>
    </g>
    <g id="Group_11190" data-name="Group 11190" transform="translate(-3870.283 1921.131)">
      <path id="Path_33797" data-name="Path 33797" d="M5614.437,2344.372l-2.664-2.664a6.522,6.522,0,0,0,1-3.164c.008-.13.013-.26.013-.392a6.423,6.423,0,0,0-.209-1.629h1.777v-4.2a2.492,2.492,0,0,0-1.948-2.418,1.7,1.7,0,1,0-1.112,0c-.051.012-.1.025-.156.041l-.292.084a3.454,3.454,0,0,0-1.852-1.267,2.288,2.288,0,0,0,1.407-2.1c0-.031,0-.063,0-.094v0c0-.032,0-.063,0-.1a2.315,2.315,0,1,0-4.63,0c0,.032,0,.064,0,.1v0c0,.031,0,.063,0,.095a2.289,2.289,0,0,0,1.424,2.109l-.083.022-.328.1a4.8,4.8,0,0,0-2.928-2.065,3.183,3.183,0,0,0,2.119-2.983,3.133,3.133,0,0,0-.945-2.247,3.223,3.223,0,0,0-5.486,2.247,3.183,3.183,0,0,0,2.116,2.982,4.808,4.808,0,0,0-2.926,2.067l-.329-.1c-.027-.008-.053-.014-.081-.021a2.289,2.289,0,0,0,1.426-2.11c0-.031,0-.061,0-.092v-.009c0-.031,0-.061,0-.092a2.315,2.315,0,1,0-4.63,0c0,.032,0,.064,0,.1v0c0,.031,0,.063,0,.095a2.288,2.288,0,0,0,1.41,2.1,3.446,3.446,0,0,0-1.767,1.154l-.332-.1a1.679,1.679,0,0,0,.945-1.5c0-.027,0-.054,0-.084s0-.056,0-.085a1.7,1.7,0,0,0-3.4,0c0,.029,0,.057,0,.085s0,.056,0,.084a1.678,1.678,0,0,0,.934,1.5,2.517,2.517,0,0,0-1.746,2.392v4.308H5594v1.447h3.968v1.712h1.842a6.564,6.564,0,0,0,10.241,3.864l2.608,2.608a1.26,1.26,0,0,0,1.782-1.781Zm-13.929-6.156a5.7,5.7,0,0,1,11.4,0c0,.095,0,.189-.007.283a5.721,5.721,0,0,1-11.315.669l-.016-.087A5.739,5.739,0,0,1,5600.507,2338.216Zm12.978-5.889v3.327h-1.224c-.016-.036-.033-.072-.049-.108V2332.2a3.873,3.873,0,0,0-.3-1.486A1.629,1.629,0,0,1,5613.485,2332.327Zm-2.471-4a.83.83,0,1,1,.831.811A.822.822,0,0,1,5611.014,2328.325Zm-.359,3.761v1.295a6.579,6.579,0,0,0-2.414-1.414v-.347a5.153,5.153,0,0,0-.4-1.968l.071-.02-.05-.1a1.973,1.973,0,0,1,.216-.012A2.575,2.575,0,0,1,5610.654,2332.086Zm-4.014-5.417c0-.012,0-.023,0-.035l0-.061,0-.061c0-.012,0-.024,0-.036a1.446,1.446,0,1,1,2.892,0,.312.312,0,0,1,0,.037l0,.06,0,.06a.28.28,0,0,1,0,.035,1.446,1.446,0,0,1-2.892,0Zm-6.229-2.82a2.354,2.354,0,0,1,4.007-1.627,2.268,2.268,0,0,1,.686,1.627,2.347,2.347,0,0,1-4.692,0Zm-4.424,2.82c0-.012,0-.023,0-.035l0-.061,0-.061c0-.012,0-.024,0-.036a1.446,1.446,0,1,1,2.892,0c0,.012,0,.023,0,.035l0,.062,0,.062c0,.011,0,.022,0,.034a1.446,1.446,0,0,1-2.892,0Zm-3.14,1.522c0-.011,0-.023,0-.035a.831.831,0,0,1,1.661,0c0,.014,0,.029,0,.054l0,.042,0,.032a.377.377,0,0,1,0,.041.831.831,0,0,1-1.661,0c0-.011,0-.022,0-.034l0-.05Zm.459,4.01v3.453h-1.273v-3.438a1.646,1.646,0,0,1,1.544-1.64l-.031.056.082.022A3.88,3.88,0,0,0,5593.308,2332.2Zm3.968-.581v5.481h-2.411v-5.014a2.575,2.575,0,0,1,2.573-2.571,1.969,1.969,0,0,1,.212.012l-.052.108.072.02A5.159,5.159,0,0,0,5597.275,2331.62Zm1.558,7.193V2331.5a3.925,3.925,0,1,1,7.849,0v.166c-.156-.011-.313-.019-.473-.019a6.579,6.579,0,0,0-6.571,6.571c0,.2.011.4.029.6Z" fill="#fff"/>
      <path id="Path_33798" data-name="Path 33798" d="M5653.753,2402.669a5.04,5.04,0,1,0-5.04-5.04A5.04,5.04,0,0,0,5653.753,2402.669Zm0-8.819a3.78,3.78,0,1,1-3.78,3.78A3.784,3.784,0,0,1,5653.753,2393.85Z" transform="translate(-47.544 -59.413)" fill="#fff"/>
      <path id="Path_33799" data-name="Path 33799" d="M5663.732,2405.51v-.84a2.943,2.943,0,0,0-2.94,2.939h.84A2.1,2.1,0,0,1,5663.732,2405.51Z" transform="translate(-57.522 -69.393)" fill="#fff"/>
    </g>
  </g>
</svg>
