<svg xmlns="http://www.w3.org/2000/svg" width="52.419" height="52.418" viewBox="0 0 52.419 52.418">
  <path id="Path_32565" data-name="Path 32565" d="M559.413,101.292a1.107,1.107,0,0,0,0-2.214h-6.568V94.9h6.568a1.107,1.107,0,0,0,0-2.214h-6.568V89.65a1.107,1.107,0,0,0-1.107-1.107H548.7V81.975a1.107,1.107,0,0,0-2.214,0v6.568H542.31V81.975a1.107,1.107,0,0,0-2.214,0v6.568h-4.179V81.975a1.107,1.107,0,0,0-2.214,0v6.568h-4.179V81.975a1.107,1.107,0,1,0-2.213,0v6.568h-4.179V81.975a1.107,1.107,0,0,0-2.214,0v6.568h-3.035a1.107,1.107,0,0,0-1.107,1.107v3.035h-6.568a1.107,1.107,0,1,0,0,2.214h6.568v4.179h-6.568a1.107,1.107,0,1,0,0,2.214h6.568v4.179h-6.568a1.107,1.107,0,1,0,0,2.214h6.568v4.179h-6.568a1.107,1.107,0,1,0,0,2.214h6.568v4.179h-6.568a1.107,1.107,0,1,0,0,2.213h6.568V123.5a1.106,1.106,0,0,0,1.107,1.107h3.035v6.568a1.107,1.107,0,0,0,2.214,0v-6.568h4.179v6.568a1.107,1.107,0,1,0,2.213,0v-6.568H533.7v6.568a1.107,1.107,0,0,0,2.214,0v-6.568H540.1v6.568a1.107,1.107,0,0,0,2.214,0v-6.568h4.178v6.568a1.107,1.107,0,0,0,2.214,0v-6.568h3.034a1.107,1.107,0,0,0,1.107-1.107v-3.035h6.568a1.107,1.107,0,1,0,0-2.213h-6.568v-4.179h6.568a1.107,1.107,0,0,0,0-2.214h-6.568v-4.179h6.568a1.107,1.107,0,0,0,0-2.214h-6.568v-4.179ZM550.631,122.4H518.99V90.757h31.641Z" transform="translate(-508.601 -80.368)" fill="#fff" stroke="#fff" stroke-width="1"/>
</svg>
