<svg xmlns="http://www.w3.org/2000/svg" width="61.882" height="51.663" viewBox="0 0 61.882 51.663">
  <g id="Group_11199" data-name="Group 11199" transform="translate(-7060.569 -2277)">
    <g id="Group_11196" data-name="Group 11196" transform="translate(7093.078 2284.623)">
      <g id="Group_10502" data-name="Group 10502">
        <path id="Path_32573" data-name="Path 32573" d="M7117.314,2285.224H7103.34a7.707,7.707,0,0,0-7.7,7.7v28.639a7.709,7.709,0,0,0,7.7,7.7h13.975a7.709,7.709,0,0,0,7.7-7.7v-28.639A7.709,7.709,0,0,0,7117.314,2285.224Zm-13.975,1.746h13.975a5.962,5.962,0,0,1,5.954,5.954v27.764h-25.883v-27.764a5.962,5.962,0,0,1,5.954-5.954Zm13.975,40.546H7103.34a5.958,5.958,0,0,1-5.882-5.081H7123.2A5.958,5.958,0,0,1,7117.314,2327.517Z" transform="translate(-7095.64 -2285.224)" fill="#fff"/>
        <g id="Group_10500" data-name="Group 10500" transform="translate(10.672 3.537)">
          <path id="Path_32574" data-name="Path 32574" d="M7114.31,2290.786h-6.284a.873.873,0,1,1,0-1.746h6.284a.873.873,0,0,1,0,1.746Z" transform="translate(-7107.152 -2289.04)" fill="#fff"/>
        </g>
        <g id="Group_10501" data-name="Group 10501" transform="translate(12.845 38.723)">
          <path id="Path_32575" data-name="Path 32575" d="M7112.3,2328.745h-1.932a.873.873,0,0,1,0-1.746h1.935a.873.873,0,0,1,0,1.746Z" transform="translate(-7109.497 -2326.999)" fill="#fff"/>
        </g>
      </g>
    </g>
    <g id="Group_11196-2" data-name="Group 11196" transform="translate(7060.569 2277)">
      <path id="Path_33815" data-name="Path 33815" d="M7063.1,2287.531v18.762a8,8,0,0,0,6.821,7.9v-34.558A8,8,0,0,0,7063.1,2287.531Zm2.448,10.675v-2.593a1.172,1.172,0,1,1,2.345-.006v2.6a1.172,1.172,0,1,1-2.345.006Z" transform="translate(-7060.754 -2277.192)" fill="none"/>
      <path id="Path_33816" data-name="Path 33816" d="M7072.081,2314.1v-34.751h37.279a8,8,0,0,1,6.708,3.653.106.106,0,0,0,.053.038s2.642.021,2.632,0l-.019-.039-.028-.063a10.345,10.345,0,0,0-9.346-5.933h-38.453a10.351,10.351,0,0,0-10.339,10.339V2306.1a10.35,10.35,0,0,0,10.339,10.338h19.2V2314.1Zm-2.346-.1a8,8,0,0,1-6.821-7.9v-18.762a8,8,0,0,1,6.821-7.9Z" transform="translate(-7060.568 -2277)" fill="#fff"/>
      <path id="Path_33817" data-name="Path 33817" d="M7066.915,2300.548a1.173,1.173,0,0,0,1.17-1.175v-2.6a1.172,1.172,0,1,0-2.345.006v2.6A1.172,1.172,0,0,0,7066.915,2300.548Z" transform="translate(-7060.947 -2278.359)" fill="#fff"/>
    </g>
    <g id="Group_11197" data-name="Group 11197" transform="translate(7098.087 2294.16)">
      <path id="Path_33818" data-name="Path 33818" d="M7104.517,2317.637h-1.686a1.79,1.79,0,0,1-1.788-1.787v-6.859l1.323.579a3.231,3.231,0,0,0,1.308.278,3.273,3.273,0,1,0-1.309-6.269l-1.322.578V2297.3a1.789,1.789,0,0,1,1.788-1.786h1.686a1.788,1.788,0,0,1,1.787,1.786v1.238a4.185,4.185,0,0,1,1.247.443l.822-.823a1.829,1.829,0,0,1,2.526,0l1.192,1.193a1.788,1.788,0,0,1,0,2.527l-.823.824a8.365,8.365,0,0,1,.518,1.244h1.163a1.789,1.789,0,0,1,1.787,1.787v1.687a1.789,1.789,0,0,1-1.787,1.786h-1.163a8.449,8.449,0,0,1-.518,1.246l.823.823a1.79,1.79,0,0,1,0,2.528l-1.192,1.192a1.829,1.829,0,0,1-2.526,0l-.823-.824a8.412,8.412,0,0,1-1.246.518v1.162A1.789,1.789,0,0,1,7104.517,2317.637Zm-1.585-1.887h1.485v-1.137a1.8,1.8,0,0,1,1.279-1.713,6.474,6.474,0,0,0,1.03-.429,1.789,1.789,0,0,1,2.1.3l.813.815,1.05-1.051-.813-.813a1.788,1.788,0,0,1-.3-2.1,6.626,6.626,0,0,0,.43-1.031,1.8,1.8,0,0,1,1.711-1.277h1.137v-1.485h-1.137a1.8,1.8,0,0,1-1.712-1.277,6.647,6.647,0,0,0-.429-1.03,1.787,1.787,0,0,1,.3-2.1l.812-.813-1.049-1.05-.813.814a1.785,1.785,0,0,1-2.1.3,6.658,6.658,0,0,0-1.03-.428,1.807,1.807,0,0,1-1.277-1.713V2297.4h-1.485v4.068a5.057,5.057,0,0,1,.743-.054,5.16,5.16,0,1,1,0,10.32,5.091,5.091,0,0,1-.743-.055Z" transform="translate(-7101.043 -2295.513)" fill="#fff"/>
    </g>
    <g id="Group_11198" data-name="Group 11198" transform="translate(7076.413 2285.655)">
      <path id="Path_33819" data-name="Path 33819" d="M7089.567,2308.462h-1.687a1.789,1.789,0,0,1-1.787-1.787v-1.238a4.129,4.129,0,0,1-1.245-.443l-.823.823a1.787,1.787,0,0,1-2.527,0l-1.193-1.193a1.787,1.787,0,0,1,0-2.526l.824-.824a8.272,8.272,0,0,1-.529-1.28l-1.152.035a1.789,1.789,0,0,1-1.787-1.787v-1.686a1.789,1.789,0,0,1,1.787-1.787h1.238a4.052,4.052,0,0,1,.443-1.245l-.824-.823a1.79,1.79,0,0,1,0-2.527l1.194-1.194a1.788,1.788,0,0,1,2.526,0l.824.825a8.436,8.436,0,0,1,1.245-.518v-1.162a1.789,1.789,0,0,1,1.787-1.787h1.687a1.789,1.789,0,0,1,1.787,1.787v6.861l-1.324-.581a3.219,3.219,0,0,0-1.306-.276,3.272,3.272,0,1,0,0,6.543,3.215,3.215,0,0,0,1.306-.276l1.324-.58v6.86A1.789,1.789,0,0,1,7089.567,2308.462Zm-1.587-1.887h1.485v-4.069a5.16,5.16,0,1,1,0-10.212v-4.068h-1.485v1.136a1.8,1.8,0,0,1-1.278,1.712,6.6,6.6,0,0,0-1.03.43,1.787,1.787,0,0,1-2.1-.3l-.813-.815-1.052,1.05.814.813a1.791,1.791,0,0,1,.3,2.1,6.67,6.67,0,0,0-.431,1.031,1.805,1.805,0,0,1-1.711,1.278h-1.137v1.485h1.137a1.806,1.806,0,0,1,1.711,1.276,6.662,6.662,0,0,0,.43,1.031,1.79,1.79,0,0,1-.3,2.1l-.813.814,1.051,1.05.813-.813a1.786,1.786,0,0,1,2.1-.3,6.686,6.686,0,0,0,1.03.429,1.8,1.8,0,0,1,1.276,1.712Z" transform="translate(-7077.662 -2286.337)" fill="#fff"/>
    </g>
  </g>
</svg>
