<svg xmlns="http://www.w3.org/2000/svg" width="57" height="47.426" viewBox="0 0 57 47.426">
  <g id="Group_11185" data-name="Group 11185" transform="translate(-63.706 -2384.384)">
    <path id="Path_33786" data-name="Path 33786" d="M91.444,2418.674a14.153,14.153,0,0,1-1.427-.072,12.03,12.03,0,0,1-9.7-6.984,13.136,13.136,0,0,1,.951-12.851l9.392-13.965a.95.95,0,0,1,1.575,0l9.392,13.965a13.139,13.139,0,0,1,.95,12.851,12.03,12.03,0,0,1-9.7,6.984A14.159,14.159,0,0,1,91.444,2418.674Zm-8.6-18.848a11.234,11.234,0,0,0-.807,10.987,10.021,10.021,0,0,0,8.176,5.9,12.3,12.3,0,0,0,2.472,0,10.018,10.018,0,0,0,8.175-5.9,11.231,11.231,0,0,0-.807-10.987l-8.6-12.793Z" transform="translate(0.762 0)" fill="#fff"/>
    <path id="Path_33787" data-name="Path 33787" d="M91.2,2413a7.228,7.228,0,0,1-7.22-7.22.949.949,0,0,1,1.9,0A5.328,5.328,0,0,0,91.2,2411.1a.949.949,0,1,1,0,1.9Z" transform="translate(1.005 1.014)" fill="#fff"/>
    <path id="Path_33788" data-name="Path 33788" d="M91.378,2424.461c-4.07,0-10.959-.765-10.959-3.632s6.888-3.634,10.959-3.634,10.96.765,10.96,3.634c0,1.028-.868,1.865-2.581,2.486a.949.949,0,1,1-.648-1.784,3.262,3.262,0,0,0,1.3-.708c-.457-.563-3.413-1.73-9.027-1.73-5.632,0-8.589,1.174-9.031,1.735.442.562,3.4,1.735,9.031,1.735.728,0,1.46-.022,2.176-.066a.949.949,0,1,1,.115,1.9C92.915,2424.438,92.144,2424.461,91.378,2424.461Z" transform="translate(0.828 1.627)" fill="#fff"/>
    <path id="Path_33789" data-name="Path 33789" d="M77.834,2425.787a.941.941,0,0,1-.239-.031c-4.546-1.181-6.852-2.8-6.852-4.8,0-3.979,9.337-5.859,17.333-6.26a.938.938,0,0,1,.347.047,10.172,10.172,0,0,0,2.2.47,12.149,12.149,0,0,0,2.473,0,10.255,10.255,0,0,0,2.2-.471.932.932,0,0,1,.347-.047c7.995.4,17.332,2.281,17.332,6.26a3.077,3.077,0,0,1-1.235,2.326.949.949,0,1,1-1.24-1.437,1.424,1.424,0,0,0,.577-.889c0-1.495-5.335-3.829-15.355-4.356a12.236,12.236,0,0,1-2.434.5,14.3,14.3,0,0,1-2.855,0,12.21,12.21,0,0,1-2.433-.5c-10.02.527-15.355,2.861-15.355,4.356,0,.578,1.144,1.854,5.429,2.966a.949.949,0,0,1-.237,1.868Z" transform="translate(0.349 1.503)" fill="#fff"/>
    <path id="Path_33790" data-name="Path 33790" d="M91.213,2426.9c-2.263,0-4.486-.1-6.607-.292a.949.949,0,0,1,.173-1.89c2.063.19,4.229.285,6.434.285a52.379,52.379,0,0,0,15.413-1.969.949.949,0,0,1,.6,1.8C103.28,2426.144,97.443,2426.9,91.213,2426.9Z" transform="translate(0.993 1.914)" fill="#fff"/>
    <path id="Path_33791" data-name="Path 33791" d="M102.256,2429.489a.948.948,0,0,1-.136-1.887c10.185-1.493,14.825-4.49,14.825-6.643,0-1.542-2.164-3.2-5.938-4.553a.949.949,0,0,1,.64-1.788c4.707,1.687,7.2,3.879,7.2,6.341,0,3.826-6.148,7.011-16.448,8.52A.869.869,0,0,1,102.256,2429.489Z" transform="translate(1.864 1.496)" fill="#fff"/>
    <path id="Path_33792" data-name="Path 33792" d="M91.984,2429.835c-9.3,0-17.982-1.417-23.236-3.79a.949.949,0,1,1,.782-1.729c5.02,2.267,13.416,3.621,22.454,3.621q.9,0,1.783-.017a.974.974,0,0,1,.967.931.949.949,0,0,1-.931.968Q92.9,2429.833,91.984,2429.835Z" transform="translate(0.222 1.975)" fill="#fff"/>
    <path id="Path_33793" data-name="Path 33793" d="M66.09,2424.614a.944.944,0,0,1-.637-.246,4.59,4.59,0,0,1-1.746-3.387c0-2.724,2.994-5.083,8.659-6.826a.949.949,0,0,1,.558,1.814c-4.582,1.411-7.319,3.284-7.319,5.013a2.817,2.817,0,0,0,1.122,1.98.948.948,0,0,1-.637,1.652Z" transform="translate(0 1.474)" fill="#fff"/>
    <path id="Path_33794" data-name="Path 33794" d="M91.593,2417.3a14.153,14.153,0,0,1-1.427-.072,11.732,11.732,0,0,1-6.987-3.2c-2.1.208-4.107.494-5.98.851a.949.949,0,1,1-.356-1.864c2.063-.394,4.283-.7,6.6-.918a.933.933,0,0,1,.767.282,9.87,9.87,0,0,0,6.148,2.961,12.3,12.3,0,0,0,2.472,0,9.87,9.87,0,0,0,6.147-2.961.948.948,0,0,1,.768-.282,67.022,67.022,0,0,1,8.261,1.26.949.949,0,1,1-.411,1.853,64.532,64.532,0,0,0-7.586-1.182,11.738,11.738,0,0,1-6.987,3.2A14.159,14.159,0,0,1,91.593,2417.3Z" transform="translate(0.613 1.373)" fill="#fff"/>
  </g>
</svg>
