<svg xmlns="http://www.w3.org/2000/svg" width="57.979" height="45.016" viewBox="0 0 57.979 45.016">
  <g id="Group_11150" data-name="Group 11150" transform="translate(-39 -4153.604)">
    <g id="Group_11107" data-name="Group 11107" transform="translate(39 4153.604)">
      <g id="Group_10503" data-name="Group 10503" transform="translate(27.379 33.625)">
        <path id="Path_32576" data-name="Path 32576" d="M155.317,355.309h-1.1a1.06,1.06,0,1,1,0-2.121h1.1a1.06,1.06,0,1,1,0,2.121Z" transform="translate(-153.159 -353.188)" fill="#fff"/>
      </g>
      <path id="Path_32577" data-name="Path 32577" d="M153.93,288.323H104.737a4.4,4.4,0,0,0-4.393,4.393v29.432a4.4,4.4,0,0,0,4.393,4.393h18.648v4.677h-4.6a1.06,1.06,0,1,0,0,2.121h21.091a1.06,1.06,0,0,0,0-2.121h-4.6v-4.677H153.93a4.4,4.4,0,0,0,4.393-4.393V292.716A4.4,4.4,0,0,0,153.93,288.323Zm-49.193,2.121H153.93a2.275,2.275,0,0,1,2.273,2.273v26.844H102.464V292.716A2.275,2.275,0,0,1,104.737,290.444Zm28.421,40.774h-7.652v-4.677h7.652Zm20.771-6.8h-19.7l-.01,0-.01,0h-9.752l-.01,0-.01,0h-19.7a2.275,2.275,0,0,1-2.273-2.273v-.467H156.2v.467A2.275,2.275,0,0,1,153.93,324.421Z" transform="translate(-100.344 -288.323)" fill="#fff"/>
    </g>
    <path id="Path_32738" data-name="Path 32738" d="M598.368,175.48a2.306,2.306,0,0,1-1.635-.678l-4.626-4.626a2.313,2.313,0,0,1,3.271-3.271l2.991,2.991,10.2-10.926a2.313,2.313,0,1,1,3.272,3.271L600,174.8A2.306,2.306,0,0,1,598.368,175.48Z" transform="translate(-534.086 4003.834)" fill="#fff"/>
  </g>
</svg>
