<svg xmlns="http://www.w3.org/2000/svg" width="57.974" height="38.037" viewBox="0 0 57.974 38.037">
  <g id="Group_11165" data-name="Group 11165" transform="translate(432.922 -2383.968)">
    <g id="Group_11163" data-name="Group 11163" transform="translate(-419.88 2404.143)">
      <path id="Path_33742" data-name="Path 33742" d="M-398.668,2424.133l-4.1-4.1a7.891,7.891,0,0,1-2.368,2.367l4.1,4.1a1.673,1.673,0,0,0,2.368,0A1.673,1.673,0,0,0-398.668,2424.133Z" transform="translate(416.039 -2409.129)" fill="#fff"/>
      <path id="Path_33743" data-name="Path 33743" d="M-404.392,2414.078a6.7,6.7,0,0,0-6.7-6.7,6.7,6.7,0,0,0-6.7,6.7,6.7,6.7,0,0,0,6.7,6.7A6.7,6.7,0,0,0-404.392,2414.078Zm-6.7,5.023a5.029,5.029,0,0,1-5.023-5.023,5.03,5.03,0,0,1,5.023-5.024,5.03,5.03,0,0,1,5.024,5.024A5.029,5.029,0,0,1-411.09,2419.1Z" transform="translate(417.788 -2407.38)" fill="#fff"/>
      <path id="Path_33744" data-name="Path 33744" d="M-414.549,2414.526h1.116a2.8,2.8,0,0,1,2.79-2.791v-1.116A3.912,3.912,0,0,0-414.549,2414.526Z" transform="translate(417.34 -2407.828)" fill="#fff"/>
    </g>
    <g id="Group_11164" data-name="Group 11164" transform="translate(-432.922 2383.968)">
      <path id="Path_33745" data-name="Path 33745" d="M-414.74,2399.407v2.25h2.07Z" transform="translate(430.408 -2386.102)" fill="none"/>
      <path id="Path_33746" data-name="Path 33746" d="M-417.727,2402.874a.7.7,0,0,1-.7-.7v-4.035H-431.04a.266.266,0,0,0-.266.265v23.737a.267.267,0,0,0,.266.266h8.34v-6.857h-6.148a.522.522,0,0,1-.522-.522.522.522,0,0,1,.522-.522h6.148v-2.407h-6.148a.522.522,0,0,1-.522-.522.522.522,0,0,1,.522-.522h6.148v-2.348h-6.148a.522.522,0,0,1-.522-.522.522.522,0,0,1,.522-.522h6.148V2405.2h-6.148a.522.522,0,0,1-.522-.522.522.522,0,0,1,.522-.522h6.732a.946.946,0,0,1,.359-.073h7.663v-1.213Z" transform="translate(432.699 -2385.928)" fill="none"/>
      <path id="Path_33747" data-name="Path 33747" d="M-421.8,2405.125h-6.732a.522.522,0,0,0-.522.522.522.522,0,0,0,.522.522h6.148V2406A.946.946,0,0,1-421.8,2405.125Z" transform="translate(432.388 -2386.893)" fill="#fff"/>
      <path id="Path_33748" data-name="Path 33748" d="M-428.537,2409.2a.522.522,0,0,0-.522.522.522.522,0,0,0,.522.522h6.148V2409.2Z" transform="translate(432.388 -2387.456)" fill="#fff"/>
      <path id="Path_33749" data-name="Path 33749" d="M-431.263,2422.189a.267.267,0,0,1-.266-.266v-23.737a.266.266,0,0,1,.266-.265h12.615v4.035a.7.7,0,0,0,.7.7h3.634v1.213h1.393v-2.208l-4.722-5.13h-13.617a1.661,1.661,0,0,0-1.659,1.66v23.738a1.662,1.662,0,0,0,1.659,1.66h18.081v-1.395Zm14.01-23.18,2.07,2.25h-2.07Z" transform="translate(432.922 -2385.704)" fill="#fff"/>
      <path id="Path_33750" data-name="Path 33750" d="M-428.537,2417.138a.522.522,0,0,0-.522.522.522.522,0,0,0,.522.522h6.148v-1.044Z" transform="translate(432.388 -2388.553)" fill="#fff"/>
      <path id="Path_33751" data-name="Path 33751" d="M-428.537,2413.133a.522.522,0,0,0-.522.522.522.522,0,0,0,.522.522h6.148v-1.044Z" transform="translate(432.388 -2388)" fill="#fff"/>
      <path id="Path_33752" data-name="Path 33752" d="M-383.045,2411.2a3.644,3.644,0,0,0-3.81,1.641,3.653,3.653,0,0,0,.24,4.159,3.667,3.667,0,0,0,4.073,1.155,3.655,3.655,0,0,0,2.388-3.406A3.665,3.665,0,0,0-383.045,2411.2Zm1.545,3.494a2.183,2.183,0,0,1-1.767,2.062,2.188,2.188,0,0,1-2.259-1.033,2.185,2.185,0,0,1,.217-2.487,2.173,2.173,0,0,1,2.4-.632,2.2,2.2,0,0,1,1.407,1.951.429.429,0,0,1,.005.076A.493.493,0,0,1-381.5,2414.693Z" transform="translate(426.628 -2387.722)" fill="none"/>
      <path id="Path_33753" data-name="Path 33753" d="M-386.174,2402.776h-8.692v.078a.4.4,0,0,1-.3.388v2.078a.4.4,0,0,1,.3.388v1.391a.4.4,0,0,1-.3.387v.853c0,.383-.009.766,0,1.148a.6.6,0,0,0,.405.629,2.757,2.757,0,0,0,.679.019,2.577,2.577,0,0,0,.671-.045c.7-.189.884-.813,1.171-1.389a5.874,5.874,0,0,1,.855-1.269,5.633,5.633,0,0,1,3.442-1.792,2.551,2.551,0,0,0,1.122-.276,1.462,1.462,0,0,0,.622-.971,4.012,4.012,0,0,0,.02-.644Z" transform="translate(427.702 -2386.568)" fill="none"/>
      <path id="Path_33754" data-name="Path 33754" d="M-387.486,2395.385l-.481-1.316q-.367-1.009-.736-2.018a8.806,8.806,0,0,1-.268-.873.64.64,0,0,0-.252-.387.923.923,0,0,0-.343-.177c.009,0-.039,0-.053,0-.434-.005-.87,0-1.3,0h-2.35v5.646h4.437c.272,0,.545,0,.817,0,.288,0,.565,0,.644-.291.015-.053.017-.211.031-.2l-.018-.045C-387.405,2395.614-387.445,2395.5-387.486,2395.385Z" transform="translate(427.441 -2384.887)" fill="none"/>
      <path id="Path_33755" data-name="Path 33755" d="M-402.219,2399.208h.326a4.207,4.207,0,0,0,.022-.9v-11.927c0-.1,0-.192,0-.287a.9.9,0,0,0-.888-.893h-19.96c-2.06,0-4.13-.063-6.189,0a.935.935,0,0,0-.9,1.039v6.154h2.943a.059.059,0,0,1-.059-.059v-.419a.06.06,0,0,1,.059-.06H-404.7a.059.059,0,0,1,.059.06v.419a.059.059,0,0,1-.059.059h-7.7a.947.947,0,0,1,.944.944v1.62h6.754a.06.06,0,0,1,.059.06v.42a.059.059,0,0,1-.059.059h-6.754v3.714h9.236Zm-2.483-9.68h-22.163a.06.06,0,0,1-.059-.059v-.419a.06.06,0,0,1,.059-.06H-404.7a.06.06,0,0,1,.059.06v.419A.059.059,0,0,1-404.7,2389.528Z" transform="translate(432.492 -2384.134)" fill="none"/>
      <path id="Path_33756" data-name="Path 33756" d="M-385.037,2390.451l1.594,5.341.921-.042-1.019-3.128c-.28-.861-.55-1.726-.833-2.585l-.776.034Z" transform="translate(426.318 -2384.807)" fill="none"/>
      <path id="Path_33757" data-name="Path 33757" d="M-371.206,2404.965a.5.5,0,0,0-.994,0A.5.5,0,0,0-371.206,2404.965Z" transform="translate(424.527 -2386.804)" fill="none"/>
      <path id="Path_33758" data-name="Path 33758" d="M-398.913,2405.66v5.61h6.429a6.351,6.351,0,0,1,1.31-1.915,6.392,6.392,0,0,1,6.481-1.536,6.429,6.429,0,0,1,3.8,3.451h5.568v.023h.38c.014-.018.028-.035.043-.053a2.691,2.691,0,0,0,.446-.842h-.417v-1.171h.6c.013-.325.007-.655.007-.987,0-.9.044-1.821-.006-2.724a3.055,3.055,0,0,0-3.013-2.821h-.115l-.258,0a.9.9,0,0,1-.294.063c-1.3.067-2.63,0-3.936,0H-385.7c-.018,0-.036,0-.055,0h-1.907v.327a3.649,3.649,0,0,1-.3,2.045,1.753,1.753,0,0,1-.767.653,4.229,4.229,0,0,1-1.071.2,5.552,5.552,0,0,0-2.195.828,5.6,5.6,0,0,0-2.007,2.565,1.765,1.765,0,0,1-1.6,1.1,2.644,2.644,0,0,1-1.314-.123c-.463-.269-.449-.74-.449-1.2v-1.715a.4.4,0,0,1-.217-.356V2405.7a.4.4,0,0,1,.217-.357v-2.14a.4.4,0,0,1-.217-.357v-.078h-.791l-.029,0a2.035,2.035,0,0,1-1.446.631c-.222,0-.446,0-.669,0h-8v1.323h8.655A.947.947,0,0,1-398.913,2405.66Zm22.19-1.795a.861.861,0,0,1,.847.8.206.206,0,0,1,.005.053.2.2,0,0,1-.005.052.861.861,0,0,1-.884.8.86.86,0,0,1-.815-.851A.862.862,0,0,1-376.723,2403.865Z" transform="translate(429.547 -2386.557)" fill="none"/>
      <path id="Path_33759" data-name="Path 33759" d="M-387.709,2390.73c-.254-.773-.276-1.678-1.119-2.052a1.616,1.616,0,0,0-.67-.066h-4.129c-.57,0-1.505-.129-1.535.642-.013.346,0,.7,0,1.042v8.821a.4.4,0,0,1,.3.388v.178h8.692v-3.366a3.829,3.829,0,0,0-.08-1.212Q-386.981,2392.917-387.709,2390.73Zm.539,8.37h-1.455a.428.428,0,0,1-.427-.427.427.427,0,0,1,.427-.426h1.455a.427.427,0,0,1,.427.426A.428.428,0,0,1-387.17,2399.1Zm.333-2.64c-.512.714-1.487.591-2.261.591h-4.97a.54.54,0,0,1-.533-.532v-6.711a.54.54,0,0,1,.533-.532h3.2c.359,0,.727-.024,1.086,0a1.884,1.884,0,0,1,1.176.607,4.253,4.253,0,0,1,.664,1.608q.469,1.284.938,2.568C-386.71,2394.855-386.262,2395.659-386.837,2396.46Z" transform="translate(427.703 -2384.609)" fill="none"/>
      <path id="Path_33760" data-name="Path 33760" d="M-383.28,2413.611a1.375,1.375,0,0,0-1.363,1.363,1.375,1.375,0,0,0,1.363,1.363,1.379,1.379,0,0,0,1.364-1.363A1.379,1.379,0,0,0-383.28,2413.611Z" transform="translate(426.248 -2388.066)" fill="none"/>
      <path id="Path_33761" data-name="Path 33761" d="M-377.533,2398.938l-.769-.346-5.232-2.357a.49.49,0,0,1-.226-.139l-1.462.065a.362.362,0,0,1-.343-.26l-.24-.808-1.675-5.613a.359.359,0,0,1,.342-.449l1.013-.045c-.011-.032-.021-.064-.032-.095a1.9,1.9,0,0,0-1.1-1.25,4.2,4.2,0,0,0-1.466-.15h-7.405v12.038h.259v-.178a.4.4,0,0,1,.217-.356v-9.753c0-.067,0-.135,0-.2.034-.759.7-.93,1.347-.938.73-.01,1.46,0,2.189,0h2.725a1.435,1.435,0,0,1,.885.279c.717.509.748,1.319,1,2.1l.2.6.987,2.967a4.564,4.564,0,0,1,.362,1.414v4.069h9.037A3.665,3.665,0,0,0-377.533,2398.938Z" transform="translate(427.835 -2384.455)" fill="none"/>
      <path id="Path_33762" data-name="Path 33762" d="M-367.536,2408.651h1.272v-1.562h-1.256C-367.518,2407.61-367.53,2408.132-367.536,2408.651Z" transform="translate(423.883 -2387.164)" fill="none"/>
      <path id="Path_33763" data-name="Path 33763" d="M-382.341,2410.176a4.711,4.711,0,0,0-5.2,1.4,4.736,4.736,0,0,0-.43,5.411,4.742,4.742,0,0,0,4.942,2.189,4.733,4.733,0,0,0,3.767-4.594A4.751,4.751,0,0,0-382.341,2410.176Zm-.372,7.808a3.667,3.667,0,0,1-4.073-1.155,3.653,3.653,0,0,1-.24-4.159,3.644,3.644,0,0,1,3.81-1.641,3.665,3.665,0,0,1,2.89,3.548A3.655,3.655,0,0,1-382.713,2417.984Z" transform="translate(426.798 -2387.552)" fill="#fff"/>
      <path id="Path_33764" data-name="Path 33764" d="M-382.656,2412.82a2.173,2.173,0,0,0-2.4.632,2.185,2.185,0,0,0-.217,2.487,2.188,2.188,0,0,0,2.259,1.033,2.183,2.183,0,0,0,1.767-2.062.493.493,0,0,0,0-.063.429.429,0,0,0-.005-.076A2.2,2.2,0,0,0-382.656,2412.82Zm-.751,3.39a1.375,1.375,0,0,1-1.363-1.363,1.375,1.375,0,0,1,1.363-1.363,1.379,1.379,0,0,1,1.364,1.363A1.379,1.379,0,0,1-383.407,2416.209Z" transform="translate(426.375 -2387.938)" fill="#fff"/>
      <path id="Path_33765" data-name="Path 33765" d="M-371.8,2405.756a.861.861,0,0,0,.884-.8.2.2,0,0,0,.005-.052.206.206,0,0,0-.005-.053.861.861,0,0,0-.847-.8.862.862,0,0,0-.852.852A.86.86,0,0,0-371.8,2405.756Zm.534-.851a.5.5,0,0,1-.994,0A.5.5,0,0,1-371.262,2404.905Z" transform="translate(424.584 -2386.745)" fill="#fff"/>
      <path id="Path_33766" data-name="Path 33766" d="M-374.866,2403.538H-376.3c0-.2-.01-.407-.022-.609a4.141,4.141,0,0,0-4.078-3.886h-.066a1.37,1.37,0,0,0-.064-.133,4.473,4.473,0,0,0-1.154-1.274.4.4,0,0,0-.136-.1.413.413,0,0,0-.149-.067l-5.19-2.339-.6-.271c-.723-2.224-1.432-4.453-2.172-6.671a3.354,3.354,0,0,0-.939-1.538,3.46,3.46,0,0,0-2.31-.707c-1.312,0-2.626,0-3.939,0h-3.718a.463.463,0,0,0-.125-.014h-.01a1.991,1.991,0,0,0-1.883-1.953c-.022,0-.045,0-.068,0h-25.893a2.379,2.379,0,0,0-1.253.267,2.108,2.108,0,0,0-.969,1.944v6.047h1.065v-6.154a.935.935,0,0,1,.9-1.039c2.059-.063,4.13,0,6.189,0h19.96a.9.9,0,0,1,.888.893c0,.095,0,.191,0,.287v11.927a4.207,4.207,0,0,1-.022.9h-9.562v1.763h8c.222,0,.446,0,.669,0a2.035,2.035,0,0,0,1.446-.631l.029,0h.791v.078a.4.4,0,0,0,.217.357v2.14a.4.4,0,0,0-.217.357v1.391a.4.4,0,0,0,.217.356v1.715c0,.457-.014.928.449,1.2a2.644,2.644,0,0,0,1.314.123,1.765,1.765,0,0,0,1.6-1.1,5.6,5.6,0,0,1,2.007-2.565,5.552,5.552,0,0,1,2.195-.828,4.229,4.229,0,0,0,1.071-.2,1.753,1.753,0,0,0,.767-.653,3.649,3.649,0,0,0,.3-2.045v-.327h1.907c.019,0,.037,0,.055,0h3.811c1.306,0,2.632.067,3.936,0a.9.9,0,0,0,.294-.063l.258,0h.115a3.055,3.055,0,0,1,3.013,2.821c.05.9.006,1.819.006,2.724,0,.332.006.662-.007.987h-.6v1.171h.417a2.691,2.691,0,0,1-.446.842c-.015.018-.029.035-.043.053h-.38v-.023h-5.568a6.429,6.429,0,0,0-3.8-3.451,6.392,6.392,0,0,0-6.481,1.536,6.351,6.351,0,0,0-1.31,1.915h-6.429v3.645h6.965v-1.736a.349.349,0,0,0,.033-.1,5.353,5.353,0,0,1,3.559-4.249,5.326,5.326,0,0,1,5.432,1.312,5.386,5.386,0,0,1,1.454,2.9v1.877h3.336c0,.024.005.047.007.072h3.641s2.57-1.713,1.66-3.693h-.858a4.191,4.191,0,0,0,.346-.895h1.684v-1.171h-1.543c0-.234-.005-.469-.005-.7,0-.043,0-.086,0-.128h1.452a.163.163,0,0,0,.12-.047l.006-.006,0,0a.162.162,0,0,0,.048-.121v-1.917A.18.18,0,0,0-374.866,2403.538Zm-15.852-14.34c.284.859.553,1.724.833,2.585l1.019,3.128-.921.042q-.8-2.671-1.594-5.341l-.113-.379Zm-.436,12.594a1.462,1.462,0,0,1-.622.971,2.551,2.551,0,0,1-1.122.276,5.633,5.633,0,0,0-3.442,1.792,5.874,5.874,0,0,0-.855,1.269c-.287.576-.467,1.2-1.171,1.389a2.577,2.577,0,0,1-.671.045,2.757,2.757,0,0,1-.679-.019.6.6,0,0,1-.405-.629c-.009-.382,0-.765,0-1.148v-.853a.4.4,0,0,0,.3-.387v-1.391a.4.4,0,0,0-.3-.388v-2.078a.4.4,0,0,0,.3-.388v-.078h8.692v.972A4.012,4.012,0,0,1-391.154,2401.792Zm.02-6.116v3.366h-8.692v-.178a.4.4,0,0,0-.3-.388v-8.821c0-.346-.013-.7,0-1.042.029-.771.964-.642,1.535-.642h4.129a1.616,1.616,0,0,1,.67.066c.844.374.865,1.279,1.119,2.052q.726,2.187,1.454,4.375A3.829,3.829,0,0,1-391.134,2395.676Zm8.866,3.366h-8.511v-4.069a4.564,4.564,0,0,0-.362-1.414l-.987-2.967-.2-.6c-.257-.78-.288-1.591-1-2.1a1.435,1.435,0,0,0-.885-.279h-2.725c-.729,0-1.459-.01-2.189,0-.644.008-1.312.178-1.347.938,0,.066,0,.134,0,.2v9.753a.4.4,0,0,0-.217.356v.178h-.259V2387h7.405a4.2,4.2,0,0,1,1.466.15,1.9,1.9,0,0,1,1.1,1.25c.011.031.021.063.032.095l-1.013.045a.359.359,0,0,0-.342.449l1.675,5.613.24.808a.362.362,0,0,0,.343.26l1.462-.065a.49.49,0,0,0,.226.139l5.232,2.357.769.346a3.665,3.665,0,0,1,.618.59Zm7.225,6.413h-1.272c.006-.52.018-1.042.016-1.562h1.256Z" transform="translate(432.662 -2383.968)" fill="#fff"/>
      <path id="Path_33767" data-name="Path 33767" d="M-386.189,2399.795h-1.455a.427.427,0,0,0-.427.426.428.428,0,0,0,.427.427h1.455a.428.428,0,0,0,.427-.427A.427.427,0,0,0-386.189,2399.795Z" transform="translate(426.722 -2386.156)" fill="#fff"/>
      <path id="Path_33768" data-name="Path 33768" d="M-401.7,2397.005v-.42a.06.06,0,0,0-.059-.06h-6.754v.538h6.754A.059.059,0,0,0-401.7,2397.005Z" transform="translate(429.547 -2385.704)" fill="#fff"/>
      <path id="Path_33769" data-name="Path 33769" d="M-404.18,2393.406v-.419a.059.059,0,0,0-.059-.06H-426.4a.06.06,0,0,0-.059.06v.419a.059.059,0,0,0,.059.059h22.163A.059.059,0,0,0-404.18,2393.406Z" transform="translate(432.029 -2385.207)" fill="#fff"/>
      <rect id="Rectangle_265" data-name="Rectangle 265" width="22.282" height="0.538" rx="0.069" transform="translate(5.567 4.856)" fill="#fff"/>
      <path id="Path_33770" data-name="Path 33770" d="M-387.847,2391.6a4.25,4.25,0,0,0-.664-1.608,1.884,1.884,0,0,0-1.176-.607c-.358-.025-.726,0-1.086,0h-3.2a.54.54,0,0,0-.533.532v6.711a.54.54,0,0,0,.533.533h4.97c.774,0,1.749.123,2.261-.591.575-.8.127-1.6-.164-2.4Q-387.378,2392.881-387.847,2391.6Zm.3,4.2c-.078.287-.356.291-.644.291-.272,0-.545,0-.817,0h-4.437v-5.646h2.35c.434,0,.87,0,1.3,0,.015,0,.063,0,.053,0a.923.923,0,0,1,.343.177.639.639,0,0,1,.252.387,8.811,8.811,0,0,0,.268.873q.368,1.009.736,2.018l.481,1.315c.041.115.081.229.124.342l.018.045C-387.529,2395.589-387.531,2395.747-387.546,2395.8Z" transform="translate(427.612 -2384.715)" fill="#fff"/>
    </g>
  </g>
</svg>
