<svg xmlns="http://www.w3.org/2000/svg" width="57.758" height="57.05" viewBox="0 0 57.758 57.05">
  <g id="Group_10522" data-name="Group 10522" transform="translate(-519.339 -467.879)">
    <path id="Path_32600" data-name="Path 32600" d="M560.082,527.413h-2.133a1.333,1.333,0,1,1,0-2.666h2.133a1.333,1.333,0,0,1,0,2.666Z" transform="translate(-12.988 -19.814)" fill="#fff"/>
    <g id="Group_10521" data-name="Group 10521" transform="translate(519.339 467.879)">
      <g id="Group_10519" data-name="Group 10519" transform="translate(0)">
        <g id="Group_10517" data-name="Group 10517">
          <path id="Path_32601" data-name="Path 32601" d="M571.171,524.929H525.265A5.933,5.933,0,0,1,519.339,519V479.459a5.929,5.929,0,0,1,5.926-5.919h26.911L555,470.228a6.683,6.683,0,0,1,5.084-2.349h11.088a5.933,5.933,0,0,1,5.926,5.927V519A5.933,5.933,0,0,1,571.171,524.929Zm-45.906-48.722a3.26,3.26,0,0,0-3.26,3.253V519a3.264,3.264,0,0,0,3.26,3.26h45.906a3.264,3.264,0,0,0,3.26-3.26v-45.2a3.264,3.264,0,0,0-3.26-3.261H560.084a4.022,4.022,0,0,0-3.057,1.414l-3.221,3.779a1.334,1.334,0,0,1-1.014.469Z" transform="translate(-519.339 -467.879)" fill="#fff"/>
        </g>
        <path id="Path_32602" data-name="Path 32602" d="M575.736,493.75H548.848A2.254,2.254,0,0,0,546.6,496v24.491a2.254,2.254,0,0,0,2.251,2.25h26.888a2.254,2.254,0,0,0,2.251-2.25V496A2.254,2.254,0,0,0,575.736,493.75Zm-.414,2.666v10.5H549.263v-10.5Zm-26.059,23.662v-10.5h26.059v10.5Z" transform="translate(-528.836 -476.893)" fill="#fff"/>
        <g id="Group_10518" data-name="Group 10518" transform="translate(32.941 11.306)">
          <path id="Path_32603" data-name="Path 32603" d="M584.772,487.9H571.229a1.333,1.333,0,0,1,0-2.666h13.544a1.333,1.333,0,1,1,0,2.666Z" transform="translate(-569.896 -485.231)" fill="#fff"/>
        </g>
      </g>
      <g id="Group_10520" data-name="Group 10520" transform="translate(24.289 23.207)">
        <path id="Path_32604" data-name="Path 32604" d="M560.082,506.162h-2.133a1.333,1.333,0,1,1,0-2.666h2.133a1.333,1.333,0,0,1,0,2.666Z" transform="translate(-556.616 -503.496)" fill="#fff"/>
      </g>
    </g>
  </g>
</svg>
