<svg xmlns="http://www.w3.org/2000/svg" width="58.438" height="44.839" viewBox="0 0 58.438 44.839">
  <g id="Group_11153" data-name="Group 11153" transform="translate(-1209.998 -3566.711)">
    <path id="Path_33732" data-name="Path 33732" d="M332.172,116.145h-10.8l.344-.443-12.548-9.728a1.006,1.006,0,0,0-.616-.211h-5.562a1.006,1.006,0,0,0-.8,1.62l5.387,6.985,1.593-1.229-4.137-5.365H308.2l10.8,8.371H302.91l-10.1-8.926a1.006,1.006,0,0,0-.666-.252h-4.664a1.006,1.006,0,0,0-.885,1.484l4.162,7.694h-3.277a1.006,1.006,0,0,0-1.006,1.006v4.665a1.006,1.006,0,0,0,.644.938c.517.2,12.707,4.882,16.462,4.882h6.989L302.19,138.5a1.006,1.006,0,0,0,.8,1.62h5.562a1,1,0,0,0,.616-.211l15.828-12.278h13.883c2.435,0,6.038-1.408,6.038-4.43C344.914,119.906,338.126,116.145,332.172,116.145Zm6.7,9.479H324.648a1.006,1.006,0,0,0-.616.211L308.2,138.113h-3.171l8.386-10.874a1.007,1.007,0,0,0-.844-1.615h-8.992c-2.647,0-11.248-3.047-15.094-4.5v-2.966h3.959a1.006,1.006,0,0,0,.885-1.485l-4.162-7.694h2.6l10.1,8.926a1.006,1.006,0,0,0,.666.252h29.642c5.543,0,10.731,3.472,10.731,5.05C342.9,124.7,340.557,125.624,338.876,125.624Z" transform="translate(923.521 3471.426)" fill="#fff"/>
    <g id="Group_11121" data-name="Group 11121" transform="translate(1243.373 3566.711)">
      <path id="Path_32711" data-name="Path 32711" d="M383.276,643.754A3.28,3.28,0,0,1,380,640.478a3.211,3.211,0,0,1,.975-2.323,3.346,3.346,0,0,1,4.624.021,3.193,3.193,0,0,1,.953,2.3A3.28,3.28,0,0,1,383.276,643.754Zm0-4.368a1.049,1.049,0,0,0-.758.313,1.069,1.069,0,0,0-.335.779,1.092,1.092,0,0,0,2.184,0,1.048,1.048,0,0,0-.314-.757A1.067,1.067,0,0,0,383.276,639.386Z" transform="translate(-371.372 -624.097)" fill="#fff"/>
      <path id="Path_32712" data-name="Path 32712" d="M383.952,629.82a1.086,1.086,0,0,1-.775-.323,5.448,5.448,0,0,0-7.71,0,1.092,1.092,0,1,1-1.551-1.538,7.63,7.63,0,0,1,10.811,0,1.092,1.092,0,0,1-.776,1.861Z" transform="translate(-367.418 -616.978)" fill="#fff"/>
      <path id="Path_32713" data-name="Path 32713" d="M382.047,619.669a1.087,1.087,0,0,1-.772-.32,9.825,9.825,0,0,0-13.9,0,1.092,1.092,0,0,1-1.545-1.544,12.008,12.008,0,0,1,16.986,0,1.092,1.092,0,0,1-.772,1.864Z" transform="translate(-362.422 -609.918)" fill="#fff"/>
      <path id="Path_32714" data-name="Path 32714" d="M380.142,609.518a1.091,1.091,0,0,1-.771-.318,14.2,14.2,0,0,0-20.081,0,1.093,1.093,0,1,1-1.542-1.548,16.387,16.387,0,0,1,23.165,0,1.092,1.092,0,0,1-.771,1.866Z" transform="translate(-357.427 -602.857)" fill="#fff"/>
    </g>
  </g>
</svg>
