<svg xmlns="http://www.w3.org/2000/svg" width="49.013" height="42.187" viewBox="0 0 49.013 42.187">
  <g id="Group_11108" data-name="Group 11108" transform="translate(-237.328 -661.766)">
    <g id="Group_10832" data-name="Group 10832" transform="translate(250.023 688.142)">
      <path id="Path_33421" data-name="Path 33421" d="M243.083,704.724a.511.511,0,0,1-.51-.51v-7.732a.511.511,0,1,1,1.021,0v7.732A.51.51,0,0,1,243.083,704.724Z" transform="translate(-242.573 -695.969)" fill="none" stroke="#fff" stroke-width="2"/>
    </g>
    <g id="Group_10833" data-name="Group 10833" transform="translate(254.25 690.995)">
      <path id="Path_33422" data-name="Path 33422" d="M250.627,706.1a.511.511,0,0,1-.511-.51v-4.882a.511.511,0,0,1,1.022,0v4.882A.511.511,0,0,1,250.627,706.1Z" transform="translate(-250.116 -700.196)" fill="none" stroke="#fff" stroke-width="2"/>
    </g>
    <g id="Group_10834" data-name="Group 10834" transform="translate(258.479 692.925)">
      <path id="Path_33423" data-name="Path 33423" d="M258.17,707.028a.51.51,0,0,1-.51-.51v-2.951a.511.511,0,1,1,1.021,0v2.951A.511.511,0,0,1,258.17,707.028Z" transform="translate(-257.66 -703.056)" fill="none" stroke="#fff" stroke-width="2"/>
    </g>
    <g id="Group_10835" data-name="Group 10835" transform="translate(259.065 674.552)">
      <path id="Path_33424" data-name="Path 33424" d="M273.637,685.652H258.979a.511.511,0,1,1,0-1.022h14.659a.511.511,0,0,1,0,1.022Z" transform="translate(-258.467 -684.63)" fill="none" stroke="#fff" stroke-width="2"/>
    </g>
    <g id="Group_10836" data-name="Group 10836" transform="translate(259.871 678.828)">
      <path id="Path_33425" data-name="Path 33425" d="M266,691.986h-7.021a.511.511,0,1,1,0-1.021H266a.511.511,0,1,1,0,1.021Z" transform="translate(-258.467 -690.965)" fill="none" stroke="#fff" stroke-width="2"/>
    </g>
    <g id="Group_10837" data-name="Group 10837" transform="translate(243.316 667.547)">
      <path id="Path_33426" data-name="Path 33426" d="M269.7,705.257H233.478a.468.468,0,0,1-.408-.511V670.361a.468.468,0,0,1,.408-.51H269.7a.468.468,0,0,1,.408.51v34.385A.468.468,0,0,1,269.7,705.257Zm-35.814-1.022h35.406V670.872H233.885Z" transform="translate(-233.07 -669.851)" fill="none" stroke="#fff" stroke-width="2"/>
    </g>
    <g id="Group_10838" data-name="Group 10838" transform="translate(238.328 662.766)">
      <path id="Path_33427" data-name="Path 33427" d="M272.267,668.568H226.1a.474.474,0,0,1-.425-.512v-4.781a.474.474,0,0,1,.425-.51h46.163a.474.474,0,0,1,.425.51v4.781A.474.474,0,0,1,272.267,668.568Zm-45.736-1.021h45.31v-3.76h-45.31Z" transform="translate(-225.679 -662.766)" fill="none" stroke="#fff" stroke-width="2"/>
    </g>
    <g id="Group_10839" data-name="Group 10839" transform="translate(238.939 701.932)">
      <path id="Path_33428" data-name="Path 33428" d="M271.953,721.823H227.01a.52.52,0,0,1,0-1.022h44.944a.52.52,0,0,1,0,1.022Z" transform="translate(-226.585 -720.801)" fill="none" stroke="#fff" stroke-width="2"/>
    </g>
  </g>
</svg>
