<svg xmlns="http://www.w3.org/2000/svg" width="61.175" height="52.699" viewBox="0 0 61.175 52.699">
  <g id="Group_11143" data-name="Group 11143" transform="translate(-1108.984 -229.59)">
    <path id="Path_33703" data-name="Path 33703" d="M1157.569,229.59a12.057,12.057,0,0,0-12.044,12.044,11.908,11.908,0,0,0,1.25,5.341l9.582,18.718a1.348,1.348,0,0,0,1.213.747,1.373,1.373,0,0,0,1.214-.738l9.381-18.341.219-.417a12.053,12.053,0,0,0-10.816-17.354Zm8.866,16.361-8.863,17.312-8.658-16.926-.191-.36a9.7,9.7,0,0,1-1.01-4.343,9.856,9.856,0,1,1,18.722,4.318Z" transform="translate(-17.998)" fill="#fff"/>
    <path id="Path_33704" data-name="Path 33704" d="M1162.234,239.048a7.24,7.24,0,1,0,7.236,7.244A7.248,7.248,0,0,0,1162.234,239.048Zm0,12.292a5.052,5.052,0,1,1,5.048-5.048A5.054,5.054,0,0,1,1162.234,251.34Z" transform="translate(-22.663 -4.658)" fill="#fff"/>
    <path id="Path_33705" data-name="Path 33705" d="M1149.147,302.693c.006,0,.012,0,.019,0h19.9a1.095,1.095,0,0,0,.937-1.661l-17.873-29.486a1.1,1.1,0,0,0-.936-.527h-1.475a1.094,1.094,0,0,0,0,2.189h.859l6.578,10.853a11.192,11.192,0,0,1-1.566,1.343,6.857,6.857,0,0,0-5.923-2.966h0a13.048,13.048,0,0,0-5.124.732l-.447.145a1.094,1.094,0,0,0,.668,2.084l.459-.149a11.1,11.1,0,0,1,4.444-.623h0a4.721,4.721,0,0,1,4.17,2.09c-.093.075-.189.146-.281.223a6.179,6.179,0,0,0-2.526,5.056,2.013,2.013,0,0,0,.94,1.529,2.024,2.024,0,0,1,.8,2.476,5.856,5.856,0,0,1-.671,1.18,25.252,25.252,0,0,1-3.347,3.323h-36.728l4.877-8.043c.7-.383,1.3-.744,1.885-1.094.661-.4,1.285-.773,2.055-1.186,2.338-1.254,4.444-2.267,6.548-2a11.443,11.443,0,0,1,3.73,1.474c.284.151.568.3.853.448,1.7.871,3.662,1.634,5.28.692a5.79,5.79,0,0,0,1.507-1.161,1.094,1.094,0,0,0-1.635-1.456,3.754,3.754,0,0,1-.975.726c-.8.467-2.592-.448-3.181-.75-.274-.141-.548-.286-.823-.432a13.226,13.226,0,0,0-4.471-1.711c-2.983-.392-5.8,1.129-7.868,2.237-.184.1-.359.2-.53.291l9.3-15.337h.906a1.094,1.094,0,0,0,0-2.189h-1.522a1.093,1.093,0,0,0-.935.527l-17.879,29.486a1.094,1.094,0,0,0,.935,1.661h39.038C1149.127,302.691,1149.137,302.693,1149.147,302.693Zm4.72-4.228a8.035,8.035,0,0,0,.92-1.622,4.217,4.217,0,0,0-1.585-5.128,4.241,4.241,0,0,1,1.768-3.11c.438-.371.909-.712,1.408-1.072a19.393,19.393,0,0,0,1.944-1.549l8.8,14.518h-15.116A17.266,17.266,0,0,0,1153.867,298.466Z" transform="translate(0 -20.404)" fill="#fff"/>
  </g>
</svg>
