<svg xmlns="http://www.w3.org/2000/svg" width="38.02" height="57" viewBox="0 0 38.02 57">
  <g id="Group_11201" data-name="Group 11201" transform="translate(-1515.757 -3974)">
    <g id="Group_11180" data-name="Group 11180" transform="translate(-17 373)">
      <g id="Group_10502" data-name="Group 10502" transform="translate(1532.757 3601)">
        <path id="Path_32573" data-name="Path 32573" d="M1144.067,71.791h-18.087a9.978,9.978,0,0,0-9.967,9.966v37.068a9.978,9.978,0,0,0,9.967,9.967h18.087a9.977,9.977,0,0,0,9.966-9.967V81.757A9.977,9.977,0,0,0,1144.067,71.791Zm-18.087,2.26h18.087a7.715,7.715,0,0,1,7.706,7.706v35.937h-33.5V81.757A7.715,7.715,0,0,1,1125.979,74.051Zm18.087,52.48h-18.087a7.712,7.712,0,0,1-7.614-6.576h33.314A7.711,7.711,0,0,1,1144.067,126.531Z" transform="translate(-1116.013 -71.791)" fill="#fff"/>
        <g id="Group_10500" data-name="Group 10500" transform="translate(13.813 4.578)">
          <path id="Path_32574" data-name="Path 32574" d="M1150.277,82.336h-8.134a1.13,1.13,0,0,1,0-2.26h8.134a1.13,1.13,0,0,1,0,2.26Z" transform="translate(-1141.013 -80.076)" fill="#fff"/>
        </g>
        <g id="Group_10501" data-name="Group 10501" transform="translate(16.631 50.12)">
          <path id="Path_32575" data-name="Path 32575" d="M1149.74,164.761h-2.5a1.13,1.13,0,1,1,0-2.26h2.5a1.13,1.13,0,1,1,0,2.26Z" transform="translate(-1146.113 -162.501)" fill="#fff"/>
        </g>
      </g>
    </g>
    <path id="Path_33781" data-name="Path 33781" d="M171.538,164.018a.829.829,0,0,1-.588-.244l-4.992-4.992a.832.832,0,0,1,.589-1.42h1.664V146.546a.832.832,0,0,1,.832-.832h4.992a.832.832,0,0,1,.832.832v10.816h1.664a.832.832,0,0,1,.588,1.42l-4.992,4.992A.829.829,0,0,1,171.538,164.018Zm-2.983-4.992,2.983,2.983,2.984-2.983h-.487a.832.832,0,0,1-.832-.832V147.378h-3.328v10.816a.832.832,0,0,1-.832.832Z" transform="translate(1369 3847.277)" fill="#fff"/>
    <path id="Path_33782" data-name="Path 33782" d="M134.034,164.018h-4.992a.832.832,0,0,1-.832-.832V152.37h-1.664a.832.832,0,0,1-.589-1.42l4.992-4.992a.832.832,0,0,1,1.176,0l4.992,4.992a.832.832,0,0,1-.588,1.42h-1.664v10.816A.832.832,0,0,1,134.034,164.018Zm-4.16-1.664H133.2V151.538a.832.832,0,0,1,.832-.832h.487l-2.984-2.983-2.983,2.983h.487a.832.832,0,0,1,.832.832Z" transform="translate(1397.352 3847.277)" fill="#fff"/>
  </g>
</svg>
