<svg xmlns="http://www.w3.org/2000/svg" width="69.43" height="56.5" viewBox="0 0 69.43 56.5">
  <g id="Group_11152" data-name="Group 11152" transform="translate(-1666.858 -3478.5)">
    <g id="Group_11151" data-name="Group 11151" transform="translate(1687.471 3492.045)">
      <path id="Path_32573" data-name="Path 32573" d="M1137.154,71.791h-13.63a7.519,7.519,0,0,0-7.511,7.51v27.934a7.519,7.519,0,0,0,7.511,7.511h13.63a7.519,7.519,0,0,0,7.51-7.511V79.3A7.519,7.519,0,0,0,1137.154,71.791Zm-13.63,1.7h13.63a5.814,5.814,0,0,1,5.807,5.807v27.082h-25.245V79.3A5.814,5.814,0,0,1,1123.524,73.494Zm13.63,39.548h-13.63a5.812,5.812,0,0,1-5.738-4.956h25.105A5.811,5.811,0,0,1,1137.154,113.042Z" transform="translate(-1116.013 -71.791)" fill="#fff"/>
      <g id="Group_10500" data-name="Group 10500" transform="translate(10.41 3.45)">
        <path id="Path_32574" data-name="Path 32574" d="M1147.994,81.779h-6.13a.852.852,0,0,1,0-1.7h6.13a.852.852,0,0,1,0,1.7Z" transform="translate(-1141.013 -80.076)" fill="#fff"/>
      </g>
      <g id="Group_10501" data-name="Group 10501" transform="translate(12.533 37.77)">
        <path id="Path_32575" data-name="Path 32575" d="M1148.847,164.2h-1.882a.852.852,0,1,1,0-1.7h1.882a.852.852,0,1,1,0,1.7Z" transform="translate(-1146.113 -162.501)" fill="#fff"/>
      </g>
    </g>
    <g id="_3" data-name="3" transform="translate(1666.858 3478.5)">
      <g id="Group_10563" data-name="Group 10563" transform="translate(0 0)">
        <path id="Path_32736" data-name="Path 32736" d="M602.179,140.43h-4.355a1.447,1.447,0,1,1,0-2.893h4.355a7.137,7.137,0,0,0,7.167-6.23,9.845,9.845,0,0,0,.05-1,10.137,10.137,0,0,0-10.125-10.125c-.107,0-.212.008-.316.015l-.216.014a1.409,1.409,0,0,1-1.468-1.054,14.45,14.45,0,0,0-26.536-3.131,1.448,1.448,0,0,1-1.962.56,5.781,5.781,0,0,0-8.2,3.125,1.442,1.442,0,0,1-1.78.9,10.115,10.115,0,0,0-12.83,7.6,10.561,10.561,0,0,0-.145,3.258,7.133,7.133,0,0,0,7.143,6.072h4.364a1.447,1.447,0,0,1,0,2.893h-4.364a9.934,9.934,0,0,1-10.016-8.636,13.414,13.414,0,0,1,.182-4.153,13.007,13.007,0,0,1,15.256-10.11A8.674,8.674,0,0,1,566,112.947a8.356,8.356,0,0,1,2.906.523,17.341,17.341,0,0,1,30.807,3.824A13.033,13.033,0,0,1,612.289,130.3a12.9,12.9,0,0,1-.064,1.289A10.054,10.054,0,0,1,602.179,140.43Z" transform="translate(-542.858 -105.714)" fill="#fff"/>
      </g>
    </g>
    <path id="Path_32743" data-name="Path 32743" d="M134.388,164.8h-5.2a.867.867,0,0,1-.867-.867V152.653h-1.735a.867.867,0,0,1-.614-1.48l5.2-5.2a.867.867,0,0,1,1.226,0l5.2,5.2a.867.867,0,0,1-.613,1.48h-1.735v11.275A.867.867,0,0,1,134.388,164.8Zm-4.337-1.735h3.469V151.785a.867.867,0,0,1,.867-.867h.508l-3.11-3.11-3.11,3.11h.508a.867.867,0,0,1,.867.867Z" transform="translate(1569.963 3357.017)" fill="#fff"/>
  </g>
</svg>
