<svg xmlns="http://www.w3.org/2000/svg" width="58.438" height="40.396" viewBox="0 0 58.438 40.396">
  <g id="Group_11154" data-name="Group 11154" transform="translate(-1209.998 -3482.219)">
    <path id="Path_33683" data-name="Path 33683" d="M332.172,116.145h-10.8l.344-.443-12.548-9.728a1.006,1.006,0,0,0-.616-.211h-5.562a1.006,1.006,0,0,0-.8,1.62l5.387,6.985,1.593-1.229-4.137-5.365H308.2l10.8,8.371H302.91l-10.1-8.926a1.006,1.006,0,0,0-.666-.252h-4.664a1.006,1.006,0,0,0-.885,1.484l4.162,7.694h-3.277a1.006,1.006,0,0,0-1.006,1.006v4.665a1.006,1.006,0,0,0,.644.938c.517.2,12.707,4.882,16.462,4.882h6.989L302.19,138.5a1.006,1.006,0,0,0,.8,1.62h5.562a1,1,0,0,0,.616-.211l15.828-12.278h13.883c2.435,0,6.038-1.408,6.038-4.43C344.914,119.906,338.126,116.145,332.172,116.145Zm6.7,9.479H324.648a1.006,1.006,0,0,0-.616.211L308.2,138.113h-3.171l8.386-10.874a1.007,1.007,0,0,0-.844-1.615h-8.992c-2.647,0-11.248-3.047-15.094-4.5v-2.966h3.959a1.006,1.006,0,0,0,.885-1.485l-4.162-7.694h2.6l10.1,8.926a1.006,1.006,0,0,0,.666.252h29.642c5.543,0,10.731,3.472,10.731,5.05C342.9,124.7,340.557,125.624,338.876,125.624Z" transform="translate(923.521 3382.49)" fill="#fff"/>
    <g id="Group_11120" data-name="Group 11120" transform="translate(1245.033 3482.219)">
      <path id="Path_32650" data-name="Path 32650" d="M791.58,876.639a2.668,2.668,0,1,0,2.668,2.668A2.671,2.671,0,0,0,791.58,876.639Zm0,4.328a1.66,1.66,0,1,1,1.66-1.66A1.662,1.662,0,0,1,791.58,880.967Z" transform="translate(-783.99 -871.722)" fill="#fff"/>
      <path id="Path_32651" data-name="Path 32651" d="M782.826,862.1H782q-.034-.085-.07-.169l.581-.581a1.282,1.282,0,0,0,0-1.814l-1.255-1.255a1.314,1.314,0,0,0-1.814,0l-.586.585q-.082-.035-.167-.069v-.829a1.284,1.284,0,0,0-1.283-1.283h-1.774a1.284,1.284,0,0,0-1.283,1.283v.834c-.054.021-.108.044-.162.068l-.59-.59a1.314,1.314,0,0,0-1.814,0l-1.255,1.255a1.282,1.282,0,0,0,0,1.814l.592.592c-.023.053-.045.105-.066.158h-.837a1.284,1.284,0,0,0-1.283,1.282v1.776a1.284,1.284,0,0,0,1.283,1.283h.836c.021.053.043.106.066.16l-.592.592a1.282,1.282,0,0,0,0,1.814l1.255,1.255a1.282,1.282,0,0,0,1.814,0l.59-.59c.054.023.108.046.162.068v.832a1.284,1.284,0,0,0,1.283,1.283h1.774a1.284,1.284,0,0,0,1.283-1.283v-.827c.056-.022.112-.045.167-.069l.585.585a1.282,1.282,0,0,0,1.814,0l1.255-1.255a1.282,1.282,0,0,0,0-1.814l-.582-.582c.025-.057.049-.113.071-.17h.823a1.284,1.284,0,0,0,1.283-1.283v-1.776A1.284,1.284,0,0,0,782.826,862.1Zm.274,3.059a.274.274,0,0,1-.274.274H781.65l-.019,0a.507.507,0,0,0-.065.006l-.034.007a.461.461,0,0,0-.06.019l-.033.013a.526.526,0,0,0-.054.029l-.03.02a.527.527,0,0,0-.046.038c-.009.009-.019.017-.027.027a.473.473,0,0,0-.036.043l-.025.037c-.008.014-.016.028-.023.043a.475.475,0,0,0-.021.049c0,.007-.007.014-.009.021a4.484,4.484,0,0,1-.29.7c-.005.01-.008.02-.012.03l-.009.024a.5.5,0,0,0-.033.166c0,.007,0,.015,0,.022a.5.5,0,0,0,.032.166c0,.008.006.015.01.022a.5.5,0,0,0,.1.146s0,.007.006.01l.83.831a.274.274,0,0,1,0,.388l-1.255,1.255a.28.28,0,0,1-.388,0l-.835-.834s-.006,0-.009-.006a.5.5,0,0,0-.147-.1l-.021-.009a.507.507,0,0,0-.167-.033h-.022a.5.5,0,0,0-.165.032l-.025.01c-.01,0-.021.007-.031.013a4.629,4.629,0,0,1-.7.291l-.02.009a.483.483,0,0,0-.048.021c-.015.007-.029.015-.043.024a.463.463,0,0,0-.038.027.473.473,0,0,0-.04.033c-.011.01-.021.021-.031.032a.466.466,0,0,0-.033.04c-.009.013-.017.026-.025.039s-.016.028-.024.043-.012.029-.018.044-.011.032-.015.048-.006.03-.008.045a.5.5,0,0,0-.005.055c0,.007,0,.013,0,.02v1.178a.275.275,0,0,1-.274.274h-1.774a.275.275,0,0,1-.274-.274v-1.184c0-.007,0-.014,0-.021a.5.5,0,0,0-.005-.055c0-.015-.005-.03-.009-.045a.44.44,0,0,0-.015-.047c-.005-.015-.011-.03-.018-.045s-.015-.029-.023-.043-.016-.027-.026-.04-.021-.027-.033-.039-.02-.022-.031-.032-.026-.022-.04-.033l-.038-.026c-.014-.009-.029-.016-.044-.024s-.031-.014-.047-.02l-.021-.009a4.473,4.473,0,0,1-.7-.289l-.03-.012-.024-.009a.5.5,0,0,0-.165-.032h-.023a.511.511,0,0,0-.166.033l-.021.009a.5.5,0,0,0-.148.1l-.009.006-.839.839a.28.28,0,0,1-.388,0l-1.255-1.255a.273.273,0,0,1,0-.387l.84-.841s0-.006.006-.009a.507.507,0,0,0,.1-.147l.009-.021a.5.5,0,0,0,.033-.167c0-.008,0-.015,0-.022a.5.5,0,0,0-.032-.165c0-.009-.006-.017-.01-.026s-.007-.02-.012-.029a4.575,4.575,0,0,1-.287-.7c0-.007-.006-.014-.009-.021s-.013-.032-.021-.048a.458.458,0,0,0-.023-.042.471.471,0,0,0-.027-.039.465.465,0,0,0-.033-.04.417.417,0,0,0-.032-.031.507.507,0,0,0-.04-.034l-.037-.024c-.015-.009-.03-.018-.046-.025l-.04-.016a.507.507,0,0,0-.052-.016l-.041-.008a.513.513,0,0,0-.059-.006l-.019,0h-1.188a.274.274,0,0,1-.274-.274v-1.776a.275.275,0,0,1,.274-.274h1.188a.492.492,0,0,0,.141-.022l.027-.008a.5.5,0,0,0,.122-.062l.015-.012a.518.518,0,0,0,.09-.089c.005-.006.011-.012.015-.019a.489.489,0,0,0,.064-.125s.005-.008.007-.013a4.587,4.587,0,0,1,.287-.694c.005-.01.007-.02.012-.03l.009-.024a.493.493,0,0,0,.033-.167c0-.007,0-.014,0-.021a.505.505,0,0,0-.033-.168l-.009-.021a.5.5,0,0,0-.1-.147s0-.006-.006-.009l-.84-.841a.273.273,0,0,1,0-.388L772.5,859a.28.28,0,0,1,.388,0l.838.839s.01.005.015.01a.5.5,0,0,0,.131.087c.015.007.028.013.043.018a.5.5,0,0,0,.167.033h0a.5.5,0,0,0,.168-.033l.033-.012c.009,0,.019-.006.028-.01a4.466,4.466,0,0,1,.7-.289l.022-.009.047-.02.044-.024c.013-.008.026-.017.038-.026s.027-.021.04-.033.021-.021.031-.033.022-.025.033-.039.017-.026.025-.039a.487.487,0,0,0,.023-.043.477.477,0,0,0,.018-.045.437.437,0,0,0,.015-.048c0-.015.006-.03.009-.045a.5.5,0,0,0,.005-.055c0-.007,0-.014,0-.021v-1.186a.275.275,0,0,1,.274-.275h1.774a.275.275,0,0,1,.274.275v1.18c0,.007,0,.013,0,.02a.5.5,0,0,0,.005.055c0,.015,0,.03.008.045s.009.032.015.048.011.03.018.044.015.029.024.043a.434.434,0,0,0,.025.039.5.5,0,0,0,.033.04c.01.011.02.022.031.032a.463.463,0,0,0,.04.033l.038.027c.014.009.029.016.043.023l.048.021.02.009a4.61,4.61,0,0,1,.7.291c.009,0,.02.006.029.011l.035.013a.5.5,0,0,0,.168.033h0a.5.5,0,0,0,.167-.033c.015-.005.028-.012.043-.018a.506.506,0,0,0,.131-.087s.01-.005.014-.009l.835-.834a.28.28,0,0,1,.388,0l1.255,1.255a.274.274,0,0,1,0,.388l-.83.83s0,.006-.006.009a.5.5,0,0,0-.1.147c0,.007-.006.014-.009.021a.508.508,0,0,0-.033.167c0,.007,0,.014,0,.022a.5.5,0,0,0,.033.166l.009.024c0,.011.007.021.012.032a4.532,4.532,0,0,1,.291.7s0,.008.007.013a.5.5,0,0,0,.064.125l.015.018a.512.512,0,0,0,.091.089l.014.012a.506.506,0,0,0,.122.062l.027.008a.5.5,0,0,0,.14.022h1.176a.275.275,0,0,1,.274.274Z" transform="translate(-768.94 -856.69)" fill="#fff"/>
    </g>
  </g>
</svg>
