<svg xmlns="http://www.w3.org/2000/svg" width="53.856" height="55.48" viewBox="0 0 53.856 55.48">
  <g id="Group_10497" data-name="Group 10497" transform="translate(653.04 -813.966)">
    <path id="Path_32530" data-name="Path 32530" d="M-537.213,952.755A8.8,8.8,0,0,1-546,943.968a8.8,8.8,0,0,1,8.787-8.787,8.8,8.8,0,0,1,8.787,8.787A8.8,8.8,0,0,1-537.213,952.755Zm0-15.873a7.094,7.094,0,0,0-7.086,7.086,7.094,7.094,0,0,0,7.086,7.086,7.094,7.094,0,0,0,7.086-7.086A7.094,7.094,0,0,0-537.213,936.882Z" transform="translate(-88.899 -101.45)" fill="#fff"/>
    <path id="Path_32531" data-name="Path 32531" d="M-524.854,1109.8H-538.46a.851.851,0,0,1-.85-.85v-2.7c0-2.107,2.045-3.822,4.56-3.822h6.117c2.229,0,4.629,1.206,4.629,3.853v2.666A.851.851,0,0,1-524.854,1109.8Zm-12.755-1.7h11.9v-1.816c0-2.128-2.809-2.152-2.929-2.152h-6.117c-1.577,0-2.859.952-2.859,2.122Z" transform="translate(-94.455 -240.355)" fill="#fff"/>
    <path id="Path_32533" data-name="Path 32533" d="M-524.854,867.229H-538.46a.851.851,0,0,1-.85-.85v-2.7c0-2.107,2.045-3.822,4.56-3.822h6.117c2.229,0,4.629,1.206,4.629,3.853v2.666A.851.851,0,0,1-524.854,867.229Zm-12.755-1.7h11.9v-1.816c0-2.128-2.809-2.153-2.929-2.153h-6.117c-1.577,0-2.859.952-2.859,2.122Z" transform="translate(-94.455 -38.893)" fill="#fff"/>
    <path id="Path_32535" data-name="Path 32535" d="M-638.584,909.1H-652.19a.851.851,0,0,1-.85-.85v-2.7c0-2.107,2.045-3.822,4.56-3.822h6.116c2.23,0,4.63,1.206,4.63,3.853v2.666A.851.851,0,0,1-638.584,909.1Zm-12.755-1.7h11.9v-1.816c0-2.128-2.81-2.152-2.93-2.152h-6.116c-1.577,0-2.859.952-2.859,2.121Z" transform="translate(0 -73.669)" fill="#fff"/>
    <path id="Path_32536" data-name="Path 32536" d="M-628.97,862.9a4,4,0,0,1-4-4,4,4,0,0,1,4-4,4,4,0,0,1,4,4A4,4,0,0,1-628.97,862.9Zm0-6.588a2.5,2.5,0,0,0-2.4,2.588,2.5,2.5,0,0,0,2.4,2.588,2.5,2.5,0,0,0,2.4-2.588A2.5,2.5,0,0,0-628.97,856.313Z" transform="translate(-16.669 -33.935)" fill="#fff"/>
    <path id="Path_33811" data-name="Path 33811" d="M-628.97,854.9a4,4,0,0,0-4,4,4,4,0,0,0,4,4,4,4,0,0,0,4-4A4,4,0,0,0-628.97,854.9Zm0,6.588a2.5,2.5,0,0,1-2.4-2.588,2.5,2.5,0,0,1,2.4-2.588,2.5,2.5,0,0,1,2.4,2.588A2.5,2.5,0,0,1-628.97,861.489Z" transform="translate(-16.669 -5.935)" fill="#fff"/>
    <path id="Path_33809" data-name="Path 33809" d="M-628.97,862.9a4,4,0,0,1-4-4,4,4,0,0,1,4-4,4,4,0,0,1,4,4A4,4,0,0,1-628.97,862.9Zm0-6.588a2.5,2.5,0,0,0-2.4,2.588,2.5,2.5,0,0,0,2.4,2.588,2.5,2.5,0,0,0,2.4-2.588A2.5,2.5,0,0,0-628.97,856.313Z" transform="translate(2.97 -40.935)" fill="#fff"/>
    <path id="Path_33810" data-name="Path 33810" d="M-628.97,854.9a4,4,0,0,0-4,4,4,4,0,0,0,4,4,4,4,0,0,0,4-4A4,4,0,0,0-628.97,854.9Zm0,6.588a2.5,2.5,0,0,1-2.4-2.588,2.5,2.5,0,0,1,2.4-2.588,2.5,2.5,0,0,1,2.4,2.588A2.5,2.5,0,0,1-628.97,861.489Z" transform="translate(2.97 0.065)" fill="#fff"/>
    <path id="Path_32537" data-name="Path 32537" d="M-411.124,909.1H-424.73a.851.851,0,0,1-.85-.85v-2.7c0-2.107,2.045-3.822,4.558-3.822h6.119c2.229,0,4.629,1.206,4.629,3.853v2.666A.851.851,0,0,1-411.124,909.1Zm-12.755-1.7h11.9v-1.816c0-2.128-2.809-2.152-2.929-2.152h-6.119c-1.575,0-2.858.952-2.858,2.121Z" transform="translate(-188.911 -73.669)" fill="#fff"/>
    <path id="Path_32539" data-name="Path 32539" d="M-638.584,1076.351H-652.19a.851.851,0,0,1-.85-.85v-2.7c0-2.107,2.045-3.822,4.56-3.822h6.116c2.23,0,4.63,1.206,4.63,3.853v2.667A.851.851,0,0,1-638.584,1076.351Zm-12.755-1.7h11.9v-1.816c0-2.128-2.81-2.152-2.93-2.152h-6.116c-1.577,0-2.859.952-2.859,2.122Z" transform="translate(0 -212.574)" fill="#fff"/>
    <path id="Path_32541" data-name="Path 32541" d="M-411.124,1076.351H-424.73a.851.851,0,0,1-.85-.85v-2.7c0-2.107,2.045-3.822,4.558-3.822h6.119c2.229,0,4.629,1.206,4.629,3.853v2.667A.851.851,0,0,1-411.124,1076.351Zm-12.755-1.7h11.9v-1.816c0-2.128-2.809-2.152-2.929-2.152h-6.119c-1.575,0-2.858.952-2.858,2.122Z" transform="translate(-188.911 -212.574)" fill="#fff"/>
    <g id="Group_10496" data-name="Group 10496" transform="translate(-650.772 818.007)">
      <path id="Path_32542" data-name="Path 32542" d="M-464.868,850.48a4.583,4.583,0,0,1-.143-1.141,4.582,4.582,0,0,1,.147-1.158,24.56,24.56,0,0,0-13.313-5.779,4.313,4.313,0,0,1,.655,1.8A22.908,22.908,0,0,1-464.868,850.48Z" transform="translate(505.545 -842.402)" fill="#fff"/>
      <path id="Path_32543" data-name="Path 32543" d="M-385.6,906.063h.793a2.948,2.948,0,0,1-.9-.14Z" transform="translate(428.746 -895.158)" fill="#fff"/>
      <path id="Path_32544" data-name="Path 32544" d="M-588.679,850.48a22.908,22.908,0,0,1,12.654-6.28,4.314,4.314,0,0,1,.655-1.8,24.562,24.562,0,0,0-13.314,5.779,4.575,4.575,0,0,1,.148,1.158A4.585,4.585,0,0,1-588.679,850.48Z" transform="translate(597.322 -842.402)" fill="#fff"/>
      <path id="Path_32545" data-name="Path 32545" d="M-637.959,948.136a22.85,22.85,0,0,1,1.415-7.937h-1.8a24.557,24.557,0,0,0-1.31,7.937,24.518,24.518,0,0,0,2.07,9.885,4.15,4.15,0,0,1,1.013-2.035A22.847,22.847,0,0,1-637.959,948.136Z" transform="translate(639.66 -923.625)" fill="#fff"/>
      <path id="Path_32546" data-name="Path 32546" d="M-615.3,905.416c-.051.075-.1.151-.151.226h1.282A2.961,2.961,0,0,1-615.3,905.416Z" transform="translate(619.551 -894.737)" fill="#fff"/>
      <path id="Path_32547" data-name="Path 32547" d="M-388.684,1072.281a2.986,2.986,0,0,1-1.4-.351q-.142.177-.288.351Z" transform="translate(432.619 -1033.03)" fill="#fff"/>
      <path id="Path_32548" data-name="Path 32548" d="M-379.141,905.642c-.05-.075-.1-.151-.15-.226a2.961,2.961,0,0,1-1.132.226Z" transform="translate(424.358 -894.737)" fill="#fff"/>
      <path id="Path_32549" data-name="Path 32549" d="M-607.882,1072.28h1.686q-.146-.174-.288-.351A2.984,2.984,0,0,1-607.882,1072.28Z" transform="translate(613.268 -1033.029)" fill="#fff"/>
      <path id="Path_32550" data-name="Path 32550" d="M-607.882,906.062h.793c.034-.047.068-.094.1-.14A2.949,2.949,0,0,1-607.882,906.062Z" transform="translate(613.268 -895.157)" fill="#fff"/>
      <path id="Path_32551" data-name="Path 32551" d="M-610.938,1073.729l.033.046h.485A2.956,2.956,0,0,1-610.938,1073.729Z" transform="translate(615.806 -1034.524)" fill="#fff"/>
      <path id="Path_32552" data-name="Path 32552" d="M-365.612,948.136a22.852,22.852,0,0,1-1.383,7.85,4.149,4.149,0,0,1,1.013,2.035,24.52,24.52,0,0,0,2.07-9.885,24.557,24.557,0,0,0-1.31-7.937h-1.8A22.849,22.849,0,0,1-365.612,948.136Z" transform="translate(413.232 -923.625)" fill="#fff"/>
      <path id="Path_32553" data-name="Path 32553" d="M-568.326,1103.5a22.861,22.861,0,0,1-6.063-2.78v1.141h-1.356a24.571,24.571,0,0,0,7.025,3.3v-.325A2.494,2.494,0,0,1-568.326,1103.5Z" transform="translate(586.577 -1056.939)" fill="#fff"/>
      <path id="Path_32554" data-name="Path 32554" d="M-450.058,1100.718a22.87,22.87,0,0,1-6.019,2.767,2.7,2.7,0,0,1,.35,1.376v.294a24.568,24.568,0,0,0,7.025-3.3h-1.356Z" transform="translate(487.19 -1056.939)" fill="#fff"/>
      <path id="Path_32555" data-name="Path 32555" d="M-379.938,1073.775l.033-.046a2.953,2.953,0,0,1-.518.046Z" transform="translate(424.358 -1034.524)" fill="#fff"/>
    </g>
    <path id="Path_32557" data-name="Path 32557" d="M-514.449,975.972a.85.85,0,0,1-.6-.249l-2.268-2.268a.85.85,0,0,1,0-1.2.85.85,0,0,1,1.2,0l1.666,1.666,3.367-3.367a.85.85,0,0,1,1.2,0,.851.851,0,0,1,0,1.2l-3.968,3.968A.85.85,0,0,1-514.449,975.972Z" transform="translate(-112.513 -130.62)" fill="#fff"/>
    <path id="Path_32558" data-name="Path 32558" d="M-445.828,995.465a.847.847,0,0,1-.679-.338.85.85,0,0,1,.166-1.191q.425-.322.824-.677a.851.851,0,0,1,1.2.073.851.851,0,0,1-.072,1.2c-.3.265-.609.519-.928.761A.854.854,0,0,1-445.828,995.465Zm3.14-3.246a.847.847,0,0,1-.49-.156.851.851,0,0,1-.2-1.186,13.794,13.794,0,0,0,2.546-8.015.85.85,0,0,1,.85-.85.851.851,0,0,1,.85.85,15.485,15.485,0,0,1-2.859,9A.849.849,0,0,1-442.688,992.219Z" transform="translate(-171.387 -140.343)" fill="#fff"/>
    <path id="Path_32559" data-name="Path 32559" d="M-579.038,998.007a.843.843,0,0,1-.492-.157,15.53,15.53,0,0,1-5.691-7.535.849.849,0,0,1,.519-1.084.85.85,0,0,1,1.085.519,13.852,13.852,0,0,0,5.07,6.713.851.851,0,0,1,.2,1.187A.85.85,0,0,1-579.038,998.007Zm-6.132-10.434a.849.849,0,0,1-.844-.76c-.042-.394-.071-.793-.083-1.193a.852.852,0,0,1,.823-.878.866.866,0,0,1,.877.823q.017.538.073,1.067a.85.85,0,0,1-.755.937A.811.811,0,0,1-585.17,987.573Z" transform="translate(-55.597 -142.611)" fill="#fff"/>
    <path id="Path_33808" data-name="Path 33808" d="M-628.97,862.9a4,4,0,0,1-4-4,4,4,0,0,1,4-4,4,4,0,0,1,4,4A4,4,0,0,1-628.97,862.9Zm0-6.588a2.5,2.5,0,0,0-2.4,2.588,2.5,2.5,0,0,0,2.4,2.588,2.5,2.5,0,0,0,2.4-2.588A2.5,2.5,0,0,0-628.97,856.313Z" transform="translate(22.332 -33.935)" fill="#fff"/>
    <path id="Path_33812" data-name="Path 33812" d="M-628.97,854.9a4,4,0,0,0-4,4,4,4,0,0,0,4,4,4,4,0,0,0,4-4A4,4,0,0,0-628.97,854.9Zm0,6.588a2.5,2.5,0,0,1-2.4-2.588,2.5,2.5,0,0,1,2.4-2.588,2.5,2.5,0,0,1,2.4,2.588A2.5,2.5,0,0,1-628.97,861.489Z" transform="translate(22.331 -5.935)" fill="#fff"/>
  </g>
</svg>
