<svg xmlns="http://www.w3.org/2000/svg" width="41.254" height="56.614" viewBox="0 0 41.254 56.614">
  <g id="Group_10853" data-name="Group 10853" transform="translate(-101.352 -662.016)">
    <g id="Group_10844" data-name="Group 10844" transform="translate(102.102 667.227)">
      <path id="Path_33431" data-name="Path 33431" d="M141.385,720.582H102.574a.472.472,0,0,1-.472-.471V670.4a.472.472,0,0,1,.472-.471h9.384a.471.471,0,0,1,.471.471v5.811h19.1V670.4a.471.471,0,0,1,.471-.471h9.383a.471.471,0,0,1,.471.471v49.711A.472.472,0,0,1,141.385,720.582Zm-38.34-.943h37.869V670.871h-8.44v5.812a.472.472,0,0,1-.471.471H111.958a.472.472,0,0,1-.472-.471v-5.812h-8.441Z" transform="translate(-102.102 -669.929)" fill="#fff" stroke="#fff" stroke-linecap="round" stroke-width="1.5"/>
    </g>
    <g id="Group_10845" data-name="Group 10845" transform="translate(105.601 670.722)">
      <path id="Path_33432" data-name="Path 33432" d="M140.006,719.2H108.191a.472.472,0,0,1-.471-.471V676.013a.472.472,0,0,1,.471-.472h5.886a.472.472,0,0,1,.471.472v2.315h19.1v-2.315a.472.472,0,0,1,.471-.472h5.886a.471.471,0,0,1,.471.472v42.719A.471.471,0,0,1,140.006,719.2Zm-31.343-.944h30.872V676.485h-4.943V678.8a.472.472,0,0,1-.471.471H114.077a.472.472,0,0,1-.472-.471v-2.314h-4.942Z" transform="translate(-107.72 -675.541)" fill="#fff" stroke="#fff" stroke-linecap="round" stroke-width="1.5"/>
    </g>
    <g id="Group_10846" data-name="Group 10846" transform="translate(111.486 662.766)">
      <path id="Path_33433" data-name="Path 33433" d="M137.685,674.452H117.641a.472.472,0,0,1-.472-.471v-7.195a.472.472,0,0,1,.472-.471h2.718v-3.077a.471.471,0,0,1,.471-.471H134.5a.471.471,0,0,1,.471.471v3.077h2.718a.472.472,0,0,1,.471.471v7.195A.472.472,0,0,1,137.685,674.452Zm-19.572-.942h19.1v-6.252H134.5a.471.471,0,0,1-.471-.471v-3.077H121.3v3.077a.472.472,0,0,1-.471.471h-2.717Z" transform="translate(-117.169 -662.766)" fill="#fff" stroke="#fff" stroke-linecap="round" stroke-width="1.5"/>
    </g>
    <g id="Group_10847" data-name="Group 10847" transform="translate(119.504 665.86)">
      <path id="Path_33434" data-name="Path 33434" d="M132.52,672.685a2.475,2.475,0,1,1,2.474-2.478A2.48,2.48,0,0,1,132.52,672.685Zm0-4.008a1.533,1.533,0,1,0,1.531,1.531A1.535,1.535,0,0,0,132.52,668.676Z" transform="translate(-130.043 -667.734)" fill="#fff" stroke="#fff" stroke-linecap="round" stroke-width="1.5"/>
    </g>
    <g id="Group_10848" data-name="Group 10848" transform="translate(111.345 685.342)">
      <path id="Path_33435" data-name="Path 33435" d="M137.742,699.956H117.414a.471.471,0,1,1,0-.942h20.328a.471.471,0,1,1,0,.942Z" transform="translate(-116.942 -699.014)" fill="#fff" stroke="#fff" stroke-linecap="round" stroke-width="1.5"/>
    </g>
    <g id="Group_10849" data-name="Group 10849" transform="translate(111.345 690.106)">
      <path id="Path_33436" data-name="Path 33436" d="M122.749,707.608h-5.335a.472.472,0,1,1,0-.944h5.335a.472.472,0,1,1,0,.944Z" transform="translate(-116.942 -706.664)" fill="#fff" stroke="#fff" stroke-linecap="round" stroke-width="1.5"/>
    </g>
    <g id="Group_10850" data-name="Group 10850" transform="translate(111.345 694.872)">
      <path id="Path_33437" data-name="Path 33437" d="M131.73,715.259H117.414a.471.471,0,1,1,0-.943H131.73a.471.471,0,0,1,0,.943Z" transform="translate(-116.942 -714.316)" fill="#fff" stroke="#fff" stroke-linecap="round" stroke-width="1.5"/>
    </g>
    <g id="Group_10851" data-name="Group 10851" transform="translate(111.345 699.638)">
      <path id="Path_33438" data-name="Path 33438" d="M134.354,722.911h-16.94a.471.471,0,1,1,0-.943h16.94a.471.471,0,1,1,0,.943Z" transform="translate(-116.942 -721.968)" fill="#fff" stroke="#fff" stroke-linecap="round" stroke-width="1.5"/>
    </g>
    <g id="Group_10852" data-name="Group 10852" transform="translate(111.345 704.409)">
      <path id="Path_33439" data-name="Path 33439" d="M137.742,730.57H117.414a.471.471,0,1,1,0-.942h20.328a.471.471,0,1,1,0,.942Z" transform="translate(-116.942 -729.628)" fill="#fff" stroke="#fff" stroke-linecap="round" stroke-width="1.5"/>
    </g>
  </g>
</svg>
