<svg xmlns="http://www.w3.org/2000/svg" width="54.186" height="54.354" viewBox="0 0 54.186 54.354">
  <g id="Group_11184" data-name="Group 11184" transform="translate(7.468 -2382.483)">
    <g id="Group_11183" data-name="Group 11183" transform="translate(-6.46 2383.483)">
      <path id="Path_33784" data-name="Path 33784" d="M12.585,2417.293a18.288,18.288,0,0,1,14.6-17.889c-3.441-4.41-7.49-8.786-10.55-14.27a3.15,3.15,0,0,0-5.54,0c-6.25,11.2-16.635,17.779-17.5,29.458-.873,11.725,8.922,21.247,20.275,21.247a20.433,20.433,0,0,0,9.025-2.135A18.259,18.259,0,0,1,12.585,2417.293Zm-9.712-13.067q.652-.99,1.373-2a1.691,1.691,0,0,1,2.761,1.952q-.687.969-1.309,1.91a1.69,1.69,0,0,1-2.825-1.857Zm4.213,23.717a1.69,1.69,0,0,1-2.312.608,13.037,13.037,0,0,1-2.954-2.344,13.448,13.448,0,0,1-3.393-10.384A18.841,18.841,0,0,1-1,2412.31a1.69,1.69,0,1,1,3.269.862,15.23,15.23,0,0,0-.471,2.878,12.388,12.388,0,0,0,.438,4.257A8.749,8.749,0,0,0,4.29,2423.9a9.647,9.647,0,0,0,2.19,1.734A1.689,1.689,0,0,1,7.087,2427.943Z" transform="translate(6.46 -2383.484)" fill="none" stroke="#fff" stroke-miterlimit="10" stroke-width="2"/>
      <path id="Path_33785" data-name="Path 33785" d="M27.968,2399.99a14.876,14.876,0,1,0,14.876,14.876A14.876,14.876,0,0,0,27.968,2399.99Zm6.538,15-9.956,9.089a.683.683,0,0,1-1.108-.721l2.12-6.362a.683.683,0,0,0-.648-.9H20.93a.684.684,0,0,1-.461-1.188l9.956-9.09a.684.684,0,0,1,1.109.722l-2.121,6.362a.683.683,0,0,0,.648.9h3.984A.684.684,0,0,1,34.506,2414.985Z" transform="translate(9.335 -2381.056)" fill="none" stroke="#fff" stroke-miterlimit="10" stroke-width="2"/>
    </g>
  </g>
</svg>
