<svg xmlns="http://www.w3.org/2000/svg" width="38.02" height="57" viewBox="0 0 38.02 57">
  <g id="Group_11193" data-name="Group 11193" transform="translate(-1768 -4190)">
    <g id="Group_11186" data-name="Group 11186" transform="translate(235.243 589)">
      <g id="Group_10502" data-name="Group 10502" transform="translate(1532.757 3601)">
        <path id="Path_32573" data-name="Path 32573" d="M1144.067,71.791h-18.087a9.978,9.978,0,0,0-9.967,9.966v37.068a9.978,9.978,0,0,0,9.967,9.967h18.087a9.977,9.977,0,0,0,9.966-9.967V81.757A9.977,9.977,0,0,0,1144.067,71.791Zm-18.087,2.26h18.087a7.715,7.715,0,0,1,7.706,7.706v35.937h-33.5V81.757A7.715,7.715,0,0,1,1125.979,74.051Zm18.087,52.48h-18.087a7.712,7.712,0,0,1-7.614-6.576h33.314A7.711,7.711,0,0,1,1144.067,126.531Z" transform="translate(-1116.013 -71.791)" fill="#fff"/>
        <g id="Group_10500" data-name="Group 10500" transform="translate(13.813 4.578)">
          <path id="Path_32574" data-name="Path 32574" d="M1150.277,82.336h-8.134a1.13,1.13,0,0,1,0-2.26h8.134a1.13,1.13,0,0,1,0,2.26Z" transform="translate(-1141.013 -80.076)" fill="#fff"/>
        </g>
        <g id="Group_10501" data-name="Group 10501" transform="translate(16.631 50.12)">
          <path id="Path_32575" data-name="Path 32575" d="M1149.74,164.761h-2.5a1.13,1.13,0,1,1,0-2.26h2.5a1.13,1.13,0,1,1,0,2.26Z" transform="translate(-1146.113 -162.501)" fill="#fff"/>
        </g>
      </g>
    </g>
    <g id="Group_11194" data-name="Group 11194" transform="translate(-4774.856 2277.392)">
      <path id="Path_33800" data-name="Path 33800" d="M6550.856,2035.49v5.178a.82.82,0,0,0,.819.82h20.342a.82.82,0,0,0,.819-.82v-5.178a.82.82,0,0,0-.819-.82h-2a.82.82,0,0,0-.819.82v2.352h-14.7v-2.352a.821.821,0,0,0-.82-.82h-2A.82.82,0,0,0,6550.856,2035.49Zm.99.17h1.66v2.677a.5.5,0,0,0,.5.5h15.689a.5.5,0,0,0,.494-.5v-2.677h1.662v4.837h-20Z" transform="translate(0 -88.227)" fill="#fff"/>
      <path id="Path_33801" data-name="Path 33801" d="M6595.266,1933.063h6.282a.875.875,0,0,0,.874-.874v-1.708a.875.875,0,0,0-.874-.874h-6.282a.875.875,0,0,0-.874.874v1.708A.875.875,0,0,0,6595.266,1933.063Zm.117-2.465h6.048v1.474h-6.048Z" transform="translate(-36.561 0)" fill="#fff"/>
      <path id="Path_33802" data-name="Path 33802" d="M6570.7,1960.359h-3.209a1.252,1.252,0,0,0-1.169.647.855.855,0,0,0,.141.935l3.637,4.264h0l3.638,4.264a1.337,1.337,0,0,0,1.028.428h0a1.337,1.337,0,0,0,1.029-.428l7.275-8.528a.857.857,0,0,0,.141-.935,1.255,1.255,0,0,0-1.17-.647h-3.319v-3.026a.82.82,0,0,0-.818-.82h-6.384a.821.821,0,0,0-.82.82Zm.5.99a.5.5,0,0,0,.5-.5V1957.5h6.042v3.351a.5.5,0,0,0,.494.5h3.814a.544.544,0,0,1,.2.036l-7.2,8.44a.409.409,0,0,1-.275.081h0a.412.412,0,0,1-.275-.081l-3.638-4.264h0l-3.563-4.177a.538.538,0,0,1,.2-.036Z" transform="translate(-12.92 -22.593)" fill="#fff"/>
    </g>
  </g>
</svg>
