<svg xmlns="http://www.w3.org/2000/svg" width="46.278" height="31.235" viewBox="0 0 46.278 31.235">
  <g id="Group_11202" data-name="Group 11202" transform="translate(-1768 -3823.964)">
    <g id="Group_11195" data-name="Group 11195" transform="translate(-5242.896 1934.641)">
      <path id="Path_33805" data-name="Path 33805" d="M7241.16,2096.466l-6.124-6.123a11.79,11.79,0,0,1-3.538,3.538l6.124,6.123a2.5,2.5,0,0,0,3.538-3.538Z" transform="translate(-184.719 -184.725)" fill="#fff"/>
      <path id="Path_33806" data-name="Path 33806" d="M7050.5,1899.332a10.009,10.009,0,1,0-10.009,10.008A10.009,10.009,0,0,0,7050.5,1899.332Zm-10.009,7.506a7.506,7.506,0,1,1,7.507-7.506A7.514,7.514,0,0,1,7040.493,1906.838Z" fill="#fff"/>
      <path id="Path_33807" data-name="Path 33807" d="M7105.814,1935.159l1.18,1.179a4.175,4.175,0,0,1,5.9,0l1.18-1.179A5.845,5.845,0,0,0,7105.814,1935.159Z" transform="translate(-69.223 -40.551)" fill="#fff"/>
    </g>
    <path id="Path_33813" data-name="Path 33813" d="M-630.725,915.233h-21a1.451,1.451,0,0,1-1.313-1.558v-4.942a7.029,7.029,0,0,1,7.038-7h9.441c3.442,0,7.148,2.209,7.148,7.059v4.885A1.451,1.451,0,0,1-630.725,915.233Zm-19.689-3.116h18.377V908.79c0-3.9-4.338-3.943-4.522-3.943H-646a4.18,4.18,0,0,0-4.413,3.887Z" transform="translate(2421.04 2939.967)" fill="#fff"/>
    <path id="Path_33814" data-name="Path 33814" d="M-626.219,868.4a6.757,6.757,0,0,1-6.75-6.751,6.757,6.757,0,0,1,6.75-6.751,6.757,6.757,0,0,1,6.751,6.751A6.757,6.757,0,0,1-626.219,868.4Zm0-11.119a4.223,4.223,0,0,0-4.05,4.368,4.223,4.223,0,0,0,4.05,4.368,4.223,4.223,0,0,0,4.051-4.368A4.223,4.223,0,0,0-626.219,857.284Z" transform="translate(2406.032 2974.54)" fill="#fff"/>
  </g>
</svg>
