<svg xmlns="http://www.w3.org/2000/svg" width="59" height="55.437" viewBox="0 0 59 55.437">
  <g id="Group_11162" data-name="Group 11162" transform="translate(636.815 -2150.158)">
    <path id="Path_33739" data-name="Path 33739" d="M-623.622,2188.762v10.688h28.5v-17.812h-28.5Zm3.563-3.562h21.374v3.562h-21.374Zm0,7.125h21.374v3.563h-21.374Z" transform="translate(2.058 5.145)" fill="none" stroke="#fff" stroke-linecap="round" stroke-linejoin="round" stroke-width="2"/>
    <path id="Path_33740" data-name="Path 33740" d="M-595.124,2161.846v-10.688h-28.5v17.812h28.5Z" transform="translate(2.058)" fill="none" stroke="#fff" stroke-linecap="round" stroke-linejoin="round" stroke-width="2"/>
    <g id="Group_11161" data-name="Group 11161" transform="translate(-635.815 2161.845)">
      <path id="Path_33741" data-name="Path 33741" d="M-585.94,2160.3H-589.5v10.688h-35.624V2160.3h-3.563a7.663,7.663,0,0,0-7.126,7.125v17.813a7.663,7.663,0,0,0,7.126,7.124h3.563v-10.687H-589.5v10.687h3.563a7.663,7.663,0,0,0,7.125-7.124v-17.812A7.663,7.663,0,0,0-585.94,2160.3Zm.422,15.42a1.967,1.967,0,0,1-1.967-1.967,1.968,1.968,0,0,1,1.967-1.967,1.967,1.967,0,0,1,1.967,1.967A1.967,1.967,0,0,1-585.518,2175.722Z" transform="translate(635.815 -2160.302)" fill="none" stroke="#fff" stroke-linecap="round" stroke-linejoin="round" stroke-width="2"/>
    </g>
  </g>
</svg>
