<svg xmlns="http://www.w3.org/2000/svg" xmlns:xlink="http://www.w3.org/1999/xlink" width="527.736" height="163.166" viewBox="0 0 527.736 163.166">
  <defs>
    <linearGradient id="linear-gradient" x1="0.104" y1="0.5" x2="1.104" y2="0.5" gradientUnits="objectBoundingBox">
      <stop offset="0" stop-color="#006885"/>
      <stop offset="0.138" stop-color="#00607b"/>
      <stop offset="0.366" stop-color="#004c62"/>
      <stop offset="0.656" stop-color="#002c39"/>
      <stop offset="0.995"/>
      <stop offset="1"/>
    </linearGradient>
    <linearGradient id="linear-gradient-2" x1="-2.008" y1="0.5" x2="-1.008" y2="0.5" gradientUnits="objectBoundingBox">
      <stop offset="0" stop-color="#90dbff"/>
      <stop offset="0.13" stop-color="#86d3f7"/>
      <stop offset="0.345" stop-color="#6dbfe1"/>
      <stop offset="0.619" stop-color="#449ebe"/>
      <stop offset="0.938" stop-color="#0b718f"/>
      <stop offset="1" stop-color="#006885"/>
    </linearGradient>
    <linearGradient id="linear-gradient-3" x1="-2.299" y1="0.5" x2="-1.299" y2="0.5" gradientUnits="objectBoundingBox">
      <stop offset="0" stop-color="#f2f2f2"/>
      <stop offset="1" stop-color="#fff"/>
    </linearGradient>
    <radialGradient id="radial-gradient" cx="0.5" cy="0.5" r="0.54" gradientTransform="matrix(-0.866, 0, 0, 1, -3.733, 0)" gradientUnits="objectBoundingBox">
      <stop offset="0.075" stop-color="#fff"/>
      <stop offset="0.616" stop-color="#f0f0f0"/>
      <stop offset="1" stop-color="#ccc"/>
    </radialGradient>
    <linearGradient id="linear-gradient-4" x1="0" x2="1" xlink:href="#linear-gradient-2"/>
    <linearGradient id="linear-gradient-5" x1="0" x2="1" xlink:href="#linear-gradient-2"/>
    <linearGradient id="linear-gradient-6" x1="0" x2="1" xlink:href="#linear-gradient-2"/>
    <linearGradient id="linear-gradient-7" x1="0" x2="1" xlink:href="#linear-gradient-2"/>
    <linearGradient id="linear-gradient-9" x1="0" x2="1" xlink:href="#linear-gradient-2"/>
    <linearGradient id="linear-gradient-11" x1="0" x2="1" xlink:href="#linear-gradient-2"/>
    <linearGradient id="linear-gradient-12" x1="0" x2="1" xlink:href="#linear-gradient-2"/>
  </defs>
  <g id="Group_11204" data-name="Group 11204" transform="translate(-110.724 -3310)">
    <g id="Group_11104" data-name="Group 11104" transform="translate(110.724 3320)" opacity="0.6">
      <path id="Path_17013" data-name="Path 17013" d="M118.036,291.665H478.418l41.136,71.249-41.136,71.249H118.036L76.9,362.915Z" transform="translate(-76.9 -291.665)" fill="url(#linear-gradient)"/>
    </g>
    <g id="Group_11103" data-name="Group 11103" transform="translate(450.053 3310)">
      <path id="Path_17014" data-name="Path 17014" d="M243.863,288.015h94.2l47.1,81.583-47.1,81.583h-94.2l-47.1-81.583Z" transform="translate(-196.761 -288.015)" fill="url(#linear-gradient-2)"/>
      <path id="Path_17015" data-name="Path 17015" d="M242.112,291.665h82.272l41.136,71.249-41.136,71.249H242.112l-41.136-71.249Z" transform="translate(-189.044 -281.332)" fill="url(#linear-gradient-3)"/>
      <path id="Path_17016" data-name="Path 17016" d="M241.139,293.693h75.643L354.6,359.2,316.782,424.71H241.139L203.318,359.2Z" transform="translate(-184.757 -277.619)" fill="url(#radial-gradient)"/>
    </g>
    <text id="Contract" transform="translate(216.052 3406)" fill="#fff" font-size="40" font-family="Montserrat-Bold, Montserrat" font-weight="700"><tspan x="0" y="0">Contract</tspan></text>
    <g id="Group_5968" data-name="Group 5968" transform="translate(510.821 3354)">
      <path id="Path_16987" data-name="Path 16987" d="M564.148,121.785a3.71,3.71,0,0,0-6.8-.889l-.617,1.076a1.232,1.232,0,0,0-1.682.444l-3.14,5.353-1.076-.62a1.236,1.236,0,1,0-1.237,2.14l1.076.617-10.509,18.215-2.6,6.936-1.234,2.31a3.709,3.709,0,0,0,.2,4.009l-2.783,3.411-.779-1.953a2.472,2.472,0,0,0-4.414-.345l-.447.753-.419-4.946a2.473,2.473,0,0,0-4.81-.58l-3.04,9.124a1.232,1.232,0,0,0,.779,1.557,1.045,1.045,0,0,0,.382.1,1.233,1.233,0,0,0,1.175-.841l3.029-9.124.433,5.019a2.472,2.472,0,0,0,4.586,1.064l.459-.756.767,1.942a2.471,2.471,0,0,0,4.227.631l2.882-3.646a3.8,3.8,0,0,0,.977.122,3.71,3.71,0,0,0,3.227-1.829L544,159.013l4.711-5.724,10.619-18.436,1.076.62a1.24,1.24,0,0,1,.459,1.693l-4.946,8.569a1.235,1.235,0,0,0,.4,1.744,1.24,1.24,0,0,0,1.693-.459l4.946-8.569a3.7,3.7,0,0,0-1.362-5.067l-1.076-.62,3.092-5.353a1.239,1.239,0,0,0-.445-1.682l.617-1.076A3.7,3.7,0,0,0,564.148,121.785Zm-4.66.345a1.241,1.241,0,0,1,.753-.58,1.293,1.293,0,0,1,.94.125,1.245,1.245,0,0,1,.583.753,1.309,1.309,0,0,1-.125.94l-.617,1.076-2.151-1.237Zm-16.853,34.521-.617-.357-1.832-1.064,1.758-4.7,3.893,2.251Zm-3.709,3.573a1.234,1.234,0,0,1-.371-1.619l.617-1.076,2.152,1.237-.617,1.064a1.236,1.236,0,0,1-1.781.393Zm8.32-9.47-4.278-2.471,9.891-17.139,4.278,2.474Zm11.129-19.276-4.278-2.471,2.471-4.28,4.278,2.474Z" transform="translate(-490.089 -104.202)" fill="url(#linear-gradient-4)"/>
      <path id="Path_16988" data-name="Path 16988" d="M522.07,133.56l-4.377,4.365-2.622-2.622a1.236,1.236,0,1,0-1.741,1.755l2.619,2.622a2.5,2.5,0,0,0,3.5,0l4.363-4.377a1.237,1.237,0,0,0-1.744-1.744Z" transform="translate(-502.562 -78.154)" fill="url(#linear-gradient-5)"/>
      <path id="Path_16989" data-name="Path 16989" d="M511.035,141.341a10.51,10.51,0,0,0,21.02,0,1.236,1.236,0,1,0-2.472,0,8.04,8.04,0,1,1-3.216-6.429,1.237,1.237,0,0,0,1.483-1.979,10.51,10.51,0,0,0-16.816,8.408Z" transform="translate(-506.092 -82.609)" fill="url(#linear-gradient-6)"/>
      <path id="Path_16990" data-name="Path 16990" d="M546.6,118.889a1.236,1.236,0,1,0,0-2.471H514.456a1.237,1.237,0,0,0-1.237,1.237V122.6a1.236,1.236,0,0,0,1.237,1.234H546.6a1.236,1.236,0,1,0,0-2.471H515.693v-2.474Z" transform="translate(-502.093 -108.998)" fill="url(#linear-gradient-7)"/>
      <path id="Path_16991" data-name="Path 16991" d="M515.766,119.912a1.236,1.236,0,1,0,0,2.471h24.729a1.236,1.236,0,1,0,0-2.471Z" transform="translate(-499.695 -102.6)" fill="url(#linear-gradient-7)"/>
      <path id="Path_16992" data-name="Path 16992" d="M544.716,122.969h-27.2a1.237,1.237,0,0,0,0,2.474h27.2a1.237,1.237,0,0,0,0-2.474Z" transform="translate(-496.496 -97.003)" fill="url(#linear-gradient-9)"/>
      <path id="Path_16993" data-name="Path 16993" d="M539.546,126.824a1.234,1.234,0,0,0-1.237-1.234H513.58a1.236,1.236,0,0,0,0,2.471h24.729A1.235,1.235,0,0,0,539.546,126.824Z" transform="translate(-503.692 -92.204)" fill="url(#linear-gradient-9)"/>
      <path id="Path_16994" data-name="Path 16994" d="M532.72,125.59h-8.657a1.236,1.236,0,0,0,0,2.471h8.657a1.236,1.236,0,0,0,0-2.471Z" transform="translate(-484.499 -92.204)" fill="url(#linear-gradient-11)"/>
      <path id="Path_16995" data-name="Path 16995" d="M525.946,130.247a1.237,1.237,0,0,0,0-2.474H513.58a1.237,1.237,0,0,0,0,2.474Z" transform="translate(-503.692 -88.207)" fill="url(#linear-gradient-12)"/>
      <path id="Path_16996" data-name="Path 16996" d="M519.7,130.247h8.654a1.237,1.237,0,1,0,0-2.474H519.7a1.237,1.237,0,0,0,0,2.474Z" transform="translate(-492.497 -88.207)" fill="url(#linear-gradient-4)"/>
      <path id="Path_16997" data-name="Path 16997" d="M564.927,170.675a1.236,1.236,0,0,0-1.237,1.234v12.366a1.237,1.237,0,0,1-1.237,1.237H513a1.238,1.238,0,0,1-1.237-1.237V117.508A1.238,1.238,0,0,1,513,116.271h49.455a1.237,1.237,0,0,1,1.237,1.237v23.22a1.237,1.237,0,0,0,2.474,0v-23.22a3.712,3.712,0,0,0-3.711-3.711H513a3.709,3.709,0,0,0-3.709,3.711v66.767A3.707,3.707,0,0,0,513,187.984h49.455a3.709,3.709,0,0,0,3.711-3.709V171.909A1.236,1.236,0,0,0,564.927,170.675Z" transform="translate(-509.289 -113.797)" fill="url(#linear-gradient-4)"/>
    </g>
  </g>
</svg>
