<svg xmlns="http://www.w3.org/2000/svg" xmlns:xlink="http://www.w3.org/1999/xlink" width="564.469" height="248.531" viewBox="0 0 564.469 248.531">
  <defs>
    <style>
      .cls-1 {
        opacity: 0.97;
        fill: url(#linear-gradient);
      }

      .cls-2 {
        fill: url(#linear-gradient-2);
      }

      .cls-3 {
        fill: url(#linear-gradient-3);
      }

      .cls-4 {
        fill: url(#radial-gradient);
      }

      .cls-5 {
        fill: url(#linear-gradient-8);
      }

      .cls-6 {
        fill: url(#linear-gradient-9);
      }

      .cls-7 {
        fill: #fff;
      }
    </style>
    <linearGradient id="linear-gradient" y1="0.5" x2="1" y2="0.5" gradientUnits="objectBoundingBox">
      <stop offset="0" stop-color="#014f74" stop-opacity="0.502"/>
      <stop offset="0.523" stop-color="#024050" stop-opacity="0.8"/>
      <stop offset="1" stop-color="#00313e"/>
    </linearGradient>
    <linearGradient id="linear-gradient-2" y1="0.5" x2="1" y2="0.5" gradientUnits="objectBoundingBox">
      <stop offset="0" stop-color="#90dbff"/>
      <stop offset="0.13" stop-color="#86d3f7"/>
      <stop offset="0.345" stop-color="#6dbfe1"/>
      <stop offset="0.619" stop-color="#449ebe"/>
      <stop offset="0.938" stop-color="#0b718f"/>
      <stop offset="1" stop-color="#006885"/>
    </linearGradient>
    <linearGradient id="linear-gradient-3" x1="-1.546" y1="0.5" x2="-0.546" y2="0.5" gradientUnits="objectBoundingBox">
      <stop offset="0" stop-color="#f2f2f2"/>
      <stop offset="1" stop-color="#fff"/>
    </linearGradient>
    <radialGradient id="radial-gradient" cx="0.401" cy="0.419" r="0.647" gradientTransform="translate(3.848)" gradientUnits="objectBoundingBox">
      <stop offset="0.075" stop-color="#fff"/>
      <stop offset="0.616" stop-color="#f0f0f0"/>
      <stop offset="1" stop-color="#ccc"/>
    </radialGradient>
    <linearGradient id="linear-gradient-8" x1="0" y1="0.5" x2="1" y2="0.5" xlink:href="#linear-gradient-2"/>
    <linearGradient id="linear-gradient-9" x1="0" y1="0.5" x2="1" y2="0.5" xlink:href="#linear-gradient-2"/>
  </defs>
  <g id="Group_14413" data-name="Group 14413" transform="translate(-1240 -3761.475)">
    <path id="Path_37044" data-name="Path 37044" class="cls-1" d="M839.9,64.131H501.386V239.87H839.9c56.856,0,102.951-39.339,102.951-87.87S896.759,64.131,839.9,64.131Z" transform="translate(861.614 3731.579)"/>
    <g id="Group_11257" data-name="Group 11257">
      <circle id="Ellipse_220" data-name="Ellipse 220" class="cls-2" cx="87.869" cy="87.869" r="87.869" transform="translate(1240 3885.74) rotate(-45)"/>
      <ellipse id="Ellipse_198" data-name="Ellipse 198" class="cls-3" cx="71.487" cy="71.487" rx="71.487" ry="71.487" transform="matrix(-0.987, -0.159, 0.159, -0.987, 1422.469, 3967.216)"/>
      <ellipse id="Ellipse_199" data-name="Ellipse 199" class="cls-4" cx="64.04" cy="64.04" rx="64.04" ry="64.04" transform="translate(1299.226 3821.226)"/>
      <g id="Group_5899" data-name="Group 5899" transform="translate(1317.893 3840)">
        <path id="Path_16961" data-name="Path 16961" class="cls-2" d="M240.459,147.672a7.437,7.437,0,0,0-3.6.918,42.106,42.106,0,0,1,41.576-67.132,1.785,1.785,0,1,0,.709-3.5,45.982,45.982,0,0,0-9.09-.9,45.657,45.657,0,0,0-35.831,73.952,7.5,7.5,0,1,0,6.235-3.335Zm2.773,10.263a3.923,3.923,0,1,1,1.15-2.773A3.894,3.894,0,0,1,243.232,157.935Z" transform="translate(-224.399 -77.055)"/>
        <path id="Path_16962" data-name="Path 16962" class="cls-2" d="M281.448,90.449A7.49,7.49,0,0,0,269.918,81a7.49,7.49,0,0,0,8.894,11.866,42.114,42.114,0,0,1-41.5,67.151,1.784,1.784,0,0,0-.7,3.5,46.094,46.094,0,0,0,9,.885,45.657,45.657,0,0,0,35.831-73.952Zm-9.008-1.378a3.923,3.923,0,1,1,2.773,1.15A3.9,3.9,0,0,1,272.44,89.071Z" transform="translate(-199.961 -73.089)"/>
        <path id="Path_16963" data-name="Path 16963" class="cls-2" d="M253.54,144.23a1.786,1.786,0,0,0,1.783,1.783h11.151a1.784,1.784,0,0,0,1.783-1.783v-3.459A27.957,27.957,0,0,0,274.951,138l2.443,2.44a1.782,1.782,0,0,0,2.522,0l7.882-7.888a1.784,1.784,0,0,0,0-2.522l-2.437-2.437a28.033,28.033,0,0,0,2.773-6.7h3.446a1.784,1.784,0,0,0,1.783-1.783V107.961a1.786,1.786,0,0,0-1.783-1.783h-3.446a27.955,27.955,0,0,0-2.773-6.693l2.424-2.424a1.786,1.786,0,0,0,0-2.525L279.9,86.655a1.784,1.784,0,0,0-2.522,0l-2.424,2.424a27.965,27.965,0,0,0-6.693-2.776V82.879a1.782,1.782,0,0,0-1.783-1.783H255.324a1.784,1.784,0,0,0-1.783,1.783V86.3a27.968,27.968,0,0,0-6.693,2.776l-2.424-2.424a1.784,1.784,0,0,0-2.522,0l-7.888,7.882a1.786,1.786,0,0,0,0,2.525l2.424,2.424a27.954,27.954,0,0,0-2.773,6.693h-3.436a1.784,1.784,0,0,0-1.783,1.783l-.007,11.151a1.779,1.779,0,0,0,1.783,1.783h3.443a28.032,28.032,0,0,0,2.773,6.7L234,130.028a1.784,1.784,0,0,0,0,2.522l7.881,7.888a1.791,1.791,0,0,0,1.261.523h0a1.771,1.771,0,0,0,1.261-.523l2.443-2.44a27.959,27.959,0,0,0,6.693,2.773Zm-5.994-9.985a1.789,1.789,0,0,0-2.231.238l-2.172,2.172-5.36-5.367,2.169-2.169a1.78,1.78,0,0,0,.238-2.228,24.407,24.407,0,0,1-3.377-8.153,1.788,1.788,0,0,0-1.744-1.411h-3.064l0-7.584h3.061a1.785,1.785,0,0,0,1.744-1.408,24.407,24.407,0,0,1,3.377-8.153,1.78,1.78,0,0,0-.238-2.228L237.8,95.8l5.367-5.36,2.152,2.156a1.784,1.784,0,0,0,2.231.235,24.379,24.379,0,0,1,8.153-3.377,1.786,1.786,0,0,0,1.408-1.744V84.663h7.584v3.044a1.786,1.786,0,0,0,1.408,1.744,24.407,24.407,0,0,1,8.153,3.377,1.781,1.781,0,0,0,2.231-.238l2.153-2.152L284,95.8l-2.156,2.156a1.785,1.785,0,0,0-.238,2.231,24.407,24.407,0,0,1,3.377,8.153,1.783,1.783,0,0,0,1.744,1.408H289.8v7.584h-3.067a1.788,1.788,0,0,0-1.744,1.411,24.362,24.362,0,0,1-3.377,8.149,1.784,1.784,0,0,0,.238,2.231l2.169,2.169-5.36,5.367-2.172-2.172a1.789,1.789,0,0,0-2.231-.238,24.413,24.413,0,0,1-8.153,3.381,1.783,1.783,0,0,0-1.408,1.744v3.077h-7.584V139.37a1.783,1.783,0,0,0-1.408-1.744A24.346,24.346,0,0,1,247.547,134.245Z" transform="translate(-215.243 -67.897)"/>
        <path id="Path_16964" data-name="Path 16964" class="cls-2" d="M263.34,101.258A14.737,14.737,0,1,0,248.6,116,14.754,14.754,0,0,0,263.34,101.258Zm-25.908,0A11.171,11.171,0,1,1,248.6,112.429,11.182,11.182,0,0,1,237.432,101.258Z" transform="translate(-202.946 -55.602)"/>
        <path id="Path_16965" data-name="Path 16965" class="cls-5" d="M244.642,81.6a1.791,1.791,0,0,0,1.261-.523,1.784,1.784,0,1,0-3.044-1.264,1.784,1.784,0,0,0,1.783,1.787Z" transform="translate(-182.564 -74.852)"/>
        <path id="Path_16966" data-name="Path 16966" class="cls-6" d="M234.61,102.956a1.783,1.783,0,0,0,0,3.567,1.783,1.783,0,0,0,0-3.567Z" transform="translate(-205.299 -18.356)"/>
      </g>
    </g>
    <path id="Path_37049" data-name="Path 37049" class="cls-7" d="M2.04-25.76H14.92q4.44,0,6.66,2.34a9.065,9.065,0,0,1,2.22,6.5,8.058,8.058,0,0,1-1.3,4.56,7.8,7.8,0,0,1-3.62,2.92,4.452,4.452,0,0,1,.86.96,11.014,11.014,0,0,1,.78,1.52L23.56,0H16.84L13.96-6.56a2.57,2.57,0,0,0-.92-1.24,2.963,2.963,0,0,0-1.6-.36H8.48V0H2.04Zm11.2,12.64a4.206,4.206,0,0,0,2.96-.96,3.676,3.676,0,0,0,1.04-2.84q0-3.88-3.72-3.88H8.48v7.68ZM35.44.4q-5.08,0-8.02-2.52T24.48-9.48a9.992,9.992,0,0,1,2.54-7.26q2.54-2.62,7.38-2.62a9.886,9.886,0,0,1,6.96,2.32,8.069,8.069,0,0,1,2.52,6.24v3.4H30.44a3.671,3.671,0,0,0,2,2.6,10.508,10.508,0,0,0,4.48.76,18.65,18.65,0,0,0,3.18-.28,13.23,13.23,0,0,0,2.7-.72v4.2A18.033,18.033,0,0,1,35.44.4Zm2.84-11.52v-.84Q38.28-15,34.6-15a4.533,4.533,0,0,0-3.22.92,4,4,0,0,0-.94,2.96Zm9.8-2.96H45.56v-4.88h2.52v-1.56a7.256,7.256,0,0,1,1.8-5.14,6.745,6.745,0,0,1,5.2-1.94,12.6,12.6,0,0,1,4.68.84v4.32a7.16,7.16,0,0,0-2.4-.44,3.272,3.272,0,0,0-2.2.58,2.457,2.457,0,0,0-.64,1.9v1.44H59.2l-.28,4.88h-4.4V0H48.08ZM66.2.4a7.026,7.026,0,0,1-5.26-1.9,7.6,7.6,0,0,1-1.86-5.54V-18.96h6.44V-7.4a3.146,3.146,0,0,0,.76,2.34,3.274,3.274,0,0,0,2.36.74,5.285,5.285,0,0,0,2.16-.46A5.4,5.4,0,0,0,72.56-6V-18.96H79V0H73l-.2-1.6A10.724,10.724,0,0,1,66.2.4ZM93.24.4q-5.08,0-8.02-2.52T82.28-9.48a9.992,9.992,0,0,1,2.54-7.26q2.54-2.62,7.38-2.62a9.886,9.886,0,0,1,6.96,2.32,8.069,8.069,0,0,1,2.52,6.24v3.4H88.24a3.671,3.671,0,0,0,2,2.6,10.508,10.508,0,0,0,4.48.76,18.651,18.651,0,0,0,3.18-.28,13.23,13.23,0,0,0,2.7-.72v4.2A18.033,18.033,0,0,1,93.24.4Zm2.84-11.52v-.84Q96.08-15,92.4-15a4.533,4.533,0,0,0-3.22.92,4,4,0,0,0-.94,2.96ZM110.8.4q-3.12,0-4.48-1.36a5.974,5.974,0,0,1-1.36-4.36V-26.96h6.44v21a1.714,1.714,0,0,0,.36,1.26,1.652,1.652,0,0,0,1.16.34,6.063,6.063,0,0,0,1.92-.28V-.28a10.582,10.582,0,0,1-1.86.52A12.683,12.683,0,0,1,110.8.4Zm6.96-27.2h7v4.84h-7Zm.52,12.6h-2.8l.56-4.76h8.68V0h-6.44Zm10.56-4.76h6l.2,1.64a11.17,11.17,0,0,1,3.02-1.46,11.74,11.74,0,0,1,3.66-.58q3.64,0,5.34,1.76t1.7,5.44V0h-6.44V-11.64a3.09,3.09,0,0,0-.7-2.28,3.432,3.432,0,0,0-2.42-.68,5.2,5.2,0,0,0-2.12.48,5.9,5.9,0,0,0-1.8,1.2V0h-6.44Zm31.96,26a38.537,38.537,0,0,1-4.58-.28A18.8,18.8,0,0,1,152.48,6V1.6a19.107,19.107,0,0,0,3.74.8,33.778,33.778,0,0,0,4.22.28,18.9,18.9,0,0,0,3.7-.26q1.18-.26,1.18-.9a.75.75,0,0,0-.48-.76,5.738,5.738,0,0,0-1.88-.2h-5.24a7.3,7.3,0,0,1-3.98-.92,3,3,0,0,1-1.42-2.68,3.867,3.867,0,0,1,.76-2.3,4.5,4.5,0,0,1,2.16-1.58,6.056,6.056,0,0,1-2.5-2.14,5.924,5.924,0,0,1-.82-3.22,6.21,6.21,0,0,1,2.34-5.36q2.34-1.72,7.02-1.72a17.778,17.778,0,0,1,2.06.14q1.18.14,1.82.26h7.28l-.16,4h-2.76a4.015,4.015,0,0,1,1,2.96,5.726,5.726,0,0,1-1.82,4.48,7.734,7.734,0,0,1-5.34,1.64,22.011,22.011,0,0,1-2.32-.16q-2.52.28-2.52,1.36a.636.636,0,0,0,.36.62,2.756,2.756,0,0,0,1.16.18h4.84a6.86,6.86,0,0,1,4.54,1.36,4.783,4.783,0,0,1,1.62,3.88,4.594,4.594,0,0,1-2.58,4.24Q165.88,7.04,160.8,7.04Zm.52-16.48a4.545,4.545,0,0,0,2.9-.7,3.044,3.044,0,0,0,.82-2.42,3.134,3.134,0,0,0-.84-2.46,4.37,4.37,0,0,0-2.88-.74,4.305,4.305,0,0,0-2.82.74,3.092,3.092,0,0,0-.86,2.46,3.063,3.063,0,0,0,.82,2.38A4.283,4.283,0,0,0,161.32-9.44ZM10.24,60.4a28.355,28.355,0,0,1-4.78-.38,15.856,15.856,0,0,1-3.82-1.1V53.44A20.147,20.147,0,0,0,5.56,54.7a19.065,19.065,0,0,0,4.04.46,10.341,10.341,0,0,0,3.68-.46,1.849,1.849,0,0,0,1.08-1.9,2.179,2.179,0,0,0-.56-1.58,4.507,4.507,0,0,0-1.7-1q-1.14-.42-3.74-1.18a17.106,17.106,0,0,1-4.22-1.78A5.93,5.93,0,0,1,1.92,44.9a7.8,7.8,0,0,1-.68-3.46A6.567,6.567,0,0,1,3.9,35.78q2.66-1.94,7.78-1.94a28.77,28.77,0,0,1,4.26.32,20.489,20.489,0,0,1,3.54.8v5.52a18.356,18.356,0,0,0-6.84-1.32A10.8,10.8,0,0,0,9,39.62,1.746,1.746,0,0,0,7.8,41.4a1.854,1.854,0,0,0,.48,1.34,4,4,0,0,0,1.54.88q1.06.38,3.34.98a16.122,16.122,0,0,1,4.78,2,6.4,6.4,0,0,1,2.36,2.66,8.736,8.736,0,0,1,.66,3.54,6.578,6.578,0,0,1-2.72,5.56Q15.52,60.4,10.24,60.4Zm24.16,0q-5.08,0-8.02-2.52t-2.94-7.36a9.992,9.992,0,0,1,2.54-7.26q2.54-2.62,7.38-2.62a9.886,9.886,0,0,1,6.96,2.32,8.069,8.069,0,0,1,2.52,6.24v3.4H29.4a3.671,3.671,0,0,0,2,2.6,10.508,10.508,0,0,0,4.48.76,18.651,18.651,0,0,0,3.18-.28,13.23,13.23,0,0,0,2.7-.72v4.2A18.033,18.033,0,0,1,34.4,60.4Zm2.84-11.52v-.84q0-3.04-3.68-3.04a4.533,4.533,0,0,0-3.22.92,4,4,0,0,0-.94,2.96Zm8.88-7.84h6.12l.2,1.76a16.385,16.385,0,0,1,3.12-1.38,15.748,15.748,0,0,1,3.64-.78v4.84a27.032,27.032,0,0,0-3.6.7,16.023,16.023,0,0,0-3.04,1.06V60H46.12Zm13.36,0H66.2l4.16,12.32,4.2-12.32h6.72L73.8,60H66.96ZM85.44,33.2h7v4.84h-7Zm.52,12.6h-2.8l.56-4.76H92.4V60H85.96Zm20.56,14.6q-5.16,0-7.98-2.52t-2.82-7.36q0-4.88,2.92-7.38t8-2.5a19.149,19.149,0,0,1,3.62.3,12.594,12.594,0,0,1,2.98.98v4.56A11.94,11.94,0,0,0,108,45.4a6.689,6.689,0,0,0-4.32,1.16q-1.4,1.16-1.4,3.96a5,5,0,0,0,1.36,3.9,6.357,6.357,0,0,0,4.32,1.22,11.728,11.728,0,0,0,5.32-1.2V59.2A16.941,16.941,0,0,1,106.52,60.4Zm20.2,0q-5.08,0-8.02-2.52t-2.94-7.36a9.992,9.992,0,0,1,2.54-7.26q2.54-2.62,7.38-2.62a9.886,9.886,0,0,1,6.96,2.32,8.069,8.069,0,0,1,2.52,6.24v3.4H121.72a3.671,3.671,0,0,0,2,2.6,10.508,10.508,0,0,0,4.48.76,18.651,18.651,0,0,0,3.18-.28,13.23,13.23,0,0,0,2.7-.72v4.2A18.033,18.033,0,0,1,126.72,60.4Zm2.84-11.52v-.84q0-3.04-3.68-3.04a4.533,4.533,0,0,0-3.22.92,4,4,0,0,0-.94,2.96Z" transform="translate(1504 3875.269)"/>
  </g>
</svg>
