<svg xmlns="http://www.w3.org/2000/svg" width="34.746" height="24.055" viewBox="0 0 34.746 24.055">
  <g id="Icon_ionic-ios-mail" data-name="Icon ionic-ios-mail" transform="translate(-3.375 -7.875)">
    <path id="Path_2028" data-name="Path 2028" d="M37.837,10.365,28.85,19.519a.161.161,0,0,0,0,.234l6.289,6.7a1.084,1.084,0,0,1,0,1.537,1.089,1.089,0,0,1-1.537,0l-6.264-6.674a.171.171,0,0,0-.242,0l-1.528,1.554a6.725,6.725,0,0,1-4.794,2.021,6.86,6.86,0,0,1-4.894-2.08l-1.47-1.5a.171.171,0,0,0-.242,0L7.9,27.989a1.089,1.089,0,0,1-1.537,0,1.084,1.084,0,0,1,0-1.537l6.289-6.7a.178.178,0,0,0,0-.234l-9-9.154a.165.165,0,0,0-.284.117V28.8a2.681,2.681,0,0,0,2.673,2.673h29.4A2.681,2.681,0,0,0,38.121,28.8V10.482A.167.167,0,0,0,37.837,10.365Z" transform="translate(0 0.458)" fill="#fff"/>
    <path id="Path_2029" data-name="Path 2029" d="M20.588,23.168a4.541,4.541,0,0,0,3.266-1.37L36.959,8.46A2.625,2.625,0,0,0,35.3,7.875H5.88a2.608,2.608,0,0,0-1.654.585L17.331,21.8A4.541,4.541,0,0,0,20.588,23.168Z" transform="translate(0.16 0)" fill="#fff"/>
  </g>
</svg>
