<svg xmlns="http://www.w3.org/2000/svg" xmlns:xlink="http://www.w3.org/1999/xlink" width="565.531" height="248.531" viewBox="0 0 565.531 248.531">
  <defs>
    <style>
      .cls-1 {
        opacity: 0.97;
        fill: url(#linear-gradient);
      }

      .cls-2 {
        fill: url(#linear-gradient-2);
      }

      .cls-3 {
        fill: url(#linear-gradient-3);
      }

      .cls-4 {
        fill: url(#radial-gradient);
      }

      .cls-5 {
        fill: url(#linear-gradient-5);
      }

      .cls-6 {
        fill: url(#linear-gradient-6);
      }

      .cls-7 {
        fill: url(#linear-gradient-7);
      }

      .cls-8 {
        fill: url(#linear-gradient-8);
      }

      .cls-9 {
        fill: url(#linear-gradient-11);
      }

      .cls-10 {
        fill: url(#linear-gradient-12);
      }

      .cls-11 {
        fill: url(#linear-gradient-13);
      }

      .cls-12 {
        fill: #fff;
      }
    </style>
    <linearGradient id="linear-gradient" x1="1" y1="0.5" x2="0" y2="0.5" gradientUnits="objectBoundingBox">
      <stop offset="0" stop-color="#014f74" stop-opacity="0.502"/>
      <stop offset="0.523" stop-color="#024050" stop-opacity="0.8"/>
      <stop offset="1" stop-color="#00313e"/>
    </linearGradient>
    <linearGradient id="linear-gradient-2" y1="0.5" x2="1" y2="0.5" gradientUnits="objectBoundingBox">
      <stop offset="0" stop-color="#90dbff"/>
      <stop offset="0.13" stop-color="#86d3f7"/>
      <stop offset="0.345" stop-color="#6dbfe1"/>
      <stop offset="0.619" stop-color="#449ebe"/>
      <stop offset="0.938" stop-color="#0b718f"/>
      <stop offset="1" stop-color="#006885"/>
    </linearGradient>
    <linearGradient id="linear-gradient-3" y1="0.5" x2="1" y2="0.5" gradientUnits="objectBoundingBox">
      <stop offset="0" stop-color="#f2f2f2"/>
      <stop offset="1" stop-color="#fff"/>
    </linearGradient>
    <radialGradient id="radial-gradient" cx="0.599" cy="0.419" r="0.647" gradientTransform="matrix(-1, 0, 0, 1, 1.198, 0)" gradientUnits="objectBoundingBox">
      <stop offset="0.075" stop-color="#fff"/>
      <stop offset="0.616" stop-color="#f0f0f0"/>
      <stop offset="1" stop-color="#ccc"/>
    </radialGradient>
    <linearGradient id="linear-gradient-5" x1="0" y1="0.5" x2="1" y2="0.5" xlink:href="#linear-gradient-2"/>
    <linearGradient id="linear-gradient-6" x1="0" y1="0.5" x2="1" y2="0.5" xlink:href="#linear-gradient-2"/>
    <linearGradient id="linear-gradient-7" x1="0" y1="0.5" x2="1" y2="0.5" xlink:href="#linear-gradient-2"/>
    <linearGradient id="linear-gradient-8" x1="0" y1="0.5" x2="1" y2="0.5" xlink:href="#linear-gradient-2"/>
    <linearGradient id="linear-gradient-11" x1="0" y1="0.5" x2="1" y2="0.5" xlink:href="#linear-gradient-2"/>
    <linearGradient id="linear-gradient-12" x1="0" y1="0.5" x2="1" y2="0.5" xlink:href="#linear-gradient-2"/>
    <linearGradient id="linear-gradient-13" x1="0" y1="0.5" x2="1" y2="0.5" xlink:href="#linear-gradient-2"/>
  </defs>
  <g id="Group_14411" data-name="Group 14411" transform="translate(-115 -3267.475)">
    <path id="Path_16924" data-name="Path 16924" class="cls-1" d="M604.337,64.131H942.854V239.87H604.337c-56.856,0-102.951-39.339-102.951-87.869S547.481,64.131,604.337,64.131Z" transform="translate(-386.386 3239.579)"/>
    <g id="Group_11260" data-name="Group 11260" transform="translate(0 -1)">
      <circle id="Ellipse_218" data-name="Ellipse 218" class="cls-2" cx="87.869" cy="87.869" r="87.869" transform="translate(432 3392.74) rotate(-45)"/>
      <ellipse id="Ellipse_192" data-name="Ellipse 192" class="cls-3" cx="71.487" cy="71.487" rx="71.487" ry="71.487" transform="matrix(-0.159, -0.987, 0.987, -0.159, 497.267, 3473.53)"/>
    </g>
    <ellipse id="Ellipse_193" data-name="Ellipse 193" class="cls-4" cx="64.04" cy="64.04" rx="64.04" ry="64.04" transform="translate(492.429 3327.54)"/>
    <g id="Group_5897" data-name="Group 5897" transform="translate(519.055 3347.112)">
      <path id="Path_16943" data-name="Path 16943" class="cls-2" d="M550.778,85.83a4.283,4.283,0,0,0-7.846-1.029l-.715,1.241a1.427,1.427,0,0,0-1.94.516l-3.622,6.173-1.241-.712a1.426,1.426,0,1,0-1.427,2.469l1.241.712L523.1,116.213l-2.995,8-1.427,2.669a4.272,4.272,0,0,0,.229,4.622l-3.211,3.939-.9-2.254a2.854,2.854,0,0,0-5.092-.4l-.513.872-.487-5.706a2.853,2.853,0,0,0-5.549-.67l-3.508,10.527a1.426,1.426,0,0,0,.9,1.8,1.223,1.223,0,0,0,.441.114,1.428,1.428,0,0,0,1.356-.97l3.495-10.527.5,5.791a2.854,2.854,0,0,0,5.292,1.228l.529-.872.885,2.241a2.852,2.852,0,0,0,4.88.725l3.322-4.207a4.387,4.387,0,0,0,1.127.144,4.284,4.284,0,0,0,3.723-2.113l1.427-2.381,5.435-6.6,12.252-21.27,1.241.712a1.428,1.428,0,0,1,.529,1.957l-5.706,9.887a1.416,1.416,0,1,0,2.411,1.483l5.706-9.887a4.28,4.28,0,0,0-1.568-5.85l-1.241-.712,3.563-6.177a1.422,1.422,0,0,0-.513-1.94l.715-1.241A4.282,4.282,0,0,0,550.778,85.83Zm-5.38.4a1.429,1.429,0,0,1,.872-.67,1.485,1.485,0,0,1,1.081.144,1.407,1.407,0,0,1,.673.869,1.493,1.493,0,0,1-.144,1.084l-.712,1.241-2.482-1.427Zm-19.444,39.829-.712-.415-2.11-1.225L525.157,119l4.491,2.6Zm-4.279,4.122a1.428,1.428,0,0,1-.428-1.868l.715-1.241,2.479,1.427-.712,1.225a1.423,1.423,0,0,1-.928.683A1.44,1.44,0,0,1,521.675,130.179Zm9.6-10.926L526.34,116.4l11.412-19.771,4.935,2.851Zm12.84-22.24-4.935-2.855,2.851-4.935,4.939,2.855Z" transform="translate(-465.329 -65.543)"/>
      <path id="Path_16944" data-name="Path 16944" class="cls-5" d="M503.272,97.229l-5.047,5.037L495.2,99.238a1.429,1.429,0,0,0-2.012,2.028l3.025,3.025a2.879,2.879,0,0,0,4.037,0l5.033-5.053a1.426,1.426,0,0,0-2.012-2.009Z" transform="translate(-480.764 -33.305)"/>
      <path id="Path_16945" data-name="Path 16945" class="cls-6" d="M490.84,106.576a12.124,12.124,0,1,0,24.249,0,1.426,1.426,0,0,0-2.852,0,9.273,9.273,0,1,1-9.273-9.27,9.161,9.161,0,0,1,5.562,1.855,1.427,1.427,0,1,0,1.712-2.283,12.123,12.123,0,0,0-19.4,9.7Z" transform="translate(-485.134 -38.817)"/>
      <path id="Path_16946" data-name="Path 16946" class="cls-7" d="M531.539,82.891a1.426,1.426,0,1,0,0-2.851H494.45a1.426,1.426,0,0,0-1.427,1.424V87.17A1.427,1.427,0,0,0,494.45,88.6h37.089a1.426,1.426,0,1,0,0-2.851H495.878V82.891Z" transform="translate(-480.187 -71.479)"/>
      <path id="Path_16947" data-name="Path 16947" class="cls-8" d="M495.758,83.533a1.427,1.427,0,0,0,0,2.855h28.531a1.427,1.427,0,0,0,0-2.855Z" transform="translate(-477.215 -63.563)"/>
      <path id="Path_16948" data-name="Path 16948" class="cls-7" d="M528.891,86.591H497.505a1.426,1.426,0,0,0,0,2.851h31.386a1.426,1.426,0,0,0,0-2.851Z" transform="translate(-473.256 -56.633)"/>
      <path id="Path_16949" data-name="Path 16949" class="cls-7" d="M523.532,90.638a1.426,1.426,0,0,0-1.424-1.427H493.577a1.427,1.427,0,1,0,0,2.855h28.531A1.426,1.426,0,0,0,523.532,90.638Z" transform="translate(-482.165 -50.695)"/>
      <path id="Path_16950" data-name="Path 16950" class="cls-9" d="M514.044,89.211h-9.985a1.427,1.427,0,1,0,0,2.855h9.985a1.427,1.427,0,0,0,0-2.855Z" transform="translate(-458.41 -50.695)"/>
      <path id="Path_16951" data-name="Path 16951" class="cls-10" d="M507.841,94.246a1.426,1.426,0,1,0,0-2.851H493.577a1.426,1.426,0,1,0,0,2.851Z" transform="translate(-482.165 -45.746)"/>
      <path id="Path_16952" data-name="Path 16952" class="cls-11" d="M499.691,94.246h9.985a1.426,1.426,0,1,0,0-2.851h-9.985a1.426,1.426,0,1,0,0,2.851Z" transform="translate(-468.309 -45.746)"/>
      <path id="Path_16953" data-name="Path 16953" class="cls-2" d="M553.285,143.039a1.429,1.429,0,0,0-1.427,1.427v14.267a1.423,1.423,0,0,1-1.424,1.424H493.372a1.426,1.426,0,0,1-1.427-1.424V81.7a1.426,1.426,0,0,1,1.427-1.424h57.062a1.423,1.423,0,0,1,1.424,1.424v26.79a1.427,1.427,0,0,0,2.855,0V81.7a4.281,4.281,0,0,0-4.279-4.279H493.372a4.279,4.279,0,0,0-4.279,4.279v77.035a4.279,4.279,0,0,0,4.279,4.279h57.062a4.281,4.281,0,0,0,4.279-4.279V144.466A1.429,1.429,0,0,0,553.285,143.039Z" transform="translate(-489.093 -77.419)"/>
    </g>
    <path id="Path_37046" data-name="Path 37046" class="cls-12" d="M15.08.4Q8.4.4,4.82-3.04T1.24-12.68q0-6.52,3.48-10t10.32-3.48a22.862,22.862,0,0,1,4.1.34,24.856,24.856,0,0,1,3.7.98v5.64a18.957,18.957,0,0,0-7.32-1.44q-4,0-5.86,1.92T7.8-12.68q0,3.88,1.94,5.74T15.6-5.08a18.931,18.931,0,0,0,7.28-1.4V-.8A24.056,24.056,0,0,1,15.08.4ZM34.24.4Q23.56.4,23.56-9.48q0-4.8,2.66-7.34t8.02-2.54q5.4,0,8.06,2.52t2.66,7.36Q44.96.4,34.24.4Zm0-5.04a4.014,4.014,0,0,0,3.2-1.12,5.713,5.713,0,0,0,.96-3.72,5.627,5.627,0,0,0-.98-3.72,4.024,4.024,0,0,0-3.18-1.12,3.92,3.92,0,0,0-3.16,1.14,5.725,5.725,0,0,0-.96,3.7,5.713,5.713,0,0,0,.96,3.72A3.958,3.958,0,0,0,34.24-4.64Zm14-14.32h6l.2,1.64a11.17,11.17,0,0,1,3.02-1.46,11.74,11.74,0,0,1,3.66-.58q3.64,0,5.34,1.76t1.7,5.44V0H61.72V-11.64a3.09,3.09,0,0,0-.7-2.28,3.432,3.432,0,0,0-2.42-.68,5.2,5.2,0,0,0-2.12.48,5.9,5.9,0,0,0-1.8,1.2V0H48.24ZM79.84.4A6.841,6.841,0,0,1,74.7-1.36a6.906,6.906,0,0,1-1.7-5v-7.72H70.44v-4.88H73v-3.96l6.44-1.72v5.68h4.6l-.28,4.88H79.44V-6.8a2.38,2.38,0,0,0,.64,1.9,3.215,3.215,0,0,0,2.08.54,7.434,7.434,0,0,0,2.36-.4V-.4A11.986,11.986,0,0,1,79.84.4ZM87-18.96h6.12l.2,1.76a16.385,16.385,0,0,1,3.12-1.38,15.748,15.748,0,0,1,3.64-.78v4.84a27.031,27.031,0,0,0-3.6.7,16.023,16.023,0,0,0-3.04,1.06V0H87ZM106.08.4a7.408,7.408,0,0,1-4.82-1.54,5.361,5.361,0,0,1-1.9-4.42,5.592,5.592,0,0,1,2.02-4.6,9.178,9.178,0,0,1,5.9-1.64h5.28v-.44a2.241,2.241,0,0,0-.98-2.08,7.455,7.455,0,0,0-3.58-.6,20.717,20.717,0,0,0-6.36,1v-4.16a18.628,18.628,0,0,1,3.48-.92,24.126,24.126,0,0,1,4.2-.36q4.52,0,6.96,1.84a6.655,6.655,0,0,1,2.44,5.68V0h-5.64l-.32-1.6Q110.56.4,106.08.4Zm2.04-3.96a5.5,5.5,0,0,0,4.44-1.84V-8.08H108a3.393,3.393,0,0,0-2.14.56,2.07,2.07,0,0,0-.7,1.72Q105.16-3.56,108.12-3.56ZM132,.4q-5.16,0-7.98-2.52T121.2-9.48q0-4.88,2.92-7.38t8-2.5a19.149,19.149,0,0,1,3.62.3,12.594,12.594,0,0,1,2.98.98v4.56a11.94,11.94,0,0,0-5.24-1.08,6.689,6.689,0,0,0-4.32,1.16q-1.4,1.16-1.4,3.96a5,5,0,0,0,1.36,3.9,6.357,6.357,0,0,0,4.32,1.22,11.728,11.728,0,0,0,5.32-1.2V-.8A16.941,16.941,0,0,1,132,.4Zm16.84,0a6.841,6.841,0,0,1-5.14-1.76,6.906,6.906,0,0,1-1.7-5v-7.72h-2.56v-4.88H142v-3.96l6.44-1.72v5.68h4.6l-.28,4.88h-4.32V-6.8a2.38,2.38,0,0,0,.64,1.9,3.215,3.215,0,0,0,2.08.54,7.434,7.434,0,0,0,2.36-.4V-.4A11.986,11.986,0,0,1,148.84.4Z" transform="translate(245.327 3413)"/>
  </g>
</svg>
