<svg xmlns="http://www.w3.org/2000/svg" xmlns:xlink="http://www.w3.org/1999/xlink" width="565.469" height="248.531" viewBox="0 0 565.469 248.531">
  <defs>
    <style>
      .cls-1 {
        opacity: 0.97;
        fill: url(#linear-gradient);
      }

      .cls-2 {
        fill: url(#linear-gradient-2);
      }

      .cls-3 {
        fill: url(#linear-gradient-3);
      }

      .cls-4 {
        fill: url(#radial-gradient);
      }

      .cls-5 {
        fill: url(#linear-gradient-9);
      }

      .cls-6 {
        fill: #fff;
      }
    </style>
    <linearGradient id="linear-gradient" y1="0.5" x2="1" y2="0.5" gradientUnits="objectBoundingBox">
      <stop offset="0" stop-color="#014f74" stop-opacity="0.502"/>
      <stop offset="0.523" stop-color="#024050" stop-opacity="0.8"/>
      <stop offset="1" stop-color="#00313e"/>
    </linearGradient>
    <linearGradient id="linear-gradient-2" y1="0.5" x2="1" y2="0.5" gradientUnits="objectBoundingBox">
      <stop offset="0" stop-color="#90dbff"/>
      <stop offset="0.13" stop-color="#86d3f7"/>
      <stop offset="0.345" stop-color="#6dbfe1"/>
      <stop offset="0.619" stop-color="#449ebe"/>
      <stop offset="0.938" stop-color="#0b718f"/>
      <stop offset="1" stop-color="#006885"/>
    </linearGradient>
    <linearGradient id="linear-gradient-3" y1="0.5" x2="1" y2="0.5" gradientUnits="objectBoundingBox">
      <stop offset="0" stop-color="#f2f2f2"/>
      <stop offset="1" stop-color="#fff"/>
    </linearGradient>
    <radialGradient id="radial-gradient" cx="0.401" cy="0.419" r="0.647" gradientTransform="translate(0)" gradientUnits="objectBoundingBox">
      <stop offset="0.075" stop-color="#fff"/>
      <stop offset="0.616" stop-color="#f0f0f0"/>
      <stop offset="1" stop-color="#ccc"/>
    </radialGradient>
    <linearGradient id="linear-gradient-9" x1="-0.207" y1="0.5" x2="1.207" y2="0.5" xlink:href="#linear-gradient-2"/>
  </defs>
  <g id="Group_14415" data-name="Group 14415" transform="translate(-1239 -3268.475)">
    <g id="Group_14414" data-name="Group 14414">
      <path id="Path_37045" data-name="Path 37045" class="cls-1" d="M839.9,64.131H501.386V239.87H839.9c56.856,0,102.951-39.339,102.951-87.87S896.759,64.131,839.9,64.131Z" transform="translate(861.614 3240.579)"/>
      <g id="Group_11259" data-name="Group 11259">
        <circle id="Ellipse_194" data-name="Ellipse 194" class="cls-2" cx="87.869" cy="87.869" r="87.869" transform="translate(1239 3392.74) rotate(-45)"/>
        <ellipse id="Ellipse_195" data-name="Ellipse 195" class="cls-3" cx="71.487" cy="71.487" rx="71.487" ry="71.487" transform="translate(1291.779 3321.253)"/>
        <ellipse id="Ellipse_196" data-name="Ellipse 196" class="cls-4" cx="64.04" cy="64.04" rx="64.04" ry="64.04" transform="translate(1299.225 3328.7)"/>
        <g id="Consult-Talk" transform="translate(1321.651 3347.631)">
          <rect id="Rectangle_84" data-name="Rectangle 84" class="cls-2" width="2.853" height="2.854" transform="translate(19.975 33.273)"/>
          <rect id="Rectangle_85" data-name="Rectangle 85" class="cls-2" width="2.853" height="2.854" transform="translate(34.243 33.273)"/>
          <path id="Path_16954" data-name="Path 16954" class="cls-2" d="M585.026,340.87l-5.572-.794a20.5,20.5,0,0,0-.937-2.283l3.371-4.5a1.428,1.428,0,0,0-.131-1.865l-6.056-6.056a1.419,1.419,0,0,0-.862-.4V311.238a11.427,11.427,0,0,0,4.279-8.9,11.3,11.3,0,0,0-6.526-10.308,1.426,1.426,0,0,0-1.9.683,1.4,1.4,0,0,0-.137.607v7.989l-2.855.954-2.851-.954v-7.989a1.427,1.427,0,0,0-2.038-1.284,11.4,11.4,0,0,0-2.244,19.206v9.642h-4.279a1.431,1.431,0,0,0-1.414,1.225l-.921,6.464,2.825.4.748-5.236h6.085l.748,5.236a1.429,1.429,0,0,0,1.012,1.169,16.823,16.823,0,0,1,3.423,1.408,1.433,1.433,0,0,0,1.545-.111l4.223-3.168,4.3,4.3-3.175,4.223a1.428,1.428,0,0,0-.111,1.542,17.121,17.121,0,0,1,1.408,3.426,1.428,1.428,0,0,0,1.166,1.012l5.239.748v6.085l-5.239.748a1.434,1.434,0,0,0-1.166,1.013,17.121,17.121,0,0,1-1.408,3.426,1.428,1.428,0,0,0,.111,1.542l3.165,4.223-4.3,4.3-4.223-3.181a1.428,1.428,0,0,0-1.542-.108,17.07,17.07,0,0,1-3.423,1.408,1.424,1.424,0,0,0-1.013,1.166l-.745,5.239h-5.9v-6.033a15.89,15.89,0,0,0-.643-4.452,13,13,0,1,0-9.123-10.077l-.1-.046-11.536-4.612v-2.2A15.758,15.758,0,0,0,541.278,338h3.6a4.28,4.28,0,0,0,4.282-4.279v-3.116a4.279,4.279,0,0,0,2.852-4.018v-4.282a4.279,4.279,0,0,0-2.852-4.018V316.6a19.975,19.975,0,0,0-39.95,0v1.689a4.286,4.286,0,0,0-2.855,4.018v4.282a4.28,4.28,0,0,0,4.282,4.279h2.851c.091,0,.18-.013.271-.02a15.727,15.727,0,0,0,8.29,11.128v2.2l-11.533,4.612a15.624,15.624,0,0,0-9.867,14.574v13.166a1.427,1.427,0,0,0,1.427,1.427h54.217a1.427,1.427,0,0,0,1.427-1.427v-4.279h7.134a1.427,1.427,0,0,0,1.411-1.225l.8-5.576a19.256,19.256,0,0,0,2.283-.937l4.5,3.374a1.428,1.428,0,0,0,1.865-.134l6.052-6.052a1.428,1.428,0,0,0,.134-1.865l-3.374-4.5a19.852,19.852,0,0,0,.937-2.283l5.575-.794a1.427,1.427,0,0,0,1.222-1.411v-8.561A1.428,1.428,0,0,0,585.026,340.87Zm-15.694-12.252c-.065-.033-.141-.056-.209-.085V310.9h-2.845v11.314l-.016-.1a1.427,1.427,0,0,0-1.411-1.225h-1.427V310.523a1.422,1.422,0,0,0-.611-1.169,8.563,8.563,0,0,1-2.136-11.919A8.677,8.677,0,0,1,562,295.945v6.389a1.422,1.422,0,0,0,.977,1.352l4.279,1.427a1.42,1.42,0,0,0,.9,0l4.282-1.427a1.426,1.426,0,0,0,.976-1.352v-6.389a8.565,8.565,0,0,1-.817,13.411,1.421,1.421,0,0,0-.611,1.166v16.113Zm-18.748,17.945a10.062,10.062,0,1,1,4.756,8.476,15.608,15.608,0,0,0-3.727-4.1A9.726,9.726,0,0,1,550.583,346.563Zm-5.71-11.412h-1.731a15.578,15.578,0,0,0,1.463-4.3c.088,0,.177.02.268.02H546.3v2.855A1.427,1.427,0,0,1,544.874,335.15Zm-2.851-15.694a4.307,4.307,0,0,1-3.426-1.712l-2.567-3.426A1.427,1.427,0,0,0,534,314.06l-4.788,3.825a7.163,7.163,0,0,1-4.452,1.571H516.34v-1.427a12.841,12.841,0,1,1,25.683,0Zm7.134,7.134a1.429,1.429,0,0,1-1.427,1.427h-2.855V320.88h2.855a1.429,1.429,0,0,1,1.427,1.427Zm-19.976-27.11A17.139,17.139,0,0,1,546.3,316.6v1.427h-1.427a15.694,15.694,0,1,0-31.389,0h-1.424V316.6A17.138,17.138,0,0,1,529.179,299.479Zm-18.546,28.537a1.427,1.427,0,0,1-1.427-1.427v-4.282a1.427,1.427,0,0,1,1.427-1.427h2.851v7.137Zm5.706,0v-5.71h8.417A10.021,10.021,0,0,0,531,320.119l3.639-2.91,1.679,2.247a7.173,7.173,0,0,0,5.709,2.851v5.71a12.789,12.789,0,0,1-2.172,7.134H529.179V338h8.055a12.826,12.826,0,0,1-20.894-9.985Zm12.84,15.694a15.559,15.559,0,0,0,4.282-.611v2.035a4.28,4.28,0,1,1-8.561,0V343.1A15.552,15.552,0,0,0,529.179,343.711ZM554.862,375.1H546.3V359.406H543.45V375.1H514.912V359.406h-2.851V375.1H503.5V363.358a12.772,12.772,0,0,1,8.071-11.922l10.792-4.318a7.088,7.088,0,0,0,13.637,0l10.792,4.318a12.777,12.777,0,0,1,8.071,11.922Z" transform="translate(-500.645 -291.889)"/>
          <rect id="Rectangle_86" data-name="Rectangle 86" class="cls-2" width="2.853" height="2.853" transform="translate(58.498 34.7)"/>
          <rect id="Rectangle_87" data-name="Rectangle 87" class="cls-2" width="2.853" height="2.854" transform="translate(58.498 71.795)"/>
          <rect id="Rectangle_88" data-name="Rectangle 88" class="cls-5" width="2.854" height="2.854" transform="translate(71.021 67.79) rotate(-45)"/>
          <rect id="Rectangle_89" data-name="Rectangle 89" class="cls-2" width="2.853" height="2.853" transform="translate(77.046 53.248)"/>
          <rect id="Rectangle_90" data-name="Rectangle 90" class="cls-5" width="2.854" height="2.854" transform="matrix(0.707, -0.707, 0.707, 0.707, 71.021, 41.559)"/>
        </g>
      </g>
      <path id="Path_37047" data-name="Path 37047" class="cls-6" d="M2.04-25.76H13.2q6.04,0,9.06,3.08t3.02,9.96q0,6.52-3.02,9.62T13.2,0H2.04ZM12.32-4.96a8.534,8.534,0,0,0,3.6-.64A4.281,4.281,0,0,0,18-7.92a12.611,12.611,0,0,0,.72-4.8,14.339,14.339,0,0,0-.66-4.9,4.377,4.377,0,0,0-2.04-2.46,8.042,8.042,0,0,0-3.7-.72H8.48V-4.96ZM29.84-26.8h7v4.84h-7Zm.52,12.6h-2.8l.56-4.76H36.8V0H30.36ZM47.96.4A27.6,27.6,0,0,1,43.68.08a16.365,16.365,0,0,1-3.28-.8V-5.64a16.2,16.2,0,0,0,3.18.9,18.3,18.3,0,0,0,3.34.34,12.168,12.168,0,0,0,2.58-.18.823.823,0,0,0,.7-.86,1.057,1.057,0,0,0-.68-.92,15.111,15.111,0,0,0-2.4-.88L45.4-7.8a10.423,10.423,0,0,1-4.04-2.22,4.832,4.832,0,0,1-1.24-3.54q0-5.8,8.8-5.8a23.788,23.788,0,0,1,3.48.26,17.693,17.693,0,0,1,2.96.66v4.84a11.065,11.065,0,0,0-2.5-.74,14.813,14.813,0,0,0-2.66-.26,12.866,12.866,0,0,0-2.64.2q-.88.2-.88.84a.859.859,0,0,0,.56.82A19.154,19.154,0,0,0,49.4-12q.8.2,1.64.48a14.722,14.722,0,0,1,3.48,1.46A4.575,4.575,0,0,1,56.28-8.2a6.262,6.262,0,0,1,.52,2.72A4.927,4.927,0,0,1,54.54-1.1,11.924,11.924,0,0,1,47.96.4ZM60.08-18.96h5.6L66-17.32a9.081,9.081,0,0,1,5.96-2.04q8.76,0,8.76,9.48,0,5.04-2.4,7.66A8.6,8.6,0,0,1,71.64.4,9.975,9.975,0,0,1,66.52-.84V8.64H60.08ZM70-4.32a3.608,3.608,0,0,0,3.1-1.44A7.1,7.1,0,0,0,74.16-10q0-2.64-.94-3.64a4.1,4.1,0,0,0-3.1-1,5.149,5.149,0,0,0-3.6,1.44v7.68a6.61,6.61,0,0,0,1.58.9A5.31,5.31,0,0,0,70-4.32ZM89.92.4A7.408,7.408,0,0,1,85.1-1.14a5.361,5.361,0,0,1-1.9-4.42,5.592,5.592,0,0,1,2.02-4.6,9.178,9.178,0,0,1,5.9-1.64H96.4v-.44a2.241,2.241,0,0,0-.98-2.08,7.455,7.455,0,0,0-3.58-.6,20.717,20.717,0,0,0-6.36,1v-4.16A18.628,18.628,0,0,1,88.96-19a24.126,24.126,0,0,1,4.2-.36q4.52,0,6.96,1.84a6.655,6.655,0,0,1,2.44,5.68V0H96.92L96.6-1.6Q94.4.4,89.92.4Zm2.04-3.96A5.5,5.5,0,0,0,96.4-5.4V-8.08H91.84a3.393,3.393,0,0,0-2.14.56A2.07,2.07,0,0,0,89-5.8Q89-3.56,91.96-3.56ZM113.24.4a6.841,6.841,0,0,1-5.14-1.76,6.906,6.906,0,0,1-1.7-5v-7.72h-2.56v-4.88h2.56v-3.96l6.44-1.72v5.68h4.6l-.28,4.88h-4.32V-6.8a2.38,2.38,0,0,0,.64,1.9,3.215,3.215,0,0,0,2.08.54,7.434,7.434,0,0,0,2.36-.4V-.4A11.986,11.986,0,0,1,113.24.4ZM130.2.4q-5.16,0-7.98-2.52T119.4-9.48q0-4.88,2.92-7.38t8-2.5a19.149,19.149,0,0,1,3.62.3,12.594,12.594,0,0,1,2.98.98v4.56a11.94,11.94,0,0,0-5.24-1.08,6.689,6.689,0,0,0-4.32,1.16q-1.4,1.16-1.4,3.96a5,5,0,0,0,1.36,3.9,6.357,6.357,0,0,0,4.32,1.22,11.728,11.728,0,0,0,5.32-1.2V-.8A16.941,16.941,0,0,1,130.2.4Zm10.04-27.36h6.44v9.4a9.549,9.549,0,0,1,2.72-1.3,11.336,11.336,0,0,1,3.4-.5q3.8,0,5.58,1.8t1.78,5.52V0h-6.44V-11.6a3.155,3.155,0,0,0-.7-2.32,3.432,3.432,0,0,0-2.42-.68,5.2,5.2,0,0,0-2.12.48,5.9,5.9,0,0,0-1.8,1.2V0h-6.44Z" transform="translate(1518 3411.972)"/>
    </g>
  </g>
</svg>
