<svg xmlns="http://www.w3.org/2000/svg" xmlns:xlink="http://www.w3.org/1999/xlink" width="565.531" height="248.531" viewBox="0 0 565.531 248.531">
  <defs>
    <style>
      .cls-1 {
        opacity: 0.97;
        fill: url(#linear-gradient);
      }

      .cls-2 {
        fill: url(#linear-gradient-2);
      }

      .cls-3 {
        fill: url(#linear-gradient-3);
      }

      .cls-4 {
        fill: url(#radial-gradient);
      }

      .cls-5 {
        fill: url(#linear-gradient-4);
      }

      .cls-6 {
        fill: url(#linear-gradient-5);
      }

      .cls-7 {
        fill: url(#linear-gradient-7);
      }

      .cls-8 {
        fill: url(#linear-gradient-8);
      }

      .cls-9 {
        fill: url(#linear-gradient-9);
      }

      .cls-10 {
        fill: #fff;
      }
    </style>
    <linearGradient id="linear-gradient" x1="1" y1="0.5" x2="0" y2="0.5" gradientUnits="objectBoundingBox">
      <stop offset="0" stop-color="#014f74" stop-opacity="0.502"/>
      <stop offset="0.523" stop-color="#024050" stop-opacity="0.8"/>
      <stop offset="1" stop-color="#00313e"/>
    </linearGradient>
    <linearGradient id="linear-gradient-2" y1="0.5" x2="1" y2="0.5" gradientUnits="objectBoundingBox">
      <stop offset="0" stop-color="#90dbff"/>
      <stop offset="0.13" stop-color="#86d3f7"/>
      <stop offset="0.345" stop-color="#6dbfe1"/>
      <stop offset="0.619" stop-color="#449ebe"/>
      <stop offset="0.938" stop-color="#0b718f"/>
      <stop offset="1" stop-color="#006885"/>
    </linearGradient>
    <linearGradient id="linear-gradient-3" x1="-1.546" y1="0.5" x2="-0.546" y2="0.5" gradientUnits="objectBoundingBox">
      <stop offset="0" stop-color="#f2f2f2"/>
      <stop offset="1" stop-color="#fff"/>
    </linearGradient>
    <radialGradient id="radial-gradient" cx="0.599" cy="0.419" r="0.647" gradientTransform="matrix(-1, 0, 0, 1, -2.65, 0)" gradientUnits="objectBoundingBox">
      <stop offset="0.075" stop-color="#fff"/>
      <stop offset="0.616" stop-color="#f0f0f0"/>
      <stop offset="1" stop-color="#ccc"/>
    </radialGradient>
    <linearGradient id="linear-gradient-4" x1="0" y1="0.5" x2="1" y2="0.5" xlink:href="#linear-gradient-2"/>
    <linearGradient id="linear-gradient-5" x1="0" y1="0.5" x2="1" y2="0.5" xlink:href="#linear-gradient-2"/>
    <linearGradient id="linear-gradient-7" x1="0" y1="0.5" x2="1" y2="0.5" xlink:href="#linear-gradient-2"/>
    <linearGradient id="linear-gradient-8" x1="0" y1="0.5" x2="1" y2="0.5" xlink:href="#linear-gradient-2"/>
    <linearGradient id="linear-gradient-9" x1="0" y1="0.5" x2="1" y2="0.5" xlink:href="#linear-gradient-2"/>
  </defs>
  <g id="Group_14412" data-name="Group 14412" transform="translate(-115 -3759.475)">
    <path id="Path_37043" data-name="Path 37043" class="cls-1" d="M604.337,64.131H942.854V239.87H604.337c-56.856,0-102.951-39.339-102.951-87.869S547.481,64.131,604.337,64.131Z" transform="translate(-386.386 3731.579)"/>
    <g id="Group_11258" data-name="Group 11258">
      <circle id="Ellipse_219" data-name="Ellipse 219" class="cls-2" cx="87.869" cy="87.869" r="87.869" transform="translate(432 3883.74) rotate(-45)"/>
      <ellipse id="Ellipse_201" data-name="Ellipse 201" class="cls-3" cx="71.487" cy="71.487" rx="71.487" ry="71.487" transform="translate(484.307 3812.253)"/>
      <ellipse id="Ellipse_202" data-name="Ellipse 202" class="cls-4" cx="64.04" cy="64.04" rx="64.04" ry="64.04" transform="translate(491.753 3819.7)"/>
      <g id="Group_5898" data-name="Group 5898" transform="translate(512.068 3840.923)">
        <path id="Path_16955" data-name="Path 16955" class="cls-5" d="M239.671,298.051a1.783,1.783,0,1,0,1.783,1.783A1.786,1.786,0,0,0,239.671,298.051Z" transform="translate(-194.015 -280.217)"/>
        <path id="Path_16956" data-name="Path 16956" class="cls-6" d="M230.607,310.355a1.783,1.783,0,1,0-1.783-1.783A1.784,1.784,0,0,0,230.607,310.355Z" transform="translate(-214.557 -260.417)"/>
        <path id="Path_16957" data-name="Path 16957" class="cls-2" d="M284.379,292.591c-16.054,0-29.233,11.069-30.252,25.013-15.289.768-29.671,11.794-29.671,26.708a24.9,24.9,0,0,0,6.957,17.053,10.849,10.849,0,0,1-2.868,10.22,1.784,1.784,0,0,0,1.261,3.044,19.676,19.676,0,0,0,13.63-5.51,40.571,40.571,0,0,0,12.409,1.943c16.054,0,29.23-11.066,30.252-25.007a40.064,40.064,0,0,0,10.691-1.9,19.675,19.675,0,0,0,13.63,5.51,1.782,1.782,0,0,0,1.261-3.044,10.85,10.85,0,0,1-2.864-10.22,24.923,24.923,0,0,0,6.954-17.056C315.768,303.846,300.283,292.591,284.379,292.591ZM255.845,367.5a36.087,36.087,0,0,1-12.219-2.1,1.786,1.786,0,0,0-1.976.451,16.052,16.052,0,0,1-8,4.749,14.427,14.427,0,0,0,1.088-10.612,1.8,1.8,0,0,0-.438-.754,21.432,21.432,0,0,1-6.274-14.914c0-12.569,12.742-23.187,27.822-23.187,14.241,0,26.751,9.9,26.751,23.187C282.6,357.1,270.6,367.5,255.845,367.5Zm50.082-33.241a1.774,1.774,0,0,0-.434.755,14.419,14.419,0,0,0,1.088,10.615,16.085,16.085,0,0,1-8.006-4.749,1.787,1.787,0,0,0-1.976-.454,35.041,35.041,0,0,1-10.508,2.061,25.514,25.514,0,0,0-9.636-17.788h23.262a1.785,1.785,0,0,0,0-3.57h-28.74a33.374,33.374,0,0,0-13.274-3.514c1.026-11.977,12.6-21.453,26.676-21.453,15.084,0,27.822,10.619,27.822,23.184A21.42,21.42,0,0,1,305.927,334.255Z" transform="translate(-224.456 -292.591)"/>
        <path id="Path_16958" data-name="Path 16958" class="cls-7" d="M255.263,306.788H232.791a1.783,1.783,0,0,0,0,3.567h22.472a1.783,1.783,0,0,0,0-3.567Z" transform="translate(-209.607 -260.417)"/>
        <path id="Path_16959" data-name="Path 16959" class="cls-8" d="M260.213,310.064H230.607a1.783,1.783,0,0,0,0,3.567h29.606a1.783,1.783,0,0,0,0-3.567Z" transform="translate(-214.557 -252.992)"/>
        <path id="Path_16960" data-name="Path 16960" class="cls-9" d="M264.327,298.051H241.855a1.783,1.783,0,0,0,0,3.567h22.472a1.783,1.783,0,0,0,0-3.567Z" transform="translate(-189.066 -280.217)"/>
      </g>
    </g>
    <g id="Group_11203" data-name="Group 11203" transform="translate(-15.724 -28)">
      <path id="Path_37048" data-name="Path 37048" class="cls-10" d="M2.04-25.76H14.92q4.44,0,6.66,2.34a9.065,9.065,0,0,1,2.22,6.5,8.058,8.058,0,0,1-1.3,4.56,7.8,7.8,0,0,1-3.62,2.92,4.452,4.452,0,0,1,.86.96,11.014,11.014,0,0,1,.78,1.52L23.56,0H16.84L13.96-6.56a2.57,2.57,0,0,0-.92-1.24,2.963,2.963,0,0,0-1.6-.36H8.48V0H2.04Zm11.2,12.64a4.206,4.206,0,0,0,2.96-.96,3.676,3.676,0,0,0,1.04-2.84q0-3.88-3.72-3.88H8.48v7.68ZM35.44.4q-5.08,0-8.02-2.52T24.48-9.48a9.992,9.992,0,0,1,2.54-7.26q2.54-2.62,7.38-2.62a9.886,9.886,0,0,1,6.96,2.32,8.069,8.069,0,0,1,2.52,6.24v3.4H30.44a3.671,3.671,0,0,0,2,2.6,10.508,10.508,0,0,0,4.48.76,18.65,18.65,0,0,0,3.18-.28,13.23,13.23,0,0,0,2.7-.72v4.2A18.033,18.033,0,0,1,35.44.4Zm2.84-11.52v-.84Q38.28-15,34.6-15a4.533,4.533,0,0,0-3.22.92,4,4,0,0,0-.94,2.96ZM57.16.4Q52,.4,49.18-2.12T46.36-9.48q0-4.88,2.92-7.38t8-2.5a19.149,19.149,0,0,1,3.62.3,12.594,12.594,0,0,1,2.98.98v4.56a11.94,11.94,0,0,0-5.24-1.08,6.689,6.689,0,0,0-4.32,1.16q-1.4,1.16-1.4,3.96a5,5,0,0,0,1.36,3.9A6.357,6.357,0,0,0,58.6-4.36a11.728,11.728,0,0,0,5.32-1.2V-.8A16.941,16.941,0,0,1,57.16.4ZM75.68.4Q65,.4,65-9.48q0-4.8,2.66-7.34t8.02-2.54q5.4,0,8.06,2.52T86.4-9.48Q86.4.4,75.68.4Zm0-5.04a4.014,4.014,0,0,0,3.2-1.12,5.713,5.713,0,0,0,.96-3.72,5.627,5.627,0,0,0-.98-3.72,4.024,4.024,0,0,0-3.18-1.12,3.92,3.92,0,0,0-3.16,1.14,5.725,5.725,0,0,0-.96,3.7,5.713,5.713,0,0,0,.96,3.72A3.958,3.958,0,0,0,75.68-4.64Zm14-14.32h6l.2,1.64a11.17,11.17,0,0,1,3.02-1.46,11.74,11.74,0,0,1,3.66-.58q3.64,0,5.34,1.76t1.7,5.44V0h-6.44V-11.64a3.09,3.09,0,0,0-.7-2.28,3.432,3.432,0,0,0-2.42-.68,5.2,5.2,0,0,0-2.12.48,5.9,5.9,0,0,0-1.8,1.2V0H89.68ZM123.48.4q-5.16,0-7.98-2.52t-2.82-7.36q0-4.88,2.92-7.38t8-2.5a19.149,19.149,0,0,1,3.62.3,12.594,12.594,0,0,1,2.98.98v4.56a11.94,11.94,0,0,0-5.24-1.08,6.689,6.689,0,0,0-4.32,1.16q-1.4,1.16-1.4,3.96a5,5,0,0,0,1.36,3.9,6.357,6.357,0,0,0,4.32,1.22,11.728,11.728,0,0,0,5.32-1.2V-.8A16.941,16.941,0,0,1,123.48.4ZM135.8-26.8h7v4.84h-7Zm.52,12.6h-2.8l.56-4.76h8.68V0h-6.44ZM152.72.4q-3.12,0-4.48-1.36a5.974,5.974,0,0,1-1.36-4.36V-26.96h6.44v21a1.714,1.714,0,0,0,.36,1.26,1.652,1.652,0,0,0,1.16.34,6.063,6.063,0,0,0,1.92-.28V-.28a10.582,10.582,0,0,1-1.86.52A12.683,12.683,0,0,1,152.72.4Zm6.96-27.2h7v4.84h-7Zm.52,12.6h-2.8l.56-4.76h8.68V0H160.2ZM176.68.4a7.408,7.408,0,0,1-4.82-1.54,5.361,5.361,0,0,1-1.9-4.42,5.592,5.592,0,0,1,2.02-4.6,9.178,9.178,0,0,1,5.9-1.64h5.28v-.44a2.241,2.241,0,0,0-.98-2.08,7.455,7.455,0,0,0-3.58-.6,20.717,20.717,0,0,0-6.36,1v-4.16a18.628,18.628,0,0,1,3.48-.92,24.126,24.126,0,0,1,4.2-.36q4.52,0,6.96,1.84a6.655,6.655,0,0,1,2.44,5.68V0h-5.64l-.32-1.6Q181.16.4,176.68.4Zm2.04-3.96a5.5,5.5,0,0,0,4.44-1.84V-8.08H178.6a3.393,3.393,0,0,0-2.14.56,2.07,2.07,0,0,0-.7,1.72Q175.76-3.56,178.72-3.56ZM200,.4a6.841,6.841,0,0,1-5.14-1.76,6.906,6.906,0,0,1-1.7-5v-7.72H190.6v-4.88h2.56v-3.96l6.44-1.72v5.68h4.6l-.28,4.88H199.6V-6.8a2.38,2.38,0,0,0,.64,1.9,3.215,3.215,0,0,0,2.08.54,7.434,7.434,0,0,0,2.36-.4V-.4A11.986,11.986,0,0,1,200,.4Zm9.44-27.2h7v4.84h-7Zm.52,12.6h-2.8l.56-4.76h8.68V0h-6.44ZM230.4.4q-10.68,0-10.68-9.88,0-4.8,2.66-7.34t8.02-2.54q5.4,0,8.06,2.52t2.66,7.36Q241.12.4,230.4.4Zm0-5.04a4.014,4.014,0,0,0,3.2-1.12,5.713,5.713,0,0,0,.96-3.72,5.627,5.627,0,0,0-.98-3.72,4.024,4.024,0,0,0-3.18-1.12,3.92,3.92,0,0,0-3.16,1.14,5.725,5.725,0,0,0-.96,3.7,5.713,5.713,0,0,0,.96,3.72A3.958,3.958,0,0,0,230.4-4.64Zm14-14.32h6l.2,1.64a11.17,11.17,0,0,1,3.02-1.46,11.74,11.74,0,0,1,3.66-.58q3.64,0,5.34,1.76t1.7,5.44V0h-6.44V-11.64a3.09,3.09,0,0,0-.7-2.28,3.432,3.432,0,0,0-2.42-.68,5.2,5.2,0,0,0-2.12.48,5.9,5.9,0,0,0-1.8,1.2V0H244.4Z" transform="translate(182.052 3926)"/>
    </g>
  </g>
</svg>
