<svg xmlns="http://www.w3.org/2000/svg" xmlns:xlink="http://www.w3.org/1999/xlink" width="527.736" height="163.166" viewBox="0 0 527.736 163.166">
  <defs>
    <linearGradient id="linear-gradient" x1="0.104" y1="0.5" x2="1.104" y2="0.5" gradientUnits="objectBoundingBox">
      <stop offset="0" stop-color="#006885"/>
      <stop offset="0.138" stop-color="#00607b"/>
      <stop offset="0.366" stop-color="#004c62"/>
      <stop offset="0.656" stop-color="#002c39"/>
      <stop offset="0.995"/>
      <stop offset="1"/>
    </linearGradient>
    <linearGradient id="linear-gradient-2" x1="-2.008" y1="0.5" x2="-1.008" y2="0.5" gradientUnits="objectBoundingBox">
      <stop offset="0" stop-color="#90dbff"/>
      <stop offset="0.13" stop-color="#86d3f7"/>
      <stop offset="0.345" stop-color="#6dbfe1"/>
      <stop offset="0.619" stop-color="#449ebe"/>
      <stop offset="0.938" stop-color="#0b718f"/>
      <stop offset="1" stop-color="#006885"/>
    </linearGradient>
    <linearGradient id="linear-gradient-3" x1="-2.299" y1="0.5" x2="-1.299" y2="0.5" gradientUnits="objectBoundingBox">
      <stop offset="0" stop-color="#f2f2f2"/>
      <stop offset="1" stop-color="#fff"/>
    </linearGradient>
    <radialGradient id="radial-gradient" cx="0.5" cy="0.5" r="0.54" gradientTransform="matrix(-0.866, 0, 0, 1, -3.733, 0)" gradientUnits="objectBoundingBox">
      <stop offset="0.075" stop-color="#fff"/>
      <stop offset="0.616" stop-color="#f0f0f0"/>
      <stop offset="1" stop-color="#ccc"/>
    </radialGradient>
    <linearGradient id="linear-gradient-4" x1="0" x2="1" xlink:href="#linear-gradient-2"/>
    <linearGradient id="linear-gradient-5" x1="0" x2="1" xlink:href="#linear-gradient-2"/>
    <linearGradient id="linear-gradient-6" x1="0" x2="1" xlink:href="#linear-gradient-2"/>
    <linearGradient id="linear-gradient-7" x1="0" x2="1" xlink:href="#linear-gradient-2"/>
    <linearGradient id="linear-gradient-9" x1="0" x2="1" xlink:href="#linear-gradient-2"/>
  </defs>
  <g id="Group_11203" data-name="Group 11203" transform="translate(-150.724 -3830)">
    <g id="Group_5999" data-name="Group 5999" transform="translate(150.724 3840)" opacity="0.6">
      <path id="Path_17013" data-name="Path 17013" d="M118.036,291.665H478.418l41.136,71.249-41.136,71.249H118.036L76.9,362.915Z" transform="translate(-76.9 -291.665)" fill="url(#linear-gradient)"/>
    </g>
    <g id="Group_6000" data-name="Group 6000" transform="translate(490.053 3830)">
      <path id="Path_17014" data-name="Path 17014" d="M243.863,288.015h94.2l47.1,81.583-47.1,81.583h-94.2l-47.1-81.583Z" transform="translate(-196.761 -288.015)" fill="url(#linear-gradient-2)"/>
      <path id="Path_17015" data-name="Path 17015" d="M242.112,291.665h82.272l41.136,71.249-41.136,71.249H242.112l-41.136-71.249Z" transform="translate(-189.044 -281.332)" fill="url(#linear-gradient-3)"/>
      <path id="Path_17016" data-name="Path 17016" d="M241.139,293.693h75.643L354.6,359.2,316.782,424.71H241.139L203.318,359.2Z" transform="translate(-184.757 -277.619)" fill="url(#radial-gradient)"/>
    </g>
    <text id="Reconciliation" transform="translate(182.052 3926)" fill="#fff" font-size="40" font-family="Montserrat-Bold, Montserrat" font-weight="700"><tspan x="0" y="0">Reconciliation</tspan></text>
    <g id="Group_6026" data-name="Group 6026" transform="translate(544.685 3876)">
      <path id="Path_17022" data-name="Path 17022" d="M231.037,309.735a1.546,1.546,0,1,0,1.546,1.546A1.546,1.546,0,0,0,231.037,309.735Z" transform="translate(-191.465 -294.275)" fill="url(#linear-gradient-4)"/>
      <path id="Path_17023" data-name="Path 17023" d="M221.973,321.562a1.546,1.546,0,1,0-1.546-1.546A1.546,1.546,0,0,0,221.973,321.562Z" transform="translate(-208.061 -278.279)" fill="url(#linear-gradient-5)"/>
      <path id="Path_17024" data-name="Path 17024" d="M268,304.274c-13.914,0-25.338,9.6-26.221,21.68-13.255.665-25.717,10.223-25.717,23.149a21.607,21.607,0,0,0,6.027,14.783,9.4,9.4,0,0,1-2.483,8.855,1.546,1.546,0,0,0,1.093,2.638,17.05,17.05,0,0,0,11.814-4.773,35.25,35.25,0,0,0,10.755,1.682c13.914,0,25.335-9.591,26.221-21.674a34.739,34.739,0,0,0,9.266-1.651,17.054,17.054,0,0,0,11.814,4.776,1.545,1.545,0,0,0,1.093-2.639,9.4,9.4,0,0,1-2.483-8.858,21.6,21.6,0,0,0,6.027-14.781C295.2,314.03,281.781,304.274,268,304.274ZM243.265,369.2a31.276,31.276,0,0,1-10.591-1.823,1.545,1.545,0,0,0-1.713.394,13.955,13.955,0,0,1-6.936,4.116,12.513,12.513,0,0,0,.943-9.2,1.557,1.557,0,0,0-.379-.654A18.57,18.57,0,0,1,219.15,349.1c0-10.894,11.044-20.095,24.115-20.095,12.343,0,23.186,8.584,23.186,20.095C266.451,360.184,256.05,369.2,243.265,369.2Zm43.408-28.808a1.521,1.521,0,0,0-.377.654,12.492,12.492,0,0,0,.943,9.2,13.92,13.92,0,0,1-6.939-4.116,1.547,1.547,0,0,0-1.713-.391,30.378,30.378,0,0,1-9.107,1.784,22.114,22.114,0,0,0-8.351-15.418h20.162a1.546,1.546,0,0,0,0-3.091H256.378a28.808,28.808,0,0,0-11.5-3.046c.889-10.384,10.919-18.6,23.121-18.6,13.074,0,24.115,9.2,24.115,20.1A18.576,18.576,0,0,1,286.673,340.389Z" transform="translate(-216.059 -304.274)" fill="url(#linear-gradient-6)"/>
      <path id="Path_17025" data-name="Path 17025" d="M243.634,318.471H224.157a1.546,1.546,0,1,0,0,3.091h19.477a1.546,1.546,0,1,0,0-3.091Z" transform="translate(-204.062 -278.279)" fill="url(#linear-gradient-7)"/>
      <path id="Path_17026" data-name="Path 17026" d="M247.633,321.747h-25.66a1.546,1.546,0,1,0,0,3.091h25.66a1.546,1.546,0,0,0,0-3.091Z" transform="translate(-208.061 -272.281)" fill="url(#linear-gradient-6)"/>
      <path id="Path_17027" data-name="Path 17027" d="M252.7,309.735H233.221a1.546,1.546,0,0,0,0,3.092H252.7a1.546,1.546,0,0,0,0-3.092Z" transform="translate(-187.466 -294.275)" fill="url(#linear-gradient-9)"/>
    </g>
  </g>
</svg>
