<svg xmlns="http://www.w3.org/2000/svg" xmlns:xlink="http://www.w3.org/1999/xlink" width="415.002" height="331.192" viewBox="0 0 415.002 331.192">
  <defs>
    <filter id="Ellipse_216" x="62.169" y="76.894" width="352.833" height="254.298" filterUnits="userSpaceOnUse">
      <feOffset dy="3" input="SourceAlpha"/>
      <feGaussianBlur stdDeviation="6" result="blur"/>
      <feFlood/>
      <feComposite operator="in" in2="blur"/>
      <feComposite in="SourceGraphic"/>
    </filter>
  </defs>
  <g id="Group_11354" data-name="Group 11354" transform="translate(-639 -5033.667)">
    <g transform="matrix(1, 0, 0, 1, 639, 5033.67)" filter="url(#Ellipse_216)">
      <ellipse id="Ellipse_216-2" data-name="Ellipse 216" cx="149.404" cy="94.047" rx="149.404" ry="94.047" transform="matrix(0.99, -0.1, 0.1, 0.99, 80.17, 123.13)" opacity="0.5"/>
    </g>
    <g id="Group_11355" data-name="Group 11355" transform="translate(745.292 5033.667)">
      <path id="Path_33921" data-name="Path 33921" d="M-674.662,182.1l-11.117-11.965-103.634-40.466-6.393,4.778-6.7-.27s-97.528,59.4-119.813,84c0,0-10.418,6.946-10.418,26.914,0,0,0,82.769,6.367,92.608l13.023,6.946,2.894-6.077" transform="translate(932.735 -129.665)" fill="#151513"/>
      <g id="Group_11347" data-name="Group 11347" transform="translate(17.303 155.086)">
        <g id="Group_11346" data-name="Group 11346" transform="translate(0)">
          <g id="Group_11344" data-name="Group 11344">
            <path id="Path_33922" data-name="Path 33922" d="M-783.938,591.172l-103-51.041v61.2c2.343-9.286,99.595,17.949,94.112,59.159l8.889,4.4Z" transform="translate(886.939 -540.131)" fill="#040500"/>
          </g>
          <g id="Group_11345" data-name="Group 11345" transform="translate(0 40.497)">
            <path id="Path_33923" data-name="Path 33923" d="M-800.02,681.817a45.51,45.51,0,0,0-11.437-7.084Q-821.594,670-831.7,665.2q-10.987-5.2-21.962-10.433c-4.766-2.27-9.534-5.287-14.49-7.051-4.907-1.747-9.608,2.613-12.651,6.061-3.422,3.877-6.139,8.957-6.139,14.24v12.522l94.109,46.635s2.855-27.775-.645-36.125A25.352,25.352,0,0,0-800.02,681.817Z" transform="translate(886.939 -647.315)" fill="#2b2b29"/>
          </g>
        </g>
      </g>
      <path id="Path_33924" data-name="Path 33924" d="M-751.9,139.085l99.8,37.477,3.916,3.075,8.556,3.37L-792.919,356.3l-94.02-115.193Z" transform="translate(904.242 -135.526)" fill="#040500"/>
      <path id="Path_33925" data-name="Path 33925" d="M-470.014,255.333l-121.133,91.4a58.291,58.291,0,0,0-23.182,46.531V487.7l144.315-108.888Z" transform="translate(734.632 -207.852)" fill="#151513"/>
      <path id="Path_33926" data-name="Path 33926" d="M-331.143,558.144l-11.106,8.827v9.5l11.106-8.827Z" transform="translate(565.352 -396.252)" fill="#2b2b29"/>
      <path id="Path_33927" data-name="Path 33927" d="M-779.654,129.665l-23.889,17.579c-24.066,18.133-60.354,45.479-69.342,52.211-9.115,6.837-17.647,13.461-26.411,20.73a21.3,21.3,0,0,0-2.923,2.68A65.8,65.8,0,0,0-914.863,246.6a65.146,65.146,0,0,0-2.1,15.7c-.087,2.666-.088,5.335-.078,8,.012,3.311-.026,6.6,1.891,9.446,1.975,2.938,6.08,4.948,9.017,6.84a209.1,209.1,0,0,0,24.664,13.075q4.282,2.011,8.6,3.943,4.913,2.2,9.861,4.325,2.321,1,4.648,1.981l36.078,16.978c3.753,1.766,8.706-2.261,9.715-5.554,1.167-3.8.012-8.968.051-12.974a75.233,75.233,0,0,1,1.34-14.311A55.35,55.35,0,0,1-802.6,273.9c4.578-6.681,10.544-11.337,16.806-16.322q8.584-6.833,17.38-13.394c13.257-9.93,92.36-69.575,97.582-73.486Z" transform="translate(922.975 -129.665)" fill="#2b2b29"/>
      <path id="Path_33928" data-name="Path 33928" d="M-297.406,533.54l-11.106,8.38v9.5l11.106-8.38Z" transform="translate(544.362 -380.944)" fill="#2b2b29"/>
      <path id="Path_33929" data-name="Path 33929" d="M-791.653,533.013h0c0,3.077-2.517,4.362-5.595,2.855l-59.424-29.1c-3.077-1.507-5.6-5.258-5.6-8.335h0" transform="translate(888.892 -359.102)" fill="#070908"/>
      <path id="Path_33930" data-name="Path 33930" d="M-884.169,503.913s-30.523,22.612-36.311,54.447l51.128,26.046s16.632-43.063,36.7-55.026Z" transform="translate(925.11 -362.511)" fill="#fbfbf9"/>
      <g id="Group_11351" data-name="Group 11351" transform="translate(18.386 148.335)">
        <g id="Group_11350" data-name="Group 11350" transform="translate(0 0)">
          <g id="Group_11348" data-name="Group 11348">
            <path id="Path_33931" data-name="Path 33931" d="M-884.072,543.24l23.166,11.453a115.241,115.241,0,0,1,17.5-20.942l-23.235-11.487A114.9,114.9,0,0,0-884.072,543.24Z" transform="translate(884.072 -522.263)" fill="#151513"/>
          </g>
          <g id="Group_11349" data-name="Group 11349" transform="translate(68.461 25.317)">
            <path id="Path_33932" data-name="Path 33932" d="M-702.624,589.3l-.069-.034c-.062.063-.122.128-.184.191C-702.793,589.409-702.709,589.354-702.624,589.3Z" transform="translate(702.877 -589.269)" fill="#151513"/>
          </g>
        </g>
      </g>
      <path id="Path_33933" data-name="Path 33933" d="M-862.267,492.693h0c0-3.077,2.518-4.362,5.6-2.855l59.424,29.1c3.077,1.507,5.595,5.257,5.595,8.335h0" transform="translate(888.892 -353.361)" fill="#070908"/>
      <path id="Path_33934" data-name="Path 33934" d="M-772.605,780.981h0c0,.51-.418.723-.928.473l-9.85-4.823a1.729,1.729,0,0,1-.928-1.382h0" transform="translate(840.389 -531.329)" fill="#070908"/>
      <path id="Path_33935" data-name="Path 33935" d="M-784.31,774.3h0c0-.51.417-.723.928-.473l9.85,4.823a1.728,1.728,0,0,1,.928,1.381h0" transform="translate(840.389 -530.377)" fill="#070908"/>
      <rect id="Rectangle_285" data-name="Rectangle 285" width="46.69" height="3.558" transform="translate(11.684 187.56) rotate(27.022)" fill="#040500"/>
      <rect id="Rectangle_286" data-name="Rectangle 286" width="46.69" height="3.558" transform="translate(16.442 178.23) rotate(27.022)" fill="#040500"/>
      <path id="Path_33936" data-name="Path 33936" d="M-797.985,614.274l-19.071-10.244,1.048-1.524,19.071,10.244Z" transform="translate(860.763 -423.854)" fill="#040500"/>
      <path id="Path_33937" data-name="Path 33937" d="M-785.183,599.179l-19.071-10.244,1.048-1.524,19.071,10.244Z" transform="translate(852.798 -414.462)" fill="#040500"/>
      <path id="Path_33938" data-name="Path 33938" d="M-770.415,586.409l-19.071-10.244,1.048-1.523,19.071,10.244Z" transform="translate(843.61 -406.516)" fill="#040500"/>
      <path id="Path_33939" data-name="Path 33939" d="M-754.764,572.99l-19.071-10.244,1.049-1.524,19.071,10.244Z" transform="translate(833.872 -398.168)" fill="#040500"/>
    </g>
    <g id="Group_10452" data-name="Group 10452" transform="translate(639 5098.566)">
      <circle id="Ellipse_207" data-name="Ellipse 207" cx="64" cy="64" r="64" transform="translate(0 0.434)"/>
      <text id="Printer" transform="translate(40 70.434)" fill="#fff" font-size="15" font-family="Kanit-Medium, Kanit" font-weight="500"><tspan x="0" y="0">Printer</tspan></text>
    </g>
  </g>
</svg>
